<?xml version="1.0" encoding="utf-8"?>
<svg xmlns="http://www.w3.org/2000/svg" data-name="Layer 1" viewBox="0.42 -7.718 95 116.132" x="0px" y="0px" xmlns:bx="https://boxy-svg.com" width="95px" height="116.132px"><defs><style>.cls-1{fill-rule:evenodd;}</style><bx:export><bx:file format="svg" path="a.svg"/></bx:export></defs><title>a</title><path class="cls-1" d="M55.19,39.788a1.406,1.406,0,0,1-1.407,1.406H42.419a1.406,1.406,0,1,1,0-2.812H53.783a1.406,1.406,0,0,1,1.407,1.406Zm21.536,6.687V5.63H65.741V19.319a1.4,1.4,0,0,1-2.4.994L56.3,13.274l-7.038,7.039a1.407,1.407,0,0,1-2.4-.994V5.63H35.88V46.475ZM49.675,5.63H62.929V15.924L57.3,10.291a1.407,1.407,0,0,0-1.989,0l-5.634,5.633V5.63Zm-15.2-2.813a1.406,1.406,0,0,0-1.407,1.407V47.882a1.406,1.406,0,0,0,1.407,1.406H78.133a1.407,1.407,0,0,0,1.406-1.406V4.224a1.408,1.408,0,0,0-1.406-1.407ZM5.361,67.746a2.12,2.12,0,0,1,.9-1.361l6.263-4.205a2.14,2.14,0,0,1,2.961.582L28.3,81.843a2.135,2.135,0,0,1-.583,2.959l-6.262,4.206a2.137,2.137,0,0,1-2.96-.582L5.681,69.345a2.109,2.109,0,0,1-.32-1.6Zm14.673-3.337L20,64.436l9.476,14.111.193-.155a1.4,1.4,0,0,1,.889-.319H62.039a5.392,5.392,0,0,0,3.65-1.329L87.744,58.205c1.387-1.166,2.618-3.2,1.528-5.086a3.692,3.692,0,0,0-4.984-1.3L64.55,62.37a5.8,5.8,0,0,1-5.72,4.91H45.685a1.407,1.407,0,1,1,0-2.813H58.83a2.975,2.975,0,0,0,0-5.95H45.685a1.408,1.408,0,0,1-.856-.29,14.147,14.147,0,0,0-19.372,2.024,1.485,1.485,0,0,1-.184.179c-1.168.943-3.237,2.487-5.239,3.979ZM16.159,89.994,3.345,70.914A4.954,4.954,0,0,1,4.694,64.05l6.264-4.206a4.953,4.953,0,0,1,6.862,1.35l.607.9c1.9-1.417,3.851-2.871,4.98-3.775A16.96,16.96,0,0,1,46.153,55.7H58.83a5.8,5.8,0,0,1,5.38,3.661L82.961,49.337a6.489,6.489,0,0,1,8.745,2.376c1.59,2.752.725,6.225-2.151,8.645L67.5,78.9a8.26,8.26,0,0,1-5.459,1.989H31.057L31,80.929a4.957,4.957,0,0,1-1.719,6.209L23.02,91.344a4.893,4.893,0,0,1-2.742.839,5.031,5.031,0,0,1-.967-.1A4.909,4.909,0,0,1,16.159,89.994Z"/></svg>