<svg xmlns="http://www.w3.org/2000/svg" xmlns:xlink="http://www.w3.org/1999/xlink" xmlns:serif="http://www.serif.com/" viewBox="0 0 32 40" version="1.1" xml:space="preserve" style="" x="0px" y="0px" fill-rule="evenodd" clip-rule="evenodd" stroke-linejoin="round" stroke-miterlimit="2"><g transform="matrix(1,0,0,1,-240,0)"><path d="M252,23C250.896,23 250,23.896 250,25C250,26.104 250.896,27 252,27C253.104,27 254,26.104 254,25C254,23.896 253.104,23 252,23ZM265,23C263.896,23 263,23.896 263,25C263,26.104 263.896,27 265,27C266.104,27 267,26.104 267,25C267,23.896 266.104,23 265,23ZM252,24C252.552,24 253,24.448 253,25C253,25.552 252.552,26 252,26C251.448,26 251,25.552 251,25C251,24.448 251.448,24 252,24ZM265,24C265.552,24 266,24.448 266,25C266,25.552 265.552,26 265,26C264.448,26 264,25.552 264,25C264,24.448 264.448,24 265,24ZM244,7L247.5,7C247.776,7 248,7.224 248,7.5C248,7.5 248,21.5 248,21.5C248,22.328 248.672,23 249.5,23C253.548,23 268.5,23 268.5,23C268.776,23 269,22.776 269,22.5C269,22.224 268.776,22 268.5,22C268.5,22 253.548,22 249.5,22C249.224,22 249,21.776 249,21.5C249,21.5 249,7.5 249,7.5C249,6.672 248.328,6 247.5,6L244,6C243.724,6 243.5,6.224 243.5,6.5C243.5,6.776 243.724,7 244,7ZM266.5,8.5C266.5,7.119 265.381,6 264,6C261.027,6 255.473,6 252.5,6C251.119,6 250,7.119 250,8.5C250,11.161 250,15.839 250,18.5C250,19.881 251.119,21 252.5,21C255.473,21 261.027,21 264,21C265.381,21 266.5,19.881 266.5,18.5L266.5,8.5ZM261,7L261,12.5C261,12.689 260.893,12.863 260.724,12.947C260.554,13.032 260.352,13.014 260.2,12.9C260.2,12.9 258.5,11.625 258.5,11.625L256.8,12.9C256.648,13.014 256.446,13.032 256.276,12.947C256.107,12.863 256,12.689 256,12.5L256,7L252.5,7C251.672,7 251,7.672 251,8.5C251,8.5 251,18.5 251,18.5C251,19.328 251.672,20 252.5,20C252.5,20 264,20 264,20C264.828,20 265.5,19.328 265.5,18.5L265.5,8.5C265.5,7.672 264.828,7 264,7L261,7ZM260,7L260,11.5C260,11.5 258.8,10.6 258.8,10.6C258.622,10.467 258.378,10.467 258.2,10.6L257,11.5C257,11.5 257,7 257,7L260,7Z"/></g><text x="0" y="47" fill="#000000" font-size="5px" font-weight="bold" font-family="'Helvetica Neue', Helvetica, Arial-Unicode, Arial, Sans-serif">Created by Pro Design</text><text x="0" y="52" fill="#000000" font-size="5px" font-weight="bold" font-family="'Helvetica Neue', Helvetica, Arial-Unicode, Arial, Sans-serif">from the Noun Project</text></svg>