<?xml version="1.0" encoding="utf-8"?>
<svg xmlns="http://www.w3.org/2000/svg" viewBox="-1.235 -5.579 65.905 77.271" x="0px" y="0px" xmlns:bx="https://boxy-svg.com" width="65.905px" height="77.271px"><defs><bx:export><bx:file format="svg"/></bx:export></defs><path d="m32.08300781,55.34570312l-4.08300781,2.03741455v-24.38311768c0-.55273438-.44775391-1-1-1s-1,.44726562-1,1v24.3815918L2,45.38183594V15.61816406l7,3.5v9.88183594c0,.37890625.21386719.72460938.55273438.89453125l6,3c.14111328.0703125.29443359.10546875.44726562.10546875.18261719,0,.36523438-.04980469.52587891-.14941406.29443359-.18261719.47412109-.50390625.47412109-.85058594v-8.88183594l9.55273438,4.77636719c.140625.0703125.29394531.10546875.44726562.10546875s.30664062-.03515625.44726562-.10546875l24.55273438-12.27636719v15.84179688c0,.55273438.44775391,1,1,1s1-.44726562,1-1V14c0-.37890625-.21386719-.72460938-.55273438-.89453125L27.44726562.10546875c-.28125-.140625-.61328125-.140625-.89453125,0L.55273438,13.10546875c-.33886719.16992188-.55273438.515625-.55273438.89453125v32c0,.37890625.21386719.72460938.55273438.89453125l26,13c.00872803.00439453.01898193.00250244.02783203.0065918.128479.06005859.26824951.09887695.41943359.09887695.15130615,0,.2911377-.03894043.41967773-.09906006.00860596-.00402832.01855469-.00213623.02709961-.00640869l5.52978516-2.75976562c.49414062-.24609375.69482422-.84667969.44775391-1.34082031-.24658203-.49316406-.84619141-.69628906-1.34130859-.44824219ZM16,20.38183594l-3.76391602-1.88195801,23.76391602-11.88171387,3.76391602,1.88195801-23.76391602,11.88171387Zm-1,10l-4-2v-8.26367188l4,2v8.26367188Zm12-4.5l-8.76367188-4.38183594,23.76367188-11.88183594,8.76367188,4.38183594-23.76367188,11.88183594Zm0-23.76367188l6.76367188,3.38183594-23.76367188,11.88183594-6.76367188-3.38183594L27,2.11816406Zm-11.55273438,38.98730469c-.31005859-.15429688-.67871094-.13964844-.97314453.04394531-.29443359.18261719-.47412109.50390625-.47412109.85058594v6c0,.37890625.21386719.72460938.55273438.89453125l8,4c.14111328.0703125.29443359.10546875.44726562.10546875.18261719,0,.36523438-.04980469.52587891-.14941406.29443359-.18261719.47412109-.50390625.47412109-.85058594v-6c0-.37890625-.21386719-.72460938-.55273438-.89453125l-8-4Zm6.55273438,9.27636719l-6-3v-3.76367188l6,3v3.76367188Zm27-16.38183594c-8.27099609,0-15,6.72851562-15,15s6.72900391,15,15,15,15-6.72851562,15-15-6.72900391-15-15-15Zm0,28c-7.16845703,0-13-5.83203125-13-13s5.83154297-13,13-13,13,5.83203125,13,13-5.83154297,13-13,13Zm0-24c-6.06542969,0-11,4.93457031-11,11s4.93457031,11,11,11,11-4.93457031,11-11-4.93457031-11-11-11Zm0,20c-4.96240234,0-9-4.03710938-9-9s4.03759766-9,9-9,9,4.03710938,9,9-4.03759766,9-9,9Zm1-14v5c0,.265625-.10546875.51953125-.29296875.70703125l-3,3c-.1953125.1953125-.45117188.29296875-.70703125.29296875s-.51171875-.09765625-.70703125-.29296875c-.390625-.390625-.390625-1.0234375,0-1.4140625l2.70703125-2.70703125v-4.5859375c0-.55273438.44775391-1,1-1s1,.44726562,1,1Z" style="" stroke-width="0px"/></svg>