<?xml version="1.0" encoding="utf-8"?>
<svg xmlns="http://www.w3.org/2000/svg" version="1.1" x="0px" y="0px" viewBox="0 0 550 612.5" style="enable-background:new 0 0 550 550;" width="550px" height="612.5px"><g><g><g><path d="M275,500H35c-8.284,0-15-6.716-15-15V275c0-8.284,6.716-15,15-15h240c8.284,0,15,6.716,15,15v210     C290,493.284,283.284,500,275,500z M50,470h210V290H50V470z"/></g><g><path d="M515,500H275c-8.284,0-15-6.716-15-15V275c0-8.284,6.716-15,15-15h240c8.284,0,15,6.716,15,15v210     C530,493.284,523.284,500,515,500z M290,470h210V290H290V470z"/></g><g><path d="M185,365c-2.293,0-4.59-0.525-6.708-1.584L155,351.771l-23.292,11.646c-4.649,2.325-10.172,2.077-14.594-0.656     C112.692,360.026,110,355.198,110,350v-75c0-8.284,6.716-15,15-15s15,6.716,15,15v50.729l8.292-4.146     c4.223-2.111,9.193-2.111,13.416,0l8.292,4.146V275c0-8.284,6.716-15,15-15s15,6.716,15,15v75c0,5.198-2.692,10.026-7.114,12.76     C190.477,364.248,187.742,365,185,365z"/></g><g><path d="M424.999,365c-2.292,0-4.59-0.525-6.707-1.584L395,351.771l-23.292,11.646c-4.651,2.325-10.171,2.077-14.594-0.656     S350,355.198,350,350v-75c0-8.284,6.716-15,15-15s15,6.716,15,15v50.729l8.292-4.146c4.223-2.111,9.193-2.111,13.416,0     l8.292,4.146V275c0-8.284,6.716-15,15-15s15,6.716,15,15v75c0,5.198-2.691,10.026-7.114,12.76     C430.478,364.248,427.742,365,424.999,365z"/></g><g><g><path d="M395,290H155c-8.284,0-15-6.716-15-15V65c0-8.284,6.716-15,15-15h240c8.284,0,15,6.716,15,15v210      C410,283.284,403.284,290,395,290z M170,260h210V80H170V260z"/></g><g><path d="M304.999,155c-2.292,0-4.59-0.525-6.707-1.583L275,141.771l-23.292,11.646c-4.649,2.324-10.171,2.076-14.594-0.657      C232.692,150.027,230,145.199,230,140V65c0-8.284,6.716-15,15-15s15,6.716,15,15v50.729l8.292-4.146      c4.223-2.111,9.194-2.111,13.416,0l8.292,4.146V65c0-8.284,6.716-15,15-15s15,6.716,15,15v75c0,5.199-2.691,10.027-7.114,12.76      C310.478,154.249,307.742,155,304.999,155z"/></g></g><g><path d="M515,440H35c-8.284,0-15-6.716-15-15s6.716-15,15-15h480c8.284,0,15,6.716,15,15S523.284,440,515,440z"/></g><g><path d="M395,230H155c-8.284,0-15-6.716-15-15s6.716-15,15-15h240c8.284,0,15,6.716,15,15S403.284,230,395,230z"/></g></g></g></svg>