<?xml version="1.0" encoding="UTF-8"?>
<!DOCTYPE svg PUBLIC "-//W3C//DTD SVG 1.1//EN" "http://www.w3.org/Graphics/SVG/1.1/DTD/svg11.dtd">
<svg xmlns="http://www.w3.org/2000/svg" version="1.1" width="583px" height="428px" style="shape-rendering:geometricPrecision; text-rendering:geometricPrecision; image-rendering:optimizeQuality; fill-rule:evenodd; clip-rule:evenodd" xmlns:xlink="http://www.w3.org/1999/xlink">
<g><path style="opacity:1" fill="#dbedee" d="M 123.5,25.5 C 123.5,41.5 123.5,57.5 123.5,73.5C 107.5,73.5 91.5,73.5 75.5,73.5C 76.9308,47.8784 90.2641,32.0451 115.5,26C 118.146,25.5026 120.813,25.3359 123.5,25.5 Z"/></g>
<g><path style="opacity:1" fill="#19c2d5" d="M 123.5,25.5 C 137.241,25.5077 148.574,30.5077 157.5,40.5C 154.757,42.2393 152.757,44.5726 151.5,47.5C 141.808,55.8618 132.474,64.5284 123.5,73.5C 123.5,57.5 123.5,41.5 123.5,25.5 Z"/></g>
<g><path style="opacity:1" fill="#0e8443" d="M 159.5,106.5 C 149.92,117.036 137.92,122.369 123.5,122.5C 123.83,106.658 123.496,90.9911 122.5,75.5C 122.5,75.1667 122.5,74.8333 122.5,74.5C 123.167,74.5 123.5,74.1667 123.5,73.5C 132.474,64.5284 141.808,55.8618 151.5,47.5C 153.754,46.5849 155.754,45.2516 157.5,43.5C 159.217,44.6685 159.884,46.3352 159.5,48.5C 160.5,48.5 161.5,48.5 162.5,48.5C 164.658,53.0348 166.824,57.7015 169,62.5C 169.831,70.1883 169.665,77.855 168.5,85.5C 166.282,92.9261 163.282,99.9261 159.5,106.5 Z"/></g>
<g><path style="opacity:1" fill="#9ca2a1" d="M 75.5,73.5 C 91.5,73.5 107.5,73.5 123.5,73.5C 123.5,74.1667 123.167,74.5 122.5,74.5C 106.833,74.5 91.1667,74.5 75.5,74.5C 75.5,75.8333 75.5,77.1667 75.5,78.5C 74.1667,76.8333 74.1667,75.1667 75.5,73.5 Z"/></g>
<g><path style="opacity:1" fill="#060405" d="M 122.5,74.5 C 122.5,74.8333 122.5,75.1667 122.5,75.5C 120.5,76.8333 118.833,78.5 117.5,80.5C 108.114,89.8889 98.4474,98.8889 88.5,107.5C 80.6652,99.4901 76.3318,89.8234 75.5,78.5C 75.5,77.1667 75.5,75.8333 75.5,74.5C 91.1667,74.5 106.833,74.5 122.5,74.5 Z"/></g>
<g><path style="opacity:1" fill="#237b4b" d="M 157.5,40.5 C 166.156,48.1482 170.823,57.8149 171.5,69.5C 172.301,83.5248 168.301,95.8582 159.5,106.5C 163.282,99.9261 166.282,92.9261 168.5,85.5C 169.665,77.855 169.831,70.1883 169,62.5C 166.824,57.7015 164.658,53.0348 162.5,48.5C 161.5,48.5 160.5,48.5 159.5,48.5C 159.884,46.3352 159.217,44.6685 157.5,43.5C 155.754,45.2516 153.754,46.5849 151.5,47.5C 152.757,44.5726 154.757,42.2393 157.5,40.5 Z"/></g>
<g><path style="opacity:1" fill="#fa9334" d="M 112.5,121.5 C 106.139,120.151 100.472,117.485 95.5,113.5C 93.7516,111.84 93.2516,109.84 94,107.5C 99.0485,103.118 103.382,98.1183 107,92.5C 111.83,89.5141 115.33,85.5141 117.5,80.5C 119.371,80.1412 120.871,79.1412 122,77.5C 122.5,92.1629 122.667,106.83 122.5,121.5C 119.167,121.5 115.833,121.5 112.5,121.5 Z"/></g>
<g><path style="opacity:1" fill="#c49b4b" d="M 122.5,75.5 C 123.496,90.9911 123.83,106.658 123.5,122.5C 121.167,122.5 118.833,122.5 116.5,122.5C 114.901,122.768 113.568,122.434 112.5,121.5C 115.833,121.5 119.167,121.5 122.5,121.5C 122.667,106.83 122.5,92.1629 122,77.5C 120.871,79.1412 119.371,80.1412 117.5,80.5C 118.833,78.5 120.5,76.8333 122.5,75.5 Z"/></g>
<g><path style="opacity:1" fill="#df9d5b" d="M 357.5,97.5 C 394.833,97.5 432.167,97.5 469.5,97.5C 469.5,102.167 469.5,106.833 469.5,111.5C 469.167,111.5 468.833,111.5 468.5,111.5C 468.5,107.167 468.5,102.833 468.5,98.5C 431.427,98.1734 394.427,98.5067 357.5,99.5C 357.5,98.8333 357.5,98.1667 357.5,97.5 Z"/></g>
<g><path style="opacity:1" fill="#d69449" d="M 117.5,80.5 C 115.33,85.5141 111.83,89.5141 107,92.5C 103.382,98.1183 99.0485,103.118 94,107.5C 93.2516,109.84 93.7516,111.84 95.5,113.5C 92.5726,112.243 90.2393,110.243 88.5,107.5C 98.4474,98.8889 108.114,89.8889 117.5,80.5 Z"/></g>
<g><path style="opacity:1" fill="#fd9231" d="M 468.5,111.5 C 468.5,131.5 468.5,151.5 468.5,171.5C 444.167,171.5 419.833,171.5 395.5,171.5C 395.5,171.167 395.5,170.833 395.5,170.5C 397.857,170.663 400.19,170.497 402.5,170C 400.369,169.457 398.369,168.624 396.5,167.5C 395.167,166.5 395.167,165.5 396.5,164.5C 394.308,163.141 392.641,161.308 391.5,159C 387.547,157.186 383.547,155.686 379.5,154.5C 378.953,149.398 378.62,144.398 378.5,139.5C 373.374,134.839 368.541,129.839 364,124.5C 363.751,125.624 363.251,126.624 362.5,127.5C 360.381,117.094 359.048,117.094 358.5,127.5C 358.167,127.5 357.833,127.5 357.5,127.5C 357.5,118.167 357.5,108.833 357.5,99.5C 394.427,98.5067 431.427,98.1734 468.5,98.5C 468.5,102.833 468.5,107.167 468.5,111.5 Z"/></g>
<g><path style="opacity:1" fill="#f8ce99" d="M 445.5,137.5 C 442.941,137.802 440.607,137.468 438.5,136.5C 440.5,136.5 442.5,136.5 444.5,136.5C 444.5,129.5 444.5,122.5 444.5,115.5C 437.5,115.5 430.5,115.5 423.5,115.5C 423.5,117.5 423.5,119.5 423.5,121.5C 422.532,119.393 422.198,117.059 422.5,114.5C 430.167,114.5 437.833,114.5 445.5,114.5C 445.5,122.167 445.5,129.833 445.5,137.5 Z"/></g>
<g><path style="opacity:1" fill="#f7c694" d="M 423.5,121.5 C 426.572,121.183 429.572,121.516 432.5,122.5C 430.457,126.543 427.457,129.543 423.5,131.5C 425.127,129.37 426.96,127.37 429,125.5C 429.483,124.552 429.649,123.552 429.5,122.5C 427.265,122.795 425.265,122.461 423.5,121.5 Z"/></g>
<g><path style="opacity:1" fill="#fdf9ee" d="M 438.5,136.5 C 438.5,133.833 438.5,131.167 438.5,128.5C 431.945,132.051 426.611,137.051 422.5,143.5C 420.152,145.68 417.652,147.68 415,149.5C 411.005,146.337 407.172,143.004 403.5,139.5C 397.327,143.841 391.993,149.007 387.5,155C 386.002,155.585 385.002,155.085 384.5,153.5C 383.588,152.262 383.421,150.928 384,149.5C 388.768,145.24 392.934,140.573 396.5,135.5C 398.227,132.772 400.56,130.772 403.5,129.5C 407.172,133.004 411.005,136.337 415,139.5C 417.682,136.651 420.515,133.984 423.5,131.5C 427.457,129.543 430.457,126.543 432.5,122.5C 429.572,121.516 426.572,121.183 423.5,121.5C 423.5,119.5 423.5,117.5 423.5,115.5C 430.5,115.5 437.5,115.5 444.5,115.5C 444.5,122.5 444.5,129.5 444.5,136.5C 442.5,136.5 440.5,136.5 438.5,136.5 Z"/></g>
<g><path style="opacity:1" fill="#dbedec" d="M 469.5,97.5 C 432.167,97.5 394.833,97.5 357.5,97.5C 356.662,97.8417 356.328,98.5084 356.5,99.5C 355.502,129.995 355.169,160.662 355.5,191.5C 356.791,191.737 357.791,191.404 358.5,190.5C 358.5,190.167 358.5,189.833 358.5,189.5C 359.167,188.167 359.833,186.833 360.5,185.5C 360.833,185.5 361.167,185.5 361.5,185.5C 364.574,182.99 366.907,179.99 368.5,176.5C 370.103,176.688 371.437,176.188 372.5,175C 405.182,175.161 437.516,174.328 469.5,172.5C 469.5,156.833 469.5,141.167 469.5,125.5C 510.016,167.107 533.183,217.107 539,275.5C 540.655,316.324 540.822,356.991 539.5,397.5C 529.219,395.524 518.552,394.857 507.5,395.5C 507.5,339.833 507.5,284.167 507.5,228.5C 507.579,225.729 507.079,223.063 506,220.5C 503.623,216.912 501.123,213.412 498.5,210C 497.207,209.51 495.873,209.343 494.5,209.5C 492.973,209.573 491.973,208.906 491.5,207.5C 491.586,206.504 491.252,205.671 490.5,205C 488.5,204.333 486.5,203.667 484.5,203C 437.168,202.5 389.835,202.333 342.5,202.5C 342.831,180.993 342.497,159.66 341.5,138.5C 329.345,137.505 317.011,137.171 304.5,137.5C 306.329,128.442 303.995,120.775 297.5,114.5C 296.311,113.571 294.978,113.238 293.5,113.5C 280.859,112.602 268.192,112.268 255.5,112.5C 255.881,101.432 250.881,93.9321 240.5,90C 227.247,86.8033 217.247,90.97 210.5,102.5C 209.5,102.5 208.5,102.5 207.5,102.5C 208.092,105.127 208.425,107.794 208.5,110.5C 196.149,110.168 183.815,110.501 171.5,111.5C 169.43,113.642 166.93,114.976 164,115.5C 161.327,122.45 159.827,129.617 159.5,137C 147.326,137.169 135.326,137.669 123.5,138.5C 123.5,188.167 123.5,237.833 123.5,287.5C 123.209,288.649 122.376,289.316 121,289.5C 118.921,288.597 116.754,287.931 114.5,287.5C 111.297,288.892 107.964,289.559 104.5,289.5C 105.001,293.495 106.334,297.162 108.5,300.5C 106.403,301.879 106.07,303.545 107.5,305.5C 107.5,305.833 107.5,306.167 107.5,306.5C 106.127,306.343 104.793,306.51 103.5,307C 104.308,307.308 104.975,307.808 105.5,308.5C 103.257,309.474 100.924,309.808 98.5,309.5C 97.6419,317.662 95.3086,325.329 91.5,332.5C 92.7294,346.829 92.7294,361.162 91.5,375.5C 90.2774,378.274 88.7774,380.941 87,383.5C 86.8333,384.833 86.6667,386.167 86.5,387.5C 86.5832,390.558 87.5832,393.225 89.5,395.5C 73.8333,395.5 58.1667,395.5 42.5,395.5C 42.3333,356.499 42.5,317.499 43,278.5C 48.0626,221.394 69.7293,171.728 108,129.5C 110.628,126.79 113.461,124.456 116.5,122.5C 118.833,122.5 121.167,122.5 123.5,122.5C 137.92,122.369 149.92,117.036 159.5,106.5C 168.301,95.8582 172.301,83.5248 171.5,69.5C 172.321,72.6414 172.821,75.9748 173,79.5C 249.719,40.5112 326.886,39.6779 404.5,77C 415.497,82.8296 426.164,89.163 436.5,96C 447.674,96.1695 458.674,96.6695 469.5,97.5 Z"/></g>
<g><path style="opacity:1" fill="#fb711c" d="M 358.5,128.5 C 360.053,135.534 362.72,142.201 366.5,148.5C 368.108,149.242 369.775,149.409 371.5,149C 372.634,150.016 372.301,150.683 370.5,151C 372.412,152.2 373.745,153.867 374.5,156C 376.556,156.311 378.556,156.811 380.5,157.5C 382.755,165.093 387.755,169.426 395.5,170.5C 395.5,170.833 395.5,171.167 395.5,171.5C 387.316,171.174 379.316,171.508 371.5,172.5C 368.5,175.833 365.5,179.167 362.5,182.5C 362.34,180.801 362.506,179.134 363,177.5C 364.666,178.34 364.833,177.84 363.5,176C 366.368,175.139 368.702,173.472 370.5,171C 372.833,170.667 375.167,170.333 377.5,170C 374.833,166.667 372.167,163.333 369.5,160C 369.957,159.586 370.291,159.086 370.5,158.5C 367.56,157.696 364.893,156.363 362.5,154.5C 361.914,154.709 361.414,155.043 361,155.5C 360.878,153.563 360.045,152.23 358.5,151.5C 358.5,143.833 358.5,136.167 358.5,128.5 Z"/></g>
<g><path style="opacity:1" fill="#e99e56" d="M 438.5,136.5 C 440.607,137.468 442.941,137.802 445.5,137.5C 443.034,138.634 440.367,138.801 437.5,138C 436.594,136.301 436.261,134.467 436.5,132.5C 435.448,132.351 434.448,132.517 433.5,133C 430.266,136.145 427.266,139.478 424.5,143C 423.906,143.464 423.239,143.631 422.5,143.5C 426.611,137.051 431.945,132.051 438.5,128.5C 438.5,131.167 438.5,133.833 438.5,136.5 Z"/></g>
<g><path style="opacity:1" fill="#adeef8" d="M 293.5,113.5 C 294.978,113.238 296.311,113.571 297.5,114.5C 303.995,120.775 306.329,128.442 304.5,137.5C 317.011,137.171 329.345,137.505 341.5,138.5C 328.833,138.5 316.167,138.5 303.5,138.5C 305.61,127.802 302.277,119.469 293.5,113.5 Z"/></g>
<g><path style="opacity:1" fill="#0ec3d7" d="M 293.5,113.5 C 302.277,119.469 305.61,127.802 303.5,138.5C 302.813,143.9 302.146,149.4 301.5,155C 255.168,155.5 208.835,155.667 162.5,155.5C 162.5,149.833 162.5,144.167 162.5,138.5C 160.428,128.658 163.094,120.491 170.5,114C 183.439,112.578 196.439,112.078 209.5,112.5C 209.616,109.14 209.949,105.807 210.5,102.5C 217.247,90.97 227.247,86.8033 240.5,90C 250.881,93.9321 255.881,101.432 255.5,112.5C 268.192,112.268 280.859,112.602 293.5,113.5 Z"/></g>
<g><path style="opacity:1" fill="#baf3f8" d="M 210.5,102.5 C 209.949,105.807 209.616,109.14 209.5,112.5C 196.439,112.078 183.439,112.578 170.5,114C 163.094,120.491 160.428,128.658 162.5,138.5C 149.5,138.5 136.5,138.5 123.5,138.5C 135.326,137.669 147.326,137.169 159.5,137C 159.827,129.617 161.327,122.45 164,115.5C 166.93,114.976 169.43,113.642 171.5,111.5C 183.815,110.501 196.149,110.168 208.5,110.5C 208.425,107.794 208.092,105.127 207.5,102.5C 208.5,102.5 209.5,102.5 210.5,102.5 Z"/></g>
<g><path style="opacity:1" fill="#f4fdfd" d="M 228.5,99.5 C 241.842,99.0177 247.009,105.351 244,118.5C 238.67,124.861 232.17,126.195 224.5,122.5C 220.912,117.777 219.745,112.444 221,106.5C 222.742,103.254 225.242,100.921 228.5,99.5 Z"/></g>
<g><path style="opacity:1" fill="#fcdeb6" d="M 396.5,135.5 C 392.934,140.573 388.768,145.24 384,149.5C 383.421,150.928 383.588,152.262 384.5,153.5C 381.924,153.278 381.09,151.945 382,149.5C 386.729,144.603 391.562,139.936 396.5,135.5 Z"/></g>
<g><path style="opacity:1" fill="#d1926c" d="M 357.5,97.5 C 357.5,98.1667 357.5,98.8333 357.5,99.5C 357.5,108.833 357.5,118.167 357.5,127.5C 357.169,148.34 357.503,169.007 358.5,189.5C 358.5,189.833 358.5,190.167 358.5,190.5C 356.508,160.518 355.841,130.185 356.5,99.5C 356.328,98.5084 356.662,97.8417 357.5,97.5 Z"/></g>
<g><path style="opacity:1" fill="#128dab" d="M 123.5,138.5 C 136.5,138.5 149.5,138.5 162.5,138.5C 162.5,144.167 162.5,149.833 162.5,155.5C 208.835,155.667 255.168,155.5 301.5,155C 302.146,149.4 302.813,143.9 303.5,138.5C 316.167,138.5 328.833,138.5 341.5,138.5C 341.5,160.167 341.5,181.833 341.5,203.5C 336.833,203.5 332.167,203.5 327.5,203.5C 327.5,187.5 327.5,171.5 327.5,155.5C 319.316,155.174 311.316,155.508 303.5,156.5C 257.167,156.5 210.833,156.5 164.5,156.5C 163.908,159.127 163.575,161.794 163.5,164.5C 165.884,164.557 168.218,164.223 170.5,163.5C 212.646,164.156 254.646,164.823 296.5,165.5C 250.761,165.172 205.095,165.505 159.5,166.5C 158.833,166.833 158.167,167.167 157.5,167.5C 158.835,163.828 160.168,160.162 161.5,156.5C 153.684,155.508 145.684,155.174 137.5,155.5C 136.819,157.158 135.985,158.825 135,160.5C 134.833,178.833 134.667,197.167 134.5,215.5C 134.932,239.254 134.932,262.754 134.5,286C 135.416,286.278 136.082,286.778 136.5,287.5C 135.365,289.213 133.698,289.88 131.5,289.5C 130.833,289.167 130.167,288.833 129.5,288.5C 127.735,287.539 125.735,287.205 123.5,287.5C 123.5,237.833 123.5,188.167 123.5,138.5 Z"/></g>
<g><path style="opacity:1" fill="#038aae" d="M 303.5,139.5 C 315.935,139.048 328.268,139.715 340.5,141.5C 340.667,159.503 340.5,177.503 340,195.5C 339.667,178.5 339.333,161.5 339,144.5C 338.81,159.874 337.977,175.207 336.5,190.5C 335.334,150.517 334.501,150.517 334,190.5C 332.812,191.563 332.312,192.897 332.5,194.5C 333.93,194.579 335.264,194.246 336.5,193.5C 337.724,195.828 337.724,198.161 336.5,200.5C 334.187,201.273 331.854,201.94 329.5,202.5C 328.132,186.727 328.299,171.061 330,155.5C 328.527,153.993 326.693,153.326 324.5,153.5C 317.525,154.342 310.525,154.675 303.5,154.5C 303.5,149.5 303.5,144.5 303.5,139.5 Z"/></g>
<g><path style="opacity:1" fill="#028bb0" d="M 303.5,156.5 C 304.696,159.421 305.696,162.421 306.5,165.5C 305.833,165.5 305.5,165.833 305.5,166.5C 302.57,165.701 299.57,165.368 296.5,165.5C 254.646,164.823 212.646,164.156 170.5,163.5C 168.218,164.223 165.884,164.557 163.5,164.5C 163.575,161.794 163.908,159.127 164.5,156.5C 210.833,156.5 257.167,156.5 303.5,156.5 Z"/></g>
<g><path style="opacity:1" fill="#fbfcfb" d="M 303.5,156.5 C 311.167,156.5 318.833,156.5 326.5,156.5C 326.5,172.167 326.5,187.833 326.5,203.5C 307.83,203.333 289.164,203.5 270.5,204C 267.719,204.522 265.385,205.689 263.5,207.5C 243.831,207.333 224.164,207.5 204.5,208C 222.509,208.167 240.509,208.667 258.5,209.5C 254.395,212.27 251.395,215.937 249.5,220.5C 234.511,221.333 219.511,221.833 204.5,222C 218.829,222.5 233.163,222.667 247.5,222.5C 247.007,224.806 246.674,227.139 246.5,229.5C 245.539,231.265 245.205,233.265 245.5,235.5C 265.66,236.497 285.993,236.83 306.5,236.5C 306.5,256.833 306.5,277.167 306.5,297.5C 293.086,296.863 279.919,297.53 267,299.5C 264.066,297.807 260.899,296.807 257.5,296.5C 256.167,295.5 254.833,294.5 253.5,293.5C 251.833,291.167 249.833,289.167 247.5,287.5C 244.833,284.167 241.833,281.167 238.5,278.5C 235.211,277.626 231.877,276.959 228.5,276.5C 220.657,275.18 212.657,275.18 204.5,276.5C 212.138,277.497 219.804,277.831 227.5,277.5C 229.011,280.544 229.678,283.878 229.5,287.5C 230.808,290.486 232.141,293.486 233.5,296.5C 208.601,297.827 183.768,297.827 159,296.5C 157.883,297.949 157.216,299.616 157,301.5C 153.51,304.01 153.01,303.51 155.5,300C 153.366,296.099 152.366,291.932 152.5,287.5C 150.801,287.62 149.135,287.954 147.5,288.5C 145.098,286.951 142.432,286.284 139.5,286.5C 139.5,243.5 139.5,200.5 139.5,157.5C 146.2,157.17 152.866,157.503 159.5,158.5C 157.332,161.498 156.332,164.831 156.5,168.5C 156.5,169.5 156.5,170.5 156.5,171.5C 207.336,171.832 258.003,171.499 308.5,170.5C 308.204,168.597 307.537,166.93 306.5,165.5C 305.696,162.421 304.696,159.421 303.5,156.5 Z"/></g>
<g><path style="opacity:1" fill="#0489ae" d="M 126.5,139.5 C 137.505,139.333 148.505,139.5 159.5,140C 164.578,150.93 161.078,155.763 149,154.5C 145.5,154.333 142,154.167 138.5,154C 137.975,153.308 137.308,152.808 136.5,152.5C 134.934,155.396 133.101,158.063 131,160.5C 130.787,200.228 130.287,239.728 129.5,279C 129.34,281.47 130.007,283.636 131.5,285.5C 129.257,286.474 126.924,286.808 124.5,286.5C 124.333,238.499 124.5,190.499 125,142.5C 125.513,141.473 126.013,140.473 126.5,139.5 Z"/></g>
<g><path style="opacity:1" fill="#fd7e23" d="M 395.5,170.5 C 387.755,169.426 382.755,165.093 380.5,157.5C 378.556,156.811 376.556,156.311 374.5,156C 373.745,153.867 372.412,152.2 370.5,151C 372.301,150.683 372.634,150.016 371.5,149C 369.775,149.409 368.108,149.242 366.5,148.5C 362.72,142.201 360.053,135.534 358.5,128.5C 358.5,128.167 358.5,127.833 358.5,127.5C 359.048,117.094 360.381,117.094 362.5,127.5C 363.251,126.624 363.751,125.624 364,124.5C 368.541,129.839 373.374,134.839 378.5,139.5C 378.62,144.398 378.953,149.398 379.5,154.5C 383.547,155.686 387.547,157.186 391.5,159C 392.641,161.308 394.308,163.141 396.5,164.5C 395.167,165.5 395.167,166.5 396.5,167.5C 398.369,168.624 400.369,169.457 402.5,170C 400.19,170.497 397.857,170.663 395.5,170.5 Z"/></g>
<g><path style="opacity:1" fill="#fc5d0f" d="M 358.5,151.5 C 360.045,152.23 360.878,153.563 361,155.5C 361.414,155.043 361.914,154.709 362.5,154.5C 364.893,156.363 367.56,157.696 370.5,158.5C 370.291,159.086 369.957,159.586 369.5,160C 372.167,163.333 374.833,166.667 377.5,170C 375.167,170.333 372.833,170.667 370.5,171C 368.702,173.472 366.368,175.139 363.5,176C 364.833,177.84 364.666,178.34 363,177.5C 362.506,179.134 362.34,180.801 362.5,182.5C 361.89,183.391 361.557,184.391 361.5,185.5C 361.167,185.5 360.833,185.5 360.5,185.5C 358.522,174.549 357.856,163.216 358.5,151.5 Z"/></g>
<g><path style="opacity:1" fill="#037aa1" d="M 296.5,165.5 C 299.57,165.368 302.57,165.701 305.5,166.5C 281.509,167.833 257.176,168.5 232.5,168.5C 207.824,168.5 183.491,167.833 159.5,166.5C 205.095,165.505 250.761,165.172 296.5,165.5 Z"/></g>
<g><path style="opacity:1" fill="#78b3bf" d="M 137.5,155.5 C 145.684,155.174 153.684,155.508 161.5,156.5C 153.833,156.5 146.167,156.5 138.5,156.5C 138.5,199.833 138.5,243.167 138.5,286.5C 138.5,286.833 138.5,287.167 138.5,287.5C 138.167,287.5 137.833,287.5 137.5,287.5C 137.5,243.5 137.5,199.5 137.5,155.5 Z"/></g>
<g><path style="opacity:1" fill="#9acad6" d="M 303.5,156.5 C 311.316,155.508 319.316,155.174 327.5,155.5C 327.5,171.5 327.5,187.5 327.5,203.5C 327.167,203.5 326.833,203.5 326.5,203.5C 326.5,187.833 326.5,172.167 326.5,156.5C 318.833,156.5 311.167,156.5 303.5,156.5 Z"/></g>
<g><path style="opacity:1" fill="#196480" d="M 306.5,165.5 C 307.537,166.93 308.204,168.597 308.5,170.5C 257.822,171.162 207.489,170.495 157.5,168.5C 157.5,168.167 157.5,167.833 157.5,167.5C 158.167,167.167 158.833,166.833 159.5,166.5C 183.491,167.833 207.824,168.5 232.5,168.5C 257.176,168.5 281.509,167.833 305.5,166.5C 305.5,165.833 305.833,165.5 306.5,165.5 Z"/></g>
<g><path style="opacity:1" fill="#df5b1f" d="M 357.5,127.5 C 357.833,127.5 358.167,127.5 358.5,127.5C 358.5,127.833 358.5,128.167 358.5,128.5C 358.5,136.167 358.5,143.833 358.5,151.5C 357.856,163.216 358.522,174.549 360.5,185.5C 359.833,186.833 359.167,188.167 358.5,189.5C 357.503,169.007 357.169,148.34 357.5,127.5 Z"/></g>
<g><path style="opacity:1" fill="#bbe8f6" d="M 156.5,168.5 C 156.833,168.5 157.167,168.5 157.5,168.5C 207.489,170.495 257.822,171.162 308.5,170.5C 258.003,171.499 207.336,171.832 156.5,171.5C 156.5,170.5 156.5,169.5 156.5,168.5 Z"/></g>
<g><path style="opacity:1" fill="#f2decb" d="M 356.5,99.5 C 355.841,130.185 356.508,160.518 358.5,190.5C 357.791,191.404 356.791,191.737 355.5,191.5C 355.169,160.662 355.502,129.995 356.5,99.5 Z"/></g>
<g><path style="opacity:1" fill="#db8b40" d="M 468.5,111.5 C 468.833,111.5 469.167,111.5 469.5,111.5C 469.5,116.167 469.5,120.833 469.5,125.5C 469.5,141.167 469.5,156.833 469.5,172.5C 436.833,172.5 404.167,172.5 371.5,172.5C 379.316,171.508 387.316,171.174 395.5,171.5C 419.833,171.5 444.167,171.5 468.5,171.5C 468.5,151.5 468.5,131.5 468.5,111.5 Z"/></g>
<g><path style="opacity:1" fill="#f5d9b5" d="M 371.5,172.5 C 404.167,172.5 436.833,172.5 469.5,172.5C 437.516,174.328 405.182,175.161 372.5,175C 371.437,176.188 370.103,176.688 368.5,176.5C 366.907,179.99 364.574,182.99 361.5,185.5C 361.557,184.391 361.89,183.391 362.5,182.5C 365.5,179.167 368.5,175.833 371.5,172.5 Z"/></g>
<g><path style="opacity:1" fill="#1380a5" d="M 137.5,155.5 C 137.5,199.5 137.5,243.5 137.5,287.5C 137.167,287.5 136.833,287.5 136.5,287.5C 136.082,286.778 135.416,286.278 134.5,286C 134.932,262.754 134.932,239.254 134.5,215.5C 134.667,197.167 134.833,178.833 135,160.5C 135.985,158.825 136.819,157.158 137.5,155.5 Z"/></g>
<g><path style="opacity:1" fill="#e2fefe" d="M 161.5,156.5 C 160.168,160.162 158.835,163.828 157.5,167.5C 157.5,167.833 157.5,168.167 157.5,168.5C 157.167,168.5 156.833,168.5 156.5,168.5C 156.332,164.831 157.332,161.498 159.5,158.5C 152.866,157.503 146.2,157.17 139.5,157.5C 139.5,200.5 139.5,243.5 139.5,286.5C 139.167,286.5 138.833,286.5 138.5,286.5C 138.5,243.167 138.5,199.833 138.5,156.5C 146.167,156.5 153.833,156.5 161.5,156.5 Z"/></g>
<g><path style="opacity:1" fill="#f1f2f1" d="M 157.5,188.5 C 169.081,188.179 180.581,188.512 192,189.5C 193.126,195.563 193.626,201.729 193.5,208C 193.333,213.5 193.167,219 193,224.5C 192.308,225.025 191.808,225.692 191.5,226.5C 180.849,227.666 170.182,227.832 159.5,227C 157.919,226.293 156.419,225.46 155,224.5C 154.788,221.242 154.288,218.076 153.5,215C 154.167,214.667 154.833,214.333 155.5,214C 154.903,212.111 154.569,210.278 154.5,208.5C 155.292,202.551 155.792,196.551 156,190.5C 156.717,189.956 157.217,189.289 157.5,188.5 Z"/></g>
<g><path style="opacity:1" fill="#5e5e5e" d="M 204.5,192.5 C 232.841,192.167 261.175,192.5 289.5,193.5C 275.333,193.833 261.167,194.167 247,194.5C 232.484,194.499 218.317,193.833 204.5,192.5 Z"/></g>
<g><path style="opacity:1" fill="#29ce70" d="M 183.5,207.5 C 179.673,210.932 176.006,214.599 172.5,218.5C 171.127,218.657 169.793,218.49 168.5,218C 166.306,215.806 164.14,213.64 162,211.5C 161.177,207.834 162.677,206.167 166.5,206.5C 167.794,207.29 168.961,208.29 170,209.5C 170.717,208.956 171.217,208.289 171.5,207.5C 175.076,204.553 178.409,201.387 181.5,198C 185.359,195.621 188.025,196.621 189.5,201C 187.363,202.973 185.363,205.139 183.5,207.5 Z"/></g>
<g><path style="opacity:1" fill="#d6f8e5" d="M 183.5,207.5 C 185.363,205.139 187.363,202.973 189.5,201C 188.025,196.621 185.359,195.621 181.5,198C 178.409,201.387 175.076,204.553 171.5,207.5C 171.421,206.07 171.754,204.736 172.5,203.5C 177.957,201.935 180.457,198.269 180,192.5C 183.394,194.355 186.727,196.355 190,198.5C 190.667,200.167 190.667,201.833 190,203.5C 187.931,205.085 185.764,206.419 183.5,207.5 Z"/></g>
<g><path style="opacity:1" fill="#b5dbd4" d="M 341.5,138.5 C 342.497,159.66 342.831,180.993 342.5,202.5C 389.835,202.333 437.168,202.5 484.5,203C 486.5,203.667 488.5,204.333 490.5,205C 491.252,205.671 491.586,206.504 491.5,207.5C 491.167,207.5 490.833,207.5 490.5,207.5C 490.167,207.5 489.833,207.5 489.5,207.5C 486.578,205.469 483.245,204.302 479.5,204C 475.179,203.501 470.846,203.334 466.5,203.5C 424.833,203.5 383.167,203.5 341.5,203.5C 341.5,181.833 341.5,160.167 341.5,138.5 Z"/></g>
<g><path style="opacity:1" fill="#1c4f24" d="M 326.5,203.5 C 326.833,203.5 327.167,203.5 327.5,203.5C 332.167,203.5 336.833,203.5 341.5,203.5C 383.167,203.5 424.833,203.5 466.5,203.5C 465.5,204.167 464.5,204.833 463.5,205.5C 420.143,205.823 376.81,205.489 333.5,204.5C 311.857,205.312 290.191,205.812 268.5,206C 266.975,207.009 265.308,207.509 263.5,207.5C 265.385,205.689 267.719,204.522 270.5,204C 289.164,203.5 307.83,203.333 326.5,203.5 Z"/></g>
<g><path style="opacity:1" fill="#0b6028" d="M 463.5,205.5 C 463.53,206.497 463.03,207.164 462,207.5C 460.189,208.078 458.355,208.578 456.5,209C 412.445,209.748 368.612,209.581 325,208.5C 303.573,209.327 282.073,209.827 260.5,210C 258.333,213.5 255.5,216.333 252,218.5C 250.916,223.794 249.416,228.794 247.5,233.5C 250.385,233.194 253.052,233.527 255.5,234.5C 252.5,234.5 249.5,234.5 246.5,234.5C 246.5,232.833 246.5,231.167 246.5,229.5C 246.674,227.139 247.007,224.806 247.5,222.5C 233.163,222.667 218.829,222.5 204.5,222C 219.511,221.833 234.511,221.333 249.5,220.5C 251.395,215.937 254.395,212.27 258.5,209.5C 240.509,208.667 222.509,208.167 204.5,208C 224.164,207.5 243.831,207.333 263.5,207.5C 265.308,207.509 266.975,207.009 268.5,206C 290.191,205.812 311.857,205.312 333.5,204.5C 376.81,205.489 420.143,205.823 463.5,205.5 Z"/></g>
<g><path style="opacity:1" fill="#098441" d="M 466.5,203.5 C 470.846,203.334 475.179,203.501 479.5,204C 483.245,204.302 486.578,205.469 489.5,207.5C 483.981,205.711 478.315,205.211 472.5,206C 469.956,207.092 467.289,207.759 464.5,208C 463.167,208.667 462.167,209.667 461.5,211C 460.167,211.333 458.833,211.667 457.5,212C 454.884,214.945 451.718,217.112 448,218.5C 445.253,223.489 443.753,228.822 443.5,234.5C 398.167,234.5 352.833,234.5 307.5,234.5C 290.167,234.5 272.833,234.5 255.5,234.5C 253.052,233.527 250.385,233.194 247.5,233.5C 249.416,228.794 250.916,223.794 252,218.5C 255.5,216.333 258.333,213.5 260.5,210C 282.073,209.827 303.573,209.327 325,208.5C 368.612,209.581 412.445,209.748 456.5,209C 458.355,208.578 460.189,208.078 462,207.5C 463.03,207.164 463.53,206.497 463.5,205.5C 464.5,204.833 465.5,204.167 466.5,203.5 Z"/></g>
<g><path style="opacity:1" fill="#55c786" d="M 166.5,206.5 C 162.677,206.167 161.177,207.834 162,211.5C 164.14,213.64 166.306,215.806 168.5,218C 169.793,218.49 171.127,218.657 172.5,218.5C 171.686,220.273 170.352,220.773 168.5,220C 164.907,216.915 161.907,213.415 159.5,209.5C 160.5,207.167 162.167,205.5 164.5,204.5C 165.522,204.855 166.189,205.522 166.5,206.5 Z"/></g>
<g><path style="opacity:1" fill="#0ab54d" d="M 489.5,207.5 C 489.833,207.5 490.167,207.5 490.5,207.5C 490.5,207.833 490.5,208.167 490.5,208.5C 476.565,214.96 462.232,220.626 447.5,225.5C 446.588,229.153 445.255,232.486 443.5,235.5C 443.5,235.167 443.5,234.833 443.5,234.5C 443.753,228.822 445.253,223.489 448,218.5C 451.718,217.112 454.884,214.945 457.5,212C 458.833,211.667 460.167,211.333 461.5,211C 462.167,209.667 463.167,208.667 464.5,208C 467.289,207.759 469.956,207.092 472.5,206C 478.315,205.211 483.981,205.711 489.5,207.5 Z"/></g>
<g><path style="opacity:1" fill="#bbf9de" d="M 494.5,209.5 C 495.873,209.343 497.207,209.51 498.5,210C 501.123,213.412 503.623,216.912 506,220.5C 507.079,223.063 507.579,225.729 507.5,228.5C 505.209,224.81 503.209,220.81 501.5,216.5C 498.812,214.479 496.479,212.146 494.5,209.5 Z"/></g>
<g><path style="opacity:1" fill="#519c6c" d="M 246.5,229.5 C 246.5,231.167 246.5,232.833 246.5,234.5C 249.5,234.5 252.5,234.5 255.5,234.5C 272.833,234.5 290.167,234.5 307.5,234.5C 307.5,234.833 307.5,235.167 307.5,235.5C 286.833,235.5 266.167,235.5 245.5,235.5C 245.205,233.265 245.539,231.265 246.5,229.5 Z"/></g>
<g><path style="opacity:1" fill="#caf7df" d="M 245.5,235.5 C 266.167,235.5 286.833,235.5 307.5,235.5C 307.833,235.5 308.167,235.5 308.5,235.5C 308.5,277.167 308.5,318.833 308.5,360.5C 307.833,319.167 307.167,277.833 306.5,236.5C 285.993,236.83 265.66,236.497 245.5,235.5 Z"/></g>
<g><path style="opacity:1" fill="#3d3c3c" d="M 204.5,247.5 C 223.845,247.167 243.178,247.5 262.5,248.5C 252.833,248.833 243.167,249.167 233.5,249.5C 223.476,249.499 213.809,248.832 204.5,247.5 Z"/></g>
<g><path style="opacity:1" fill="#eff2ee" d="M 159.5,243.5 C 170.167,243.5 180.833,243.5 191.5,243.5C 191.312,245.103 191.812,246.437 193,247.5C 193.196,255.882 193.696,264.215 194.5,272.5C 193.94,274.854 193.273,277.187 192.5,279.5C 186.505,280.791 180.339,281.457 174,281.5C 167.757,281.476 161.757,280.81 156,279.5C 155.833,277.667 155.667,275.833 155.5,274C 155.6,271.698 156.267,269.698 157.5,268C 157,267.5 156.5,267 156,266.5C 155.333,259.833 155.333,253.167 156,246.5C 157.145,245.364 158.312,244.364 159.5,243.5 Z"/></g>
<g><path style="opacity:1" fill="#464646" d="M 204.5,261.5 C 232.841,261.167 261.175,261.5 289.5,262.5C 275.333,262.833 261.167,263.167 247,263.5C 232.484,263.499 218.317,262.833 204.5,261.5 Z"/></g>
<g><path style="opacity:1" fill="#4bc380" d="M 186.5,252.5 C 185.448,252.351 184.448,252.517 183.5,253C 179.167,256 175.5,259.667 172.5,264C 170.833,264.667 169.167,264.667 167.5,264C 164.113,260.354 162.28,260.854 162,265.5C 164.647,269.348 168.147,271.681 172.5,272.5C 171.878,273.627 171.045,274.627 170,275.5C 166.667,272.167 163.333,268.833 160,265.5C 160.986,258.839 163.819,258.006 168.5,263C 169.5,263.667 170.5,263.667 171.5,263C 175.122,257.792 179.622,253.625 185,250.5C 186.03,250.836 186.53,251.503 186.5,252.5 Z"/></g>
<g><path style="opacity:1" fill="#1dd06e" d="M 186.5,252.5 C 188.446,253.254 189.279,254.588 189,256.5C 183.685,261.981 178.185,267.315 172.5,272.5C 168.147,271.681 164.647,269.348 162,265.5C 162.28,260.854 164.113,260.354 167.5,264C 169.167,264.667 170.833,264.667 172.5,264C 175.5,259.667 179.167,256 183.5,253C 184.448,252.517 185.448,252.351 186.5,252.5 Z"/></g>
<g><path style="opacity:1" fill="#393738" d="M 228.5,276.5 C 227.833,276.5 227.5,276.833 227.5,277.5C 219.804,277.831 212.138,277.497 204.5,276.5C 212.657,275.18 220.657,275.18 228.5,276.5 Z"/></g>
<g><path style="opacity:1" fill="#121913" d="M 227.5,277.5 C 227.5,276.833 227.833,276.5 228.5,276.5C 231.877,276.959 235.211,277.626 238.5,278.5C 236.518,282.146 233.851,285.146 230.5,287.5C 230.167,287.5 229.833,287.5 229.5,287.5C 229.678,283.878 229.011,280.544 227.5,277.5 Z"/></g>
<g><path style="opacity:1" fill="#30c577" d="M 238.5,278.5 C 241.833,281.167 244.833,284.167 247.5,287.5C 245.178,286.184 242.844,284.851 240.5,283.5C 238.421,284.409 236.254,285.409 234,286.5C 233.333,287.5 233.333,288.5 234,289.5C 236.782,291.771 238.949,294.437 240.5,297.5C 236.833,294.5 233.5,291.167 230.5,287.5C 233.851,285.146 236.518,282.146 238.5,278.5 Z"/></g>
<g><path style="opacity:1" fill="#e2994d" d="M 136.5,287.5 C 136.833,287.5 137.167,287.5 137.5,287.5C 137.833,287.5 138.167,287.5 138.5,287.5C 142.744,288.643 147.077,289.31 151.5,289.5C 150.696,292.442 149.362,295.109 147.5,297.5C 147.357,295.738 147.691,294.071 148.5,292.5C 145.331,292.017 142.664,290.684 140.5,288.5C 137.502,290.48 134.502,290.813 131.5,289.5C 133.698,289.88 135.365,289.213 136.5,287.5 Z"/></g>
<g><path style="opacity:1" fill="#13d26d" d="M 247.5,287.5 C 249.833,289.167 251.833,291.167 253.5,293.5C 255.725,297.235 258.558,300.568 262,303.5C 262.483,304.448 262.649,305.448 262.5,306.5C 261.325,306.281 260.325,306.614 259.5,307.5C 259.833,307.833 260.167,308.167 260.5,308.5C 265.525,305.535 267.525,306.869 266.5,312.5C 265.449,313.885 264.116,314.885 262.5,315.5C 261.049,313.441 259.049,312.441 256.5,312.5C 251.776,306.773 246.442,301.773 240.5,297.5C 238.949,294.437 236.782,291.771 234,289.5C 233.333,288.5 233.333,287.5 234,286.5C 236.254,285.409 238.421,284.409 240.5,283.5C 242.844,284.851 245.178,286.184 247.5,287.5 Z"/></g>
<g><path style="opacity:1" fill="#e79542" d="M 123.5,287.5 C 125.735,287.205 127.735,287.539 129.5,288.5C 126.594,288.916 123.761,289.582 121,290.5C 118.801,290.039 116.634,289.873 114.5,290C 115.308,290.308 115.975,290.808 116.5,291.5C 114.314,292.221 112.147,292.887 110,293.5C 108.658,292.098 107.824,292.431 107.5,294.5C 107.722,296.055 108.389,297.389 109.5,298.5C 121.815,299.499 134.149,299.832 146.5,299.5C 146.5,299.833 146.5,300.167 146.5,300.5C 133.833,300.5 121.167,300.5 108.5,300.5C 106.334,297.162 105.001,293.495 104.5,289.5C 107.964,289.559 111.297,288.892 114.5,287.5C 116.754,287.931 118.921,288.597 121,289.5C 122.376,289.316 123.209,288.649 123.5,287.5 Z"/></g>
<g><path style="opacity:1" fill="#fa9433" d="M 129.5,288.5 C 130.167,288.833 130.833,289.167 131.5,289.5C 134.502,290.813 137.502,290.48 140.5,288.5C 142.664,290.684 145.331,292.017 148.5,292.5C 147.691,294.071 147.357,295.738 147.5,297.5C 147.167,298.167 146.833,298.833 146.5,299.5C 134.149,299.832 121.815,299.499 109.5,298.5C 108.389,297.389 107.722,296.055 107.5,294.5C 107.824,292.431 108.658,292.098 110,293.5C 112.147,292.887 114.314,292.221 116.5,291.5C 115.975,290.808 115.308,290.308 114.5,290C 116.634,289.873 118.801,290.039 121,290.5C 123.761,289.582 126.594,288.916 129.5,288.5 Z"/></g>
<g><path style="opacity:1" fill="#f2f2ef" d="M 138.5,287.5 C 138.5,287.167 138.5,286.833 138.5,286.5C 138.833,286.5 139.167,286.5 139.5,286.5C 142.432,286.284 145.098,286.951 147.5,288.5C 149.135,287.954 150.801,287.62 152.5,287.5C 152.366,291.932 153.366,296.099 155.5,300C 153.01,303.51 153.51,304.01 157,301.5C 157.216,299.616 157.883,297.949 159,296.5C 183.768,297.827 208.601,297.827 233.5,296.5C 232.141,293.486 230.808,290.486 229.5,287.5C 229.833,287.5 230.167,287.5 230.5,287.5C 233.5,291.167 236.833,294.5 240.5,297.5C 245.5,303.167 250.833,308.5 256.5,313.5C 263.5,321.167 270.833,328.5 278.5,335.5C 284.048,344.761 289.382,344.761 294.5,335.5C 293.228,332.56 291.228,330.227 288.5,328.5C 278.167,317.833 267.833,307.167 257.5,296.5C 260.899,296.807 264.066,297.807 267,299.5C 279.919,297.53 293.086,296.863 306.5,297.5C 306.5,318.5 306.5,339.5 306.5,360.5C 261.863,361.167 217.196,361.833 172.5,362.5C 169.242,361.583 165.909,361.249 162.5,361.5C 162.5,365.5 162.5,369.5 162.5,373.5C 161.662,373.158 161.328,372.492 161.5,371.5C 161.667,357.829 161.5,344.163 161,330.5C 160.768,329.263 160.268,328.263 159.5,327.5C 157.618,322.632 154.952,318.299 151.5,314.5C 150.969,312.456 149.802,310.789 148,309.5C 147.421,308.072 147.588,306.738 148.5,305.5C 149.817,303.124 149.15,301.457 146.5,300.5C 146.5,300.167 146.5,299.833 146.5,299.5C 146.833,298.833 147.167,298.167 147.5,297.5C 149.362,295.109 150.696,292.442 151.5,289.5C 147.077,289.31 142.744,288.643 138.5,287.5 Z"/></g>
<g><path style="opacity:1" fill="#3fc07c" d="M 240.5,297.5 C 246.442,301.773 251.776,306.773 256.5,312.5C 256.5,312.833 256.5,313.167 256.5,313.5C 250.833,308.5 245.5,303.167 240.5,297.5 Z"/></g>
<g><path style="opacity:1" fill="#1e1106" d="M 108.5,300.5 C 121.167,300.5 133.833,300.5 146.5,300.5C 149.15,301.457 149.817,303.124 148.5,305.5C 147.833,305.5 147.167,305.5 146.5,305.5C 143.391,305.264 140.391,305.597 137.5,306.5C 134.5,306.5 131.5,306.5 128.5,306.5C 127.833,306.5 127.167,306.5 126.5,306.5C 123.5,306.5 120.5,306.5 117.5,306.5C 114.272,305.586 110.939,305.253 107.5,305.5C 106.07,303.545 106.403,301.879 108.5,300.5 Z"/></g>
<g><path style="opacity:1" fill="#471f0e" d="M 146.5,305.5 C 144.369,306.314 142.036,306.814 139.5,307C 140.066,307.995 140.733,308.828 141.5,309.5C 141.5,310.167 141.5,310.833 141.5,311.5C 139.937,310.055 138.604,308.389 137.5,306.5C 140.391,305.597 143.391,305.264 146.5,305.5 Z"/></g>
<g><path style="opacity:1" fill="#e39850" d="M 108.5,306.5 C 110.924,306.192 113.257,306.526 115.5,307.5C 114.167,308.62 113.667,309.953 114,311.5C 115.669,310.154 116.836,308.487 117.5,306.5C 120.5,306.5 123.5,306.5 126.5,306.5C 127.167,315.833 127.833,315.833 128.5,306.5C 131.5,306.5 134.5,306.5 137.5,306.5C 138.604,308.389 139.937,310.055 141.5,311.5C 141.103,312.525 140.437,312.692 139.5,312C 138.833,311 138.167,310 137.5,309C 135.19,308.503 132.857,308.337 130.5,308.5C 130.5,310.833 130.5,313.167 130.5,315.5C 125.094,316.265 123.094,313.931 124.5,308.5C 120.221,307.454 117.555,308.954 116.5,313C 115.207,313.49 113.873,313.657 112.5,313.5C 112.5,311.833 112.5,310.167 112.5,308.5C 111.448,308.351 110.448,308.517 109.5,309C 107.63,311.04 105.63,312.873 103.5,314.5C 105.167,311.833 106.833,309.167 108.5,306.5 Z"/></g>
<g><path style="opacity:1" fill="#5c2604" d="M 126.5,306.5 C 127.167,306.5 127.833,306.5 128.5,306.5C 127.833,315.833 127.167,315.833 126.5,306.5 Z"/></g>
<g><path style="opacity:1" fill="#e29c5a" d="M 146.5,305.5 C 147.167,305.5 147.833,305.5 148.5,305.5C 147.588,306.738 147.421,308.072 148,309.5C 149.802,310.789 150.969,312.456 151.5,314.5C 149.135,312.14 146.468,310.14 143.5,308.5C 142.817,308.863 142.15,309.196 141.5,309.5C 140.733,308.828 140.066,307.995 139.5,307C 142.036,306.814 144.369,306.314 146.5,305.5 Z"/></g>
<g><path style="opacity:1" fill="#4d200e" d="M 107.5,306.5 C 107.5,306.167 107.5,305.833 107.5,305.5C 110.939,305.253 114.272,305.586 117.5,306.5C 116.836,308.487 115.669,310.154 114,311.5C 113.667,309.953 114.167,308.62 115.5,307.5C 113.257,306.526 110.924,306.192 108.5,306.5C 108.167,306.5 107.833,306.5 107.5,306.5 Z"/></g>
<g><path style="opacity:1" fill="#24cb73" d="M 253.5,293.5 C 254.833,294.5 256.167,295.5 257.5,296.5C 267.833,307.167 278.167,317.833 288.5,328.5C 286.037,330.461 283.703,332.628 281.5,335C 280.552,335.483 279.552,335.649 278.5,335.5C 270.833,328.5 263.5,321.167 256.5,313.5C 256.5,313.167 256.5,312.833 256.5,312.5C 259.049,312.441 261.049,313.441 262.5,315.5C 264.116,314.885 265.449,313.885 266.5,312.5C 267.525,306.869 265.525,305.535 260.5,308.5C 260.167,308.167 259.833,307.833 259.5,307.5C 260.325,306.614 261.325,306.281 262.5,306.5C 262.649,305.448 262.483,304.448 262,303.5C 258.558,300.568 255.725,297.235 253.5,293.5 Z"/></g>
<g><path style="opacity:1" fill="#57cf94" d="M 308.5,235.5 C 309.499,288.664 309.832,341.997 309.5,395.5C 309.167,395.5 308.833,395.5 308.5,395.5C 308.821,389.974 308.488,384.64 307.5,379.5C 308.458,373.256 308.791,366.923 308.5,360.5C 308.5,318.833 308.5,277.167 308.5,235.5 Z"/></g>
<g><path style="opacity:1" fill="#0fd46d" d="M 269.5,312.5 C 272.997,313.5 274.831,315.833 275,319.5C 278.539,320.905 280.372,323.571 280.5,327.5C 282.167,325.833 283.167,326.167 283.5,328.5C 282.64,330.272 281.307,331.605 279.5,332.5C 277.353,330.263 275.02,328.263 272.5,326.5C 273.5,324.833 274.833,323.5 276.5,322.5C 271.421,325.379 267.088,324.046 263.5,318.5C 264.988,316.423 266.988,315.423 269.5,315.5C 269.5,314.5 269.5,313.5 269.5,312.5 Z"/></g>
<g><path style="opacity:1" fill="#ea9546" d="M 103.5,314.5 C 102.483,318.053 100.983,321.386 99,324.5C 98.8446,326.856 98.8446,329.189 99,331.5C 98.3333,332.167 97.6667,332.833 97,333.5C 96.6667,346.833 96.3333,360.167 96,373.5C 95.2917,374.381 94.4584,375.047 93.5,375.5C 93.5,374.833 93.5,374.167 93.5,373.5C 94.1174,373.389 94.6174,373.056 95,372.5C 95.4999,358.837 95.6666,345.171 95.5,331.5C 96.2882,324.925 98.9549,319.258 103.5,314.5 Z"/></g>
<g><path style="opacity:1" fill="#e8eddb" d="M 107.5,306.5 C 107.833,306.5 108.167,306.5 108.5,306.5C 106.833,309.167 105.167,311.833 103.5,314.5C 98.9549,319.258 96.2882,324.925 95.5,331.5C 94.8003,345.372 94.1337,359.372 93.5,373.5C 93.5,374.167 93.5,374.833 93.5,375.5C 92.8333,375.5 92.1667,375.5 91.5,375.5C 92.7294,361.162 92.7294,346.829 91.5,332.5C 95.3086,325.329 97.6419,317.662 98.5,309.5C 100.924,309.808 103.257,309.474 105.5,308.5C 104.975,307.808 104.308,307.308 103.5,307C 104.793,306.51 106.127,306.343 107.5,306.5 Z"/></g>
<g><path style="opacity:1" fill="#158243" d="M 288.5,328.5 C 291.228,330.227 293.228,332.56 294.5,335.5C 289.382,344.761 284.048,344.761 278.5,335.5C 279.552,335.649 280.552,335.483 281.5,335C 283.703,332.628 286.037,330.461 288.5,328.5 Z"/></g>
<g><path style="opacity:1" fill="#fee5b8" d="M 159.5,327.5 C 160.268,328.263 160.768,329.263 161,330.5C 161.5,344.163 161.667,357.829 161.5,371.5C 160.767,356.982 160.101,342.315 159.5,327.5 Z"/></g>
<g><path style="opacity:1" fill="#fc9333" d="M 141.5,311.5 C 141.5,310.833 141.5,310.167 141.5,309.5C 142.15,309.196 142.817,308.863 143.5,308.5C 146.468,310.14 149.135,312.14 151.5,314.5C 152.572,319.31 154.738,323.643 158,327.5C 158.5,339.829 158.667,352.162 158.5,364.5C 156.883,365.038 155.216,365.371 153.5,365.5C 153.67,366.822 153.337,367.989 152.5,369C 148.071,371.881 143.404,374.215 138.5,376C 138.254,377.06 138.254,378.227 138.5,379.5C 132.259,381.456 127.259,385.122 123.5,390.5C 121.775,391.015 120.108,391.682 118.5,392.5C 121.939,392.906 124.939,393.906 127.5,395.5C 115.167,395.5 102.833,395.5 90.5,395.5C 90.1667,395.5 89.8333,395.5 89.5,395.5C 87.5832,393.225 86.5832,390.558 86.5,387.5C 86.6667,386.167 86.8333,384.833 87,383.5C 88.7774,380.941 90.2774,378.274 91.5,375.5C 92.1667,375.5 92.8333,375.5 93.5,375.5C 94.4584,375.047 95.2917,374.381 96,373.5C 96.3333,360.167 96.6667,346.833 97,333.5C 97.6667,332.833 98.3333,332.167 99,331.5C 98.8446,329.189 98.8446,326.856 99,324.5C 100.983,321.386 102.483,318.053 103.5,314.5C 105.63,312.873 107.63,311.04 109.5,309C 110.448,308.517 111.448,308.351 112.5,308.5C 112.5,310.167 112.5,311.833 112.5,313.5C 113.873,313.657 115.207,313.49 116.5,313C 117.555,308.954 120.221,307.454 124.5,308.5C 123.094,313.931 125.094,316.265 130.5,315.5C 130.5,313.167 130.5,310.833 130.5,308.5C 132.857,308.337 135.19,308.503 137.5,309C 138.167,310 138.833,311 139.5,312C 140.437,312.692 141.103,312.525 141.5,311.5 Z"/></g>
<g><path style="opacity:1" fill="#fef4db" d="M 131.5,326.5 C 132.833,327.5 134.167,328.5 135.5,329.5C 116.305,326.198 107.472,334.198 109,353.5C 110.163,357.173 111.997,360.506 114.5,363.5C 117.796,365.183 121.129,366.683 124.5,368C 129.367,368.64 134.034,368.14 138.5,366.5C 136.351,367.736 134.018,368.736 131.5,369.5C 126.681,369.648 122.015,368.982 117.5,367.5C 113.874,365.541 110.874,362.874 108.5,359.5C 102.837,343.664 107.837,332.83 123.5,327C 126.146,326.503 128.813,326.336 131.5,326.5 Z"/></g>
<g><path style="opacity:1" fill="#fafcf7" d="M 135.5,329.5 C 146.438,333.696 150.938,341.696 149,353.5C 147.815,355.377 146.815,357.377 146,359.5C 144.264,362.739 141.764,365.073 138.5,366.5C 134.034,368.14 129.367,368.64 124.5,368C 121.129,366.683 117.796,365.183 114.5,363.5C 111.997,360.506 110.163,357.173 109,353.5C 107.472,334.198 116.305,326.198 135.5,329.5 Z"/></g>
<g><path style="opacity:1" fill="#d6fae8" d="M 119.5,345.5 C 122.101,348.544 125.434,350.377 129.5,351C 132.326,353.864 131.826,356.031 128,357.5C 125.575,355.548 123.075,353.881 120.5,352.5C 120.5,354.167 120.5,355.833 120.5,357.5C 118.977,354.548 119.644,352.048 122.5,350C 120.624,349.082 119.624,347.582 119.5,345.5 Z"/></g>
<g><path style="opacity:1" fill="#3ec67b" d="M 120.5,357.5 C 120.5,355.833 120.5,354.167 120.5,352.5C 123.075,353.881 125.575,355.548 128,357.5C 131.826,356.031 132.326,353.864 129.5,351C 125.434,350.377 122.101,348.544 119.5,345.5C 119.228,340.442 121.561,337.442 126.5,336.5C 126.5,335.5 126.5,334.5 126.5,333.5C 127.5,333.5 128.5,333.5 129.5,333.5C 129.351,334.552 129.517,335.552 130,336.5C 133.349,337.677 134.849,340.01 134.5,343.5C 131.761,343.293 129.427,342.293 127.5,340.5C 124.915,341.073 123.915,342.739 124.5,345.5C 132.615,345.767 136.115,349.767 135,357.5C 133.758,358.872 132.258,359.872 130.5,360.5C 129.614,361.325 129.281,362.325 129.5,363.5C 128.5,363.5 127.5,363.5 126.5,363.5C 126.5,362.5 126.5,361.5 126.5,360.5C 124.053,360.385 122.053,359.385 120.5,357.5 Z"/></g>
<g><path style="opacity:1" fill="#e59b55" d="M 131.5,326.5 C 128.813,326.336 126.146,326.503 123.5,327C 107.837,332.83 102.837,343.664 108.5,359.5C 107.542,359.047 106.708,358.381 106,357.5C 101.777,342.114 106.943,331.614 121.5,326C 125.027,325.192 128.36,325.359 131.5,326.5 Z"/></g>
<g><path style="opacity:1" fill="#dab17c" d="M 95.5,331.5 C 95.6666,345.171 95.4999,358.837 95,372.5C 94.6174,373.056 94.1174,373.389 93.5,373.5C 94.1337,359.372 94.8003,345.372 95.5,331.5 Z"/></g>
<g><path style="opacity:1" fill="#fdfefd" d="M 306.5,360.5 C 306.5,366.167 306.5,371.833 306.5,377.5C 260.835,376.754 215.168,376.587 169.5,377C 167.881,377.236 166.881,378.069 166.5,379.5C 166.167,379.5 165.833,379.5 165.5,379.5C 164.833,378.833 164.167,378.167 163.5,377.5C 163.167,376.167 162.833,374.833 162.5,373.5C 162.5,369.5 162.5,365.5 162.5,361.5C 165.909,361.249 169.242,361.583 172.5,362.5C 217.196,361.833 261.863,361.167 306.5,360.5 Z"/></g>
<g><path style="opacity:1" fill="#e7954a" d="M 151.5,314.5 C 154.952,318.299 157.618,322.632 159.5,327.5C 160.101,342.315 160.767,356.982 161.5,371.5C 161.328,372.492 161.662,373.158 162.5,373.5C 162.833,374.833 163.167,376.167 163.5,377.5C 162.222,377.218 161.222,376.551 160.5,375.5C 158.908,372.034 158.242,368.367 158.5,364.5C 158.667,352.162 158.5,339.829 158,327.5C 154.738,323.643 152.572,319.31 151.5,314.5 Z"/></g>
<g><path style="opacity:1" fill="#f5ce9e" d="M 117.5,367.5 C 122.015,368.982 126.681,369.648 131.5,369.5C 126.552,371.097 121.886,370.431 117.5,367.5 Z"/></g>
<g><path style="opacity:1" fill="#daf2f2" d="M 306.5,236.5 C 307.167,277.833 307.833,319.167 308.5,360.5C 308.791,366.923 308.458,373.256 307.5,379.5C 298.833,379.5 290.167,379.5 281.5,379.5C 275.5,379.5 269.5,379.5 263.5,379.5C 231.5,379.5 199.5,379.5 167.5,379.5C 167.167,379.5 166.833,379.5 166.5,379.5C 166.881,378.069 167.881,377.236 169.5,377C 215.168,376.587 260.835,376.754 306.5,377.5C 306.5,371.833 306.5,366.167 306.5,360.5C 306.5,339.5 306.5,318.5 306.5,297.5C 306.5,277.167 306.5,256.833 306.5,236.5 Z"/></g>
<g><path style="opacity:1" fill="#fa8329" d="M 158.5,364.5 C 158.242,368.367 158.908,372.034 160.5,375.5C 157.309,376.092 154.309,377.259 151.5,379C 149.963,380.11 149.297,381.61 149.5,383.5C 147.738,383.357 146.071,383.691 144.5,384.5C 141.963,387.535 138.963,390.035 135.5,392C 144.688,394.227 154.021,395.06 163.5,394.5C 163.5,394.833 163.5,395.167 163.5,395.5C 151.5,395.5 139.5,395.5 127.5,395.5C 124.939,393.906 121.939,392.906 118.5,392.5C 120.108,391.682 121.775,391.015 123.5,390.5C 127.259,385.122 132.259,381.456 138.5,379.5C 138.254,378.227 138.254,377.06 138.5,376C 143.404,374.215 148.071,371.881 152.5,369C 153.337,367.989 153.67,366.822 153.5,365.5C 155.216,365.371 156.883,365.038 158.5,364.5 Z"/></g>
<g><path style="opacity:1" fill="#0e88aa" d="M 167.5,379.5 C 199.5,379.5 231.5,379.5 263.5,379.5C 259.702,380.483 255.702,380.817 251.5,380.5C 244.825,380.334 238.158,380.5 231.5,381C 232.833,381.667 234.167,382.333 235.5,383C 233.109,383.691 233.109,384.691 235.5,386C 233.588,387.2 232.255,388.867 231.5,391C 221.147,393.64 221.147,394.807 231.5,394.5C 231.5,394.833 231.5,395.167 231.5,395.5C 209.5,395.5 187.5,395.5 165.5,395.5C 166.458,394.038 167.624,392.705 169,391.5C 169.804,387.263 169.304,383.263 167.5,379.5 Z"/></g>
<g><path style="opacity:1" fill="#03789f" d="M 251.5,380.5 C 256.975,381.489 262.642,381.822 268.5,381.5C 268.5,382.833 268.5,384.167 268.5,385.5C 269.552,385.351 270.552,385.517 271.5,386C 268.968,386.619 266.635,387.619 264.5,389C 260.637,389.762 256.971,390.262 253.5,390.5C 254.376,391.251 255.376,391.751 256.5,392C 256.167,392.333 255.833,392.667 255.5,393C 247.561,394.321 239.561,394.821 231.5,394.5C 221.147,394.807 221.147,393.64 231.5,391C 232.255,388.867 233.588,387.2 235.5,386C 233.109,384.691 233.109,383.691 235.5,383C 234.167,382.333 232.833,381.667 231.5,381C 238.158,380.5 244.825,380.334 251.5,380.5 Z"/></g>
<g><path style="opacity:1" fill="#09678c" d="M 263.5,379.5 C 269.5,379.5 275.5,379.5 281.5,379.5C 281.5,379.833 281.5,380.167 281.5,380.5C 280.325,380.281 279.325,380.614 278.5,381.5C 278.899,383.898 278.899,386.398 278.5,389C 280.167,389.333 281.833,389.667 283.5,390C 283.167,390.333 282.833,390.667 282.5,391C 275.394,391.074 268.394,391.74 261.5,393C 270.302,393.967 278.969,394.8 287.5,395.5C 268.833,395.5 250.167,395.5 231.5,395.5C 231.5,395.167 231.5,394.833 231.5,394.5C 239.561,394.821 247.561,394.321 255.5,393C 255.833,392.667 256.167,392.333 256.5,392C 255.376,391.751 254.376,391.251 253.5,390.5C 256.971,390.262 260.637,389.762 264.5,389C 266.635,387.619 268.968,386.619 271.5,386C 270.552,385.517 269.552,385.351 268.5,385.5C 268.5,384.167 268.5,382.833 268.5,381.5C 262.642,381.822 256.975,381.489 251.5,380.5C 255.702,380.817 259.702,380.483 263.5,379.5 Z"/></g>
<g><path style="opacity:1" fill="#0c5567" d="M 281.5,380.5 C 281.5,380.167 281.5,379.833 281.5,379.5C 290.167,379.5 298.833,379.5 307.5,379.5C 308.488,384.64 308.821,389.974 308.5,395.5C 306.833,395.5 305.167,395.5 303.5,395.5C 303.821,393.952 304.821,393.285 306.5,393.5C 306.5,389.167 306.5,384.833 306.5,380.5C 298.167,380.5 289.833,380.5 281.5,380.5 Z"/></g>
<g><path style="opacity:1" fill="#04557e" d="M 281.5,380.5 C 289.833,380.5 298.167,380.5 306.5,380.5C 306.5,384.833 306.5,389.167 306.5,393.5C 304.821,393.285 303.821,393.952 303.5,395.5C 298.167,395.5 292.833,395.5 287.5,395.5C 278.969,394.8 270.302,393.967 261.5,393C 268.394,391.74 275.394,391.074 282.5,391C 282.833,390.667 283.167,390.333 283.5,390C 281.833,389.667 280.167,389.333 278.5,389C 278.899,386.398 278.899,383.898 278.5,381.5C 279.325,380.614 280.325,380.281 281.5,380.5 Z"/></g>
<g><path style="opacity:1" fill="#896e58" d="M 165.5,379.5 C 165.833,379.5 166.167,379.5 166.5,379.5C 166.833,379.5 167.167,379.5 167.5,379.5C 169.304,383.263 169.804,387.263 169,391.5C 167.624,392.705 166.458,394.038 165.5,395.5C 164.833,395.5 164.167,395.5 163.5,395.5C 163.5,395.167 163.5,394.833 163.5,394.5C 166.353,392.985 168.019,390.652 168.5,387.5C 167.537,384.852 166.537,382.186 165.5,379.5 Z"/></g>
<g><path style="opacity:1" fill="#f96516" d="M 160.5,375.5 C 161.222,376.551 162.222,377.218 163.5,377.5C 164.167,378.167 164.833,378.833 165.5,379.5C 166.537,382.186 167.537,384.852 168.5,387.5C 168.019,390.652 166.353,392.985 163.5,394.5C 154.021,395.06 144.688,394.227 135.5,392C 138.963,390.035 141.963,387.535 144.5,384.5C 146.071,383.691 147.738,383.357 149.5,383.5C 149.297,381.61 149.963,380.11 151.5,379C 154.309,377.259 157.309,376.092 160.5,375.5 Z"/></g>
<g><path style="opacity:1" fill="#0fd36c" d="M 490.5,208.5 C 493.771,211.268 496.938,214.268 500,217.5C 501.667,222.167 503.333,226.833 505,231.5C 505.5,285.166 505.667,338.832 505.5,392.5C 441.166,392.667 376.832,392.5 312.5,392C 311.848,387.915 311.515,383.748 311.5,379.5C 312.333,370.179 312.999,360.845 313.5,351.5C 312.381,313.966 311.714,276.466 311.5,239C 311.645,238.228 311.978,237.561 312.5,237C 321.5,236.333 330.5,236.333 339.5,237C 332.809,237.169 326.142,237.669 319.5,238.5C 315.832,241.197 314.665,244.864 316,249.5C 316.359,246.456 317.026,246.122 318,248.5C 318.167,294.335 318.667,340.002 319.5,385.5C 378.167,385.5 436.833,385.5 495.5,385.5C 496.167,385.5 496.833,385.5 497.5,385.5C 498.333,342.335 498.833,299.002 499,255.5C 499.884,250.283 501.384,245.95 503.5,242.5C 503.549,238.67 502.382,235.337 500,232.5C 497.863,234.321 497.03,236.654 497.5,239.5C 501.934,240.558 502.267,242.225 498.5,244.5C 496.98,243.15 496.313,241.817 496.5,240.5C 494.997,241.59 494.664,242.757 495.5,244C 439.167,244.667 382.833,244.667 326.5,244C 324.048,243.71 321.715,243.044 319.5,242C 320.5,241.667 321.5,241.333 322.5,241C 322.167,240.667 321.833,240.333 321.5,240C 324.2,240.96 326.867,241.46 329.5,241.5C 332.063,241.263 332.063,240.763 329.5,240C 333.438,238.271 337.438,238.104 341.5,239.5C 372.144,238.682 402.81,238.182 433.5,238C 436.834,236.916 440.168,236.082 443.5,235.5C 445.255,232.486 446.588,229.153 447.5,225.5C 462.232,220.626 476.565,214.96 490.5,208.5 Z"/></g>
<g><path style="opacity:1" fill="#17d06e" d="M 497.5,385.5 C 497.832,339.33 497.499,293.33 496.5,247.5C 467.341,246.167 437.841,245.5 408,245.5C 378.331,245.5 348.831,245.833 319.5,246.5C 319.5,292.833 319.5,339.167 319.5,385.5C 318.667,340.002 318.167,294.335 318,248.5C 317.026,246.122 316.359,246.456 316,249.5C 314.665,244.864 315.832,241.197 319.5,238.5C 326.142,237.669 332.809,237.169 339.5,237C 330.5,236.333 321.5,236.333 312.5,237C 311.978,237.561 311.645,238.228 311.5,239C 311.714,276.466 312.381,313.966 313.5,351.5C 312.999,360.845 312.333,370.179 311.5,379.5C 311.515,383.748 311.848,387.915 312.5,392C 376.832,392.5 441.166,392.667 505.5,392.5C 440.842,394.497 375.842,395.163 310.5,394.5C 310.5,341.5 310.5,288.5 310.5,235.5C 354.833,235.5 399.167,235.5 443.5,235.5C 440.168,236.082 436.834,236.916 433.5,238C 402.81,238.182 372.144,238.682 341.5,239.5C 337.438,238.104 333.438,238.271 329.5,240C 332.063,240.763 332.063,241.263 329.5,241.5C 326.867,241.46 324.2,240.96 321.5,240C 321.833,240.333 322.167,240.667 322.5,241C 321.5,241.333 320.5,241.667 319.5,242C 321.715,243.044 324.048,243.71 326.5,244C 382.833,244.667 439.167,244.667 495.5,244C 494.664,242.757 494.997,241.59 496.5,240.5C 496.313,241.817 496.98,243.15 498.5,244.5C 502.267,242.225 501.934,240.558 497.5,239.5C 497.03,236.654 497.863,234.321 500,232.5C 502.382,235.337 503.549,238.67 503.5,242.5C 501.384,245.95 499.884,250.283 499,255.5C 498.833,299.002 498.333,342.335 497.5,385.5 Z"/></g>
<g><path style="opacity:1" fill="#38bf75" d="M 490.5,207.5 C 490.833,207.5 491.167,207.5 491.5,207.5C 491.973,208.906 492.973,209.573 494.5,209.5C 496.479,212.146 498.812,214.479 501.5,216.5C 503.209,220.81 505.209,224.81 507.5,228.5C 507.5,284.167 507.5,339.833 507.5,395.5C 441.5,395.5 375.5,395.5 309.5,395.5C 309.832,341.997 309.499,288.664 308.5,235.5C 308.167,235.5 307.833,235.5 307.5,235.5C 307.5,235.167 307.5,234.833 307.5,234.5C 352.833,234.5 398.167,234.5 443.5,234.5C 443.5,234.833 443.5,235.167 443.5,235.5C 399.167,235.5 354.833,235.5 310.5,235.5C 310.5,288.5 310.5,341.5 310.5,394.5C 375.842,395.163 440.842,394.497 505.5,392.5C 505.667,338.832 505.5,285.166 505,231.5C 503.333,226.833 501.667,222.167 500,217.5C 496.938,214.268 493.771,211.268 490.5,208.5C 490.5,208.167 490.5,207.833 490.5,207.5 Z"/></g>
<g><path style="opacity:1" fill="#57c88d" d="M 319.5,246.5 C 378.336,246.168 437.002,246.501 495.5,247.5C 437.167,247.5 378.833,247.5 320.5,247.5C 320.5,293.167 320.5,338.833 320.5,384.5C 378.833,384.5 437.167,384.5 495.5,384.5C 495.5,384.833 495.5,385.167 495.5,385.5C 436.833,385.5 378.167,385.5 319.5,385.5C 319.5,339.167 319.5,292.833 319.5,246.5 Z"/></g>
<g><path style="opacity:1" fill="#c7fee3" d="M 495.5,247.5 C 495.5,293.167 495.5,338.833 495.5,384.5C 437.167,384.5 378.833,384.5 320.5,384.5C 320.5,338.833 320.5,293.167 320.5,247.5C 378.833,247.5 437.167,247.5 495.5,247.5 Z"/></g>
<g><path style="opacity:1" fill="#e8fff4" d="M 323.5,248.5 C 322.506,293.095 322.172,337.761 322.5,382.5C 379.833,382.5 437.167,382.5 494.5,382.5C 437.002,383.499 379.336,383.832 321.5,383.5C 320.838,338.154 321.505,293.154 323.5,248.5 Z"/></g>
<g><path style="opacity:1" fill="#3dc77c" d="M 495.5,247.5 C 495.833,247.5 496.167,247.5 496.5,247.5C 497.499,293.33 497.832,339.33 497.5,385.5C 496.833,385.5 496.167,385.5 495.5,385.5C 495.5,385.167 495.5,384.833 495.5,384.5C 495.5,338.833 495.5,293.167 495.5,247.5 Z"/></g>
<g><path style="opacity:1" fill="#fcfefc" d="M 323.5,248.5 C 380.5,248.5 437.5,248.5 494.5,248.5C 494.5,293.167 494.5,337.833 494.5,382.5C 437.167,382.5 379.833,382.5 322.5,382.5C 322.172,337.761 322.506,293.095 323.5,248.5 Z"/></g>
<g><path style="opacity:1" fill="#f9ba7d" d="M 467.5,335.5 C 473.5,335.5 479.5,335.5 485.5,335.5C 485.5,348.833 485.5,362.167 485.5,375.5C 479.5,375.5 473.5,375.5 467.5,375.5C 467.5,362.167 467.5,348.833 467.5,335.5 Z"/></g>
<g><path style="opacity:1" fill="#fa9033" d="M 468.5,336.5 C 473.833,336.5 479.167,336.5 484.5,336.5C 484.5,349.167 484.5,361.833 484.5,374.5C 479.167,374.5 473.833,374.5 468.5,374.5C 468.5,361.833 468.5,349.167 468.5,336.5 Z"/></g>
<g><path style="opacity:1" fill="#a2f3f8" d="M 437.5,307.5 C 437.5,329.833 437.5,352.167 437.5,374.5C 437.167,374.5 436.833,374.5 436.5,374.5C 436.5,351.833 436.5,329.167 436.5,306.5C 430.833,306.5 425.167,306.5 419.5,306.5C 419.5,329.167 419.5,351.833 419.5,374.5C 418.502,351.673 418.169,328.673 418.5,305.5C 425.255,304.877 431.588,305.544 437.5,307.5 Z"/></g>
<g><path style="opacity:1" fill="#60a07f" d="M 461.5,278.5 C 461.832,310.671 461.498,342.671 460.5,374.5C 454.833,375.833 449.167,375.833 443.5,374.5C 443.5,342.5 443.5,310.5 443.5,278.5C 449.5,278.5 455.5,278.5 461.5,278.5 Z"/></g>
<g><path style="opacity:1" fill="#12c2d5" d="M 436.5,374.5 C 430.833,375.833 425.167,375.833 419.5,374.5C 419.5,351.833 419.5,329.167 419.5,306.5C 425.167,306.5 430.833,306.5 436.5,306.5C 436.5,329.167 436.5,351.833 436.5,374.5 Z"/></g>
<g><path style="opacity:1" fill="#136f3c" d="M 460.5,374.5 C 460.167,374.5 459.833,374.5 459.5,374.5C 459.5,343.167 459.5,311.833 459.5,280.5C 455.486,280.334 451.486,280.501 447.5,281C 447,281.5 446.5,282 446,282.5C 445.5,313.165 445.333,343.832 445.5,374.5C 444.502,343.004 444.168,311.338 444.5,279.5C 449.833,279.5 455.167,279.5 460.5,279.5C 460.5,311.167 460.5,342.833 460.5,374.5 Z"/></g>
<g><path style="opacity:1" fill="#0b8440" d="M 459.5,374.5 C 454.833,374.5 450.167,374.5 445.5,374.5C 445.333,343.832 445.5,313.165 446,282.5C 446.5,282 447,281.5 447.5,281C 451.486,280.501 455.486,280.334 459.5,280.5C 459.5,311.833 459.5,343.167 459.5,374.5 Z"/></g>
<g><path style="opacity:1" fill="#ecfefb" d="M 461.5,278.5 C 455.5,278.5 449.5,278.5 443.5,278.5C 443.5,310.5 443.5,342.5 443.5,374.5C 441.38,374.93 439.38,374.93 437.5,374.5C 437.5,352.167 437.5,329.833 437.5,307.5C 438.332,328.663 438.832,349.996 439,371.5C 439.667,370.167 440.333,368.833 441,367.5C 441.167,357.333 441.333,347.167 441.5,337C 441.186,317.205 440.853,297.538 440.5,278C 446.576,276.855 452.743,276.021 459,275.5C 460.417,276.078 461.25,277.078 461.5,278.5 Z"/></g>
<g><path style="opacity:1" fill="#dbecec" d="M 330.5,256.5 C 357.5,256.5 384.5,256.5 411.5,256.5C 411.791,295.848 411.458,335.182 410.5,374.5C 383.833,374.5 357.167,374.5 330.5,374.5C 330.5,335.167 330.5,295.833 330.5,256.5 Z"/></g>
<g><path style="opacity:1" fill="#76d3a7" d="M 399.5,359.5 C 392.159,359.334 384.826,359.5 377.5,360C 376.167,361.667 376.167,363.333 377.5,365C 384.492,365.5 391.492,365.666 398.5,365.5C 391.345,366.655 384.012,366.822 376.5,366C 375.167,363.667 375.167,361.333 376.5,359C 384.345,358.178 392.011,358.344 399.5,359.5 Z"/></g>
<g><path style="opacity:1" fill="#26c36f" d="M 399.5,359.5 C 400.139,360.097 400.472,360.93 400.5,362C 400.613,363.699 399.947,364.866 398.5,365.5C 391.492,365.666 384.492,365.5 377.5,365C 376.167,363.333 376.167,361.667 377.5,360C 384.826,359.5 392.159,359.334 399.5,359.5 Z"/></g>
<g><path style="opacity:1" fill="#0fd365" d="M 378.5,360.5 C 385.167,360.5 391.833,360.5 398.5,360.5C 398.5,361.833 398.5,363.167 398.5,364.5C 392.158,364.666 385.825,364.5 379.5,364C 378.663,362.989 378.33,361.822 378.5,360.5 Z"/></g>
<g><path style="opacity:1" fill="#384244" d="M 340.5,328.5 C 360.511,328.167 380.511,328.5 400.5,329.5C 390.5,329.833 380.5,330.167 370.5,330.5C 360.144,330.499 350.144,329.832 340.5,328.5 Z"/></g>
<g><path style="opacity:1" fill="#616a6c" d="M 340.5,316.5 C 360.844,316.167 381.178,316.5 401.5,317.5C 391.333,317.833 381.167,318.167 371,318.5C 360.477,318.499 350.311,317.832 340.5,316.5 Z"/></g>
<g><path style="opacity:1" fill="#454c4e" d="M 340.5,303.5 C 355.182,303.167 369.848,303.501 384.5,304.5C 377.167,304.833 369.833,305.167 362.5,305.5C 354.802,305.497 347.468,304.831 340.5,303.5 Z"/></g>
<g><path style="opacity:1" fill="#4c5759" d="M 340.5,291.5 C 360.844,291.167 381.178,291.5 401.5,292.5C 391.333,292.833 381.167,293.167 371,293.5C 360.477,293.499 350.311,292.832 340.5,291.5 Z"/></g>
<g><path style="opacity:1" fill="#323c3e" d="M 340.5,279.5 C 355.182,279.167 369.848,279.501 384.5,280.5C 377.167,280.833 369.833,281.167 362.5,281.5C 354.802,281.497 347.468,280.831 340.5,279.5 Z"/></g>
<g><path style="opacity:1" fill="#455555" d="M 400.5,267.5 C 381.195,269.488 361.528,270.154 341.5,269.5C 360.805,267.512 380.472,266.846 400.5,267.5 Z"/></g>
<g><path style="opacity:1" fill="#b1c1c1" d="M 400.5,267.5 C 380.472,266.846 360.805,267.512 341.5,269.5C 340.596,268.791 340.263,267.791 340.5,266.5C 360.674,266.17 380.674,266.503 400.5,267.5 Z"/></g>
<g><path style="opacity:1" fill="#1cbd65" d="M 319.5,246.5 C 348.831,245.833 378.331,245.5 408,245.5C 437.841,245.5 467.341,246.167 496.5,247.5C 496.167,247.5 495.833,247.5 495.5,247.5C 437.002,246.501 378.336,246.168 319.5,246.5 Z"/></g>
<g><path style="opacity:0.796" fill="#222727" d="M 42.5,395.5 C 58.1667,395.5 73.8333,395.5 89.5,395.5C 89.8333,395.5 90.1667,395.5 90.5,395.5C 90.8333,396.167 91.1667,396.833 91.5,397.5C 74.7991,398.152 58.4658,397.485 42.5,395.5 Z"/></g>
<g><path style="opacity:0.826" fill="#3f1c13" d="M 90.5,395.5 C 102.833,395.5 115.167,395.5 127.5,395.5C 139.5,395.5 151.5,395.5 163.5,395.5C 164.167,395.5 164.833,395.5 165.5,395.5C 165.5,396.167 165.5,396.833 165.5,397.5C 140.833,397.5 116.167,397.5 91.5,397.5C 91.1667,396.833 90.8333,396.167 90.5,395.5 Z"/></g>
<g><path style="opacity:0.936" fill="#1c2c33" d="M 165.5,395.5 C 187.5,395.5 209.5,395.5 231.5,395.5C 250.167,395.5 268.833,395.5 287.5,395.5C 292.833,395.5 298.167,395.5 303.5,395.5C 305.167,395.5 306.833,395.5 308.5,395.5C 308.5,396.167 308.5,396.833 308.5,397.5C 260.833,397.5 213.167,397.5 165.5,397.5C 165.5,396.833 165.5,396.167 165.5,395.5 Z"/></g>
<g><path style="opacity:0.717" fill="#153a1a" d="M 308.5,395.5 C 308.833,395.5 309.167,395.5 309.5,395.5C 375.5,395.5 441.5,395.5 507.5,395.5C 507.167,396.167 506.833,396.833 506.5,397.5C 440.5,397.5 374.5,397.5 308.5,397.5C 308.5,396.833 308.5,396.167 308.5,395.5 Z"/></g>
<g><path style="opacity:0.69" fill="#242a2a" d="M 507.5,395.5 C 518.552,394.857 529.219,395.524 539.5,397.5C 528.5,397.5 517.5,397.5 506.5,397.5C 506.833,396.833 507.167,396.167 507.5,395.5 Z"/></g>
</svg>
