<?xml version="1.0" encoding="UTF-8"?>
<!DOCTYPE svg PUBLIC "-//W3C//DTD SVG 1.1//EN" "http://www.w3.org/Graphics/SVG/1.1/DTD/svg11.dtd">
<svg xmlns="http://www.w3.org/2000/svg" version="1.1" width="657px" height="380px" style="shape-rendering:geometricPrecision; text-rendering:geometricPrecision; image-rendering:optimizeQuality; fill-rule:evenodd; clip-rule:evenodd" xmlns:xlink="http://www.w3.org/1999/xlink">
<g><path style="opacity:1" fill="#fe7453" d="M 297.5,27.5 C 318.836,27.3334 340.169,27.5 361.5,28C 363.028,29.6477 363.695,31.6477 363.5,34C 362.429,41.804 361.762,49.6374 361.5,57.5C 361.5,58.1667 361.5,58.8333 361.5,59.5C 360.177,63.4295 359.177,67.4295 358.5,71.5C 338.167,70.1667 317.833,70.1667 297.5,71.5C 296.833,67.1667 296.167,62.8333 295.5,58.5C 295.598,56.4471 294.931,54.7804 293.5,53.5C 293.5,52.5 293.5,51.5 293.5,50.5C 293.331,43.4764 293.164,36.4764 293,29.5C 294.11,27.9632 295.61,27.2965 297.5,27.5 Z"/></g>
<g><path style="opacity:1" fill="#ea8b72" d="M 297.5,27.5 C 318.327,26.5027 339.327,26.1694 360.5,26.5C 363.555,27.2465 365.222,29.2465 365.5,32.5C 364.304,40.9954 362.97,49.3287 361.5,57.5C 361.762,49.6374 362.429,41.804 363.5,34C 363.695,31.6477 363.028,29.6477 361.5,28C 340.169,27.5 318.836,27.3334 297.5,27.5 Z"/></g>
<g><path style="opacity:1" fill="#f49e88" d="M 360.5,26.5 C 339.327,26.1694 318.327,26.5027 297.5,27.5C 295.61,27.2965 294.11,27.9632 293,29.5C 293.164,36.4764 293.331,43.4764 293.5,50.5C 292.348,44.6647 291.348,38.6647 290.5,32.5C 290.856,29.3121 292.523,27.1455 295.5,26C 317.337,25.1705 339.004,25.3372 360.5,26.5 Z"/></g>
<g><path style="opacity:0.988" fill="#eda591" d="M 293.5,53.5 C 294.931,54.7804 295.598,56.4471 295.5,58.5C 295.5,60.8333 295.5,63.1667 295.5,65.5C 294.383,61.7051 293.717,57.7051 293.5,53.5 Z"/></g>
<g><path style="opacity:1" fill="#e8876e" d="M 295.5,58.5 C 296.167,62.8333 296.833,67.1667 297.5,71.5C 297.5,73.5 297.5,75.5 297.5,77.5C 297.167,77.5 296.833,77.5 296.5,77.5C 296.5,77.1667 296.5,76.8333 296.5,76.5C 295.656,72.9009 295.323,69.2343 295.5,65.5C 295.5,63.1667 295.5,60.8333 295.5,58.5 Z"/></g>
<g><path style="opacity:0.737" fill="#eb9488" d="M 361.5,59.5 C 361.052,65.5315 360.385,71.5315 359.5,77.5C 359.672,78.4916 359.338,79.1583 358.5,79.5C 358.5,76.8333 358.5,74.1667 358.5,71.5C 359.177,67.4295 360.177,63.4295 361.5,59.5 Z"/></g>
<g><path style="opacity:1" fill="#e14642" d="M 358.5,71.5 C 358.5,74.1667 358.5,76.8333 358.5,79.5C 356.667,87.1589 355.167,95.1589 354,103.5C 353.167,104.333 352.333,105.167 351.5,106C 335.5,106.667 319.5,106.667 303.5,106C 302.601,104.348 301.601,102.848 300.5,101.5C 300.167,99.5 299.833,97.5 299.5,95.5C 299.665,92.1501 299.498,88.8168 299,85.5C 298.768,84.2625 298.268,83.2625 297.5,82.5C 297.5,80.8333 297.5,79.1667 297.5,77.5C 297.5,75.5 297.5,73.5 297.5,71.5C 317.833,70.1667 338.167,70.1667 358.5,71.5 Z"/></g>
<g><path style="opacity:0.998" fill="#e5e5e4" d="M 169.5,79.5 C 188.246,98.2435 206.579,117.243 224.5,136.5C 222.5,139.167 220.167,141.5 217.5,143.5C 215.782,145.223 214.449,147.223 213.5,149.5C 213.5,150.167 213.5,150.833 213.5,151.5C 211.917,153.663 210.584,155.996 209.5,158.5C 208.836,161.146 208.502,163.979 208.5,167C 208.286,171.133 208.952,174.966 210.5,178.5C 212.438,182.043 214.105,185.71 215.5,189.5C 216.255,192.512 217.588,195.178 219.5,197.5C 221.681,197.284 223.347,198.117 224.5,200C 220.909,200.789 217.409,200.622 214,199.5C 213.383,200.449 213.549,201.282 214.5,202C 213.207,202.49 211.873,202.657 210.5,202.5C 210.317,204.988 209.317,206.988 207.5,208.5C 205.413,209.585 204.08,211.251 203.5,213.5C 203.5,213.833 203.5,214.167 203.5,214.5C 202.5,214.833 201.833,215.5 201.5,216.5C 199.496,217.673 197.996,219.34 197,221.5C 196.333,242.167 196.333,262.833 197,283.5C 197.671,284.252 198.504,284.586 199.5,284.5C 199.611,285.117 199.944,285.617 200.5,286C 230.165,286.5 259.831,286.667 289.5,286.5C 291.144,286.714 292.644,286.38 294,285.5C 295.58,283.079 296.413,280.413 296.5,277.5C 296.224,259.151 295.224,241.151 293.5,223.5C 292.39,219.468 290.723,215.802 288.5,212.5C 287.205,209.679 286.371,207.013 286,204.5C 285.692,205.308 285.192,205.975 284.5,206.5C 282.423,204.918 280.09,203.918 277.5,203.5C 274.917,201.432 271.917,200.099 268.5,199.5C 270.092,197.549 272.092,196.216 274.5,195.5C 275.429,194.311 275.762,192.978 275.5,191.5C 277.58,192.044 279.58,192.878 281.5,194C 286.301,197.799 290.801,201.966 295,206.5C 295.483,207.448 295.649,208.448 295.5,209.5C 296.552,209.351 297.552,209.517 298.5,210C 312.401,223.398 325.734,237.232 338.5,251.5C 345.216,269.013 357.55,280.346 375.5,285.5C 374.761,285.369 374.094,285.536 373.5,286C 379.394,291.059 384.727,296.559 389.5,302.5C 326.832,302.333 264.166,302.5 201.5,303C 197.513,306.62 197.513,310.287 201.5,314C 268.499,314.5 335.499,314.667 402.5,314.5C 412.599,324.994 422.932,335.327 433.5,345.5C 433.137,346.183 432.804,346.85 432.5,347.5C 345.002,347.008 257.669,346.841 170.5,347C 153.551,345.382 143.717,336.215 141,319.5C 140.333,248.5 140.333,177.5 141,106.5C 143.117,89.53 152.617,80.53 169.5,79.5 Z"/></g>
<g><path style="opacity:0.996" fill="#f1f1f1" d="M 296.5,76.5 C 296.5,76.8333 296.5,77.1667 296.5,77.5C 296.81,83.7576 296.476,89.9242 295.5,96C 298.809,99.0259 300.309,102.859 300,107.5C 300.903,108.701 302.069,109.535 303.5,110C 311.667,110.167 319.833,110.333 328,110.5C 336.93,110.64 345.763,110.14 354.5,109C 356.487,107.681 357.654,105.848 358,103.5C 358.363,95.0644 359.196,86.7311 360.5,78.5C 405.148,79.038 449.815,79.8714 494.5,81C 504.231,83.064 510.397,88.8974 513,98.5C 514.112,105.123 514.946,111.79 515.5,118.5C 515.067,187.82 514.233,257.154 513,326.5C 508.146,340.867 497.979,347.7 482.5,347C 465.837,347.5 449.17,347.667 432.5,347.5C 432.804,346.85 433.137,346.183 433.5,345.5C 422.932,335.327 412.599,324.994 402.5,314.5C 420.17,314.667 437.836,314.5 455.5,314C 459.782,311.261 460.448,307.927 457.5,304C 434.924,302.521 412.257,302.021 389.5,302.5C 384.727,296.559 379.394,291.059 373.5,286C 374.094,285.536 374.761,285.369 375.5,285.5C 375.833,285.5 376.167,285.5 376.5,285.5C 377.398,286.158 378.398,286.824 379.5,287.5C 383.795,288.661 388.129,288.828 392.5,288C 395.711,286.847 399.044,286.18 402.5,286C 405.381,284.292 408.381,282.792 411.5,281.5C 411.863,280.817 412.196,280.15 412.5,279.5C 414.878,277.122 417.545,275.122 420.5,273.5C 422.371,273.141 423.871,272.141 425,270.5C 426.667,268.167 428.333,265.833 430,263.5C 431.707,261.091 432.54,258.425 432.5,255.5C 434.14,253.602 435.807,251.602 437.5,249.5C 436.868,242.703 436.201,236.037 435.5,229.5C 435.5,228.5 435.5,227.5 435.5,226.5C 435.263,218.027 432.263,210.693 426.5,204.5C 425.583,203.873 424.583,203.539 423.5,203.5C 420.762,197.279 416.095,193.112 409.5,191C 408.833,190 408.167,189 407.5,188C 404.854,187.503 402.187,187.336 399.5,187.5C 396.833,187.5 394.167,187.5 391.5,187.5C 388.402,186.179 384.902,185.512 381,185.5C 377.5,185.667 374,185.833 370.5,186C 369.663,187.011 369.33,188.178 369.5,189.5C 368.508,189.328 367.842,189.662 367.5,190.5C 365.739,191.313 364.072,192.313 362.5,193.5C 346.262,202.612 337.595,216.612 336.5,235.5C 336.951,240.869 337.617,246.203 338.5,251.5C 325.734,237.232 312.401,223.398 298.5,210C 297.552,209.517 296.552,209.351 295.5,209.5C 295.649,208.448 295.483,207.448 295,206.5C 290.801,201.966 286.301,197.799 281.5,194C 279.58,192.878 277.58,192.044 275.5,191.5C 275.5,191.167 275.5,190.833 275.5,190.5C 278.584,188.293 280.584,185.293 281.5,181.5C 281.232,179.901 281.566,178.568 282.5,177.5C 283.338,177.158 283.672,176.492 283.5,175.5C 285.2,167.752 284.534,160.085 281.5,152.5C 280.817,152.137 280.15,151.804 279.5,151.5C 279.443,150.391 279.11,149.391 278.5,148.5C 277.429,145.819 276.429,142.486 275.5,138.5C 274.167,138.5 272.833,138.5 271.5,138.5C 271.52,136.857 270.853,135.524 269.5,134.5C 267.577,133.692 265.577,133.192 263.5,133C 262.743,131.488 261.743,130.154 260.5,129C 259.39,129.138 258.39,129.638 257.5,130.5C 253.99,130.332 250.49,129.999 247,129.5C 243.588,129.614 240.421,130.281 237.5,131.5C 235.847,131.66 234.514,132.326 233.5,133.5C 230.345,133.977 227.345,134.977 224.5,136.5C 206.579,117.243 188.246,98.2435 169.5,79.5C 203.425,79.0167 237.258,79.0167 271,79.5C 277.167,79.3333 283.333,79.1667 289.5,79C 292.03,78.6207 294.363,77.7874 296.5,76.5 Z"/></g>
<g><path style="opacity:1" fill="#fde7e4" d="M 296.5,77.5 C 296.833,77.5 297.167,77.5 297.5,77.5C 297.5,79.1667 297.5,80.8333 297.5,82.5C 297.438,87.0758 298.105,91.4091 299.5,95.5C 299.833,97.5 300.167,99.5 300.5,101.5C 300.549,104.099 301.549,106.266 303.5,108C 319.844,108.833 336.177,108.666 352.5,107.5C 353.522,106.646 354.355,105.646 355,104.5C 356.88,96.2927 358.047,87.9594 358.5,79.5C 359.338,79.1583 359.672,78.4916 359.5,77.5C 360.167,77.5 360.5,77.8333 360.5,78.5C 359.196,86.7311 358.363,95.0644 358,103.5C 357.654,105.848 356.487,107.681 354.5,109C 345.763,110.14 336.93,110.64 328,110.5C 319.833,110.333 311.667,110.167 303.5,110C 302.069,109.535 300.903,108.701 300,107.5C 300.309,102.859 298.809,99.0259 295.5,96C 296.476,89.9242 296.81,83.7576 296.5,77.5 Z"/></g>
<g><path style="opacity:1" fill="#cf5e58" d="M 358.5,79.5 C 358.047,87.9594 356.88,96.2927 355,104.5C 354.355,105.646 353.522,106.646 352.5,107.5C 336.177,108.666 319.844,108.833 303.5,108C 301.549,106.266 300.549,104.099 300.5,101.5C 301.601,102.848 302.601,104.348 303.5,106C 319.5,106.667 335.5,106.667 351.5,106C 352.333,105.167 353.167,104.333 354,103.5C 355.167,95.1589 356.667,87.1589 358.5,79.5 Z"/></g>
<g><path style="opacity:1" fill="#d77976" d="M 297.5,82.5 C 298.268,83.2625 298.768,84.2625 299,85.5C 299.498,88.8168 299.665,92.1501 299.5,95.5C 298.105,91.4091 297.438,87.0758 297.5,82.5 Z"/></g>
<g><path style="opacity:1" fill="#f8ddb9" d="M 257.5,130.5 C 257.5,131.167 257.5,131.833 257.5,132.5C 256.167,132.5 254.833,132.5 253.5,132.5C 248.36,131.512 243.026,131.179 237.5,131.5C 240.421,130.281 243.588,129.614 247,129.5C 250.49,129.999 253.99,130.332 257.5,130.5 Z"/></g>
<g><path style="opacity:1" fill="#9c9c9c" d="M 319.5,132.5 C 364.835,132.333 410.168,132.5 455.5,133C 460.757,136.479 460.757,140.146 455.5,144C 410.5,144.667 365.5,144.667 320.5,144C 315.624,140.479 315.29,136.646 319.5,132.5 Z"/></g>
<g><path style="opacity:1" fill="#f2a256" d="M 233.5,133.5 C 233.511,135.017 234.177,136.184 235.5,137C 234.874,137.75 234.374,138.584 234,139.5C 232.826,137.329 230.993,136.329 228.5,136.5C 227.614,140.037 225.281,141.704 221.5,141.5C 221.5,142.5 221.5,143.5 221.5,144.5C 220.5,144.5 219.5,144.5 218.5,144.5C 218.715,146.179 218.048,147.179 216.5,147.5C 217.234,146.292 217.567,144.959 217.5,143.5C 220.167,141.5 222.5,139.167 224.5,136.5C 227.345,134.977 230.345,133.977 233.5,133.5 Z"/></g>
<g><path style="opacity:1" fill="#f6f1db" d="M 278.5,148.5 C 278.167,148.5 277.833,148.5 277.5,148.5C 275.78,145.269 273.447,142.436 270.5,140C 266.347,137.022 262.014,134.522 257.5,132.5C 257.5,131.833 257.5,131.167 257.5,130.5C 258.39,129.638 259.39,129.138 260.5,129C 261.743,130.154 262.743,131.488 263.5,133C 265.577,133.192 267.577,133.692 269.5,134.5C 270.853,135.524 271.52,136.857 271.5,138.5C 272.833,138.5 274.167,138.5 275.5,138.5C 276.429,142.486 277.429,145.819 278.5,148.5 Z"/></g>
<g><path style="opacity:1" fill="#eebf92" d="M 217.5,143.5 C 217.567,144.959 217.234,146.292 216.5,147.5C 215.5,148.167 214.5,148.833 213.5,149.5C 214.449,147.223 215.782,145.223 217.5,143.5 Z"/></g>
<g><path style="opacity:1" fill="#f5a442" d="M 239.5,140.5 C 227.633,153.928 225.3,168.928 232.5,185.5C 229.393,182.96 227.56,179.627 227,175.5C 226.626,169.19 226.46,163.024 226.5,157C 227.333,156.167 228.167,155.333 229,154.5C 230.086,147.927 233.586,143.261 239.5,140.5 Z"/></g>
<g><path style="opacity:1" fill="#9b9b9b" d="M 319.5,157.5 C 364.835,157.333 410.168,157.5 455.5,158C 460.741,161.53 460.741,165.197 455.5,169C 410.5,169.667 365.5,169.667 320.5,169C 315.697,165.465 315.364,161.632 319.5,157.5 Z"/></g>
<g><path style="opacity:1" fill="#f69f4d" d="M 213.5,151.5 C 213.551,158.017 214.884,164.35 217.5,170.5C 216.167,170.5 214.833,170.5 213.5,170.5C 213.678,173.216 214.178,175.883 215,178.5C 216.156,177.007 216.99,177.174 217.5,179C 216.516,180.657 215.516,182.323 214.5,184C 216.18,184.034 217.68,184.201 219,184.5C 220.339,188.079 221.839,191.579 223.5,195C 225.833,195.333 228.167,195.667 230.5,196C 228.21,196.79 227.877,198.124 229.5,200C 229.164,201.03 228.497,201.53 227.5,201.5C 223.827,197.161 219.827,193.161 215.5,189.5C 214.105,185.71 212.438,182.043 210.5,178.5C 209.669,171.869 209.336,165.202 209.5,158.5C 210.584,155.996 211.917,153.663 213.5,151.5 Z"/></g>
<g><path style="opacity:1" fill="#f9e6a6" d="M 281.5,157.5 C 282.268,158.263 282.768,159.263 283,160.5C 283.499,165.489 283.666,170.489 283.5,175.5C 283.672,176.492 283.338,177.158 282.5,177.5C 282.609,170.804 282.276,164.137 281.5,157.5 Z"/></g>
<g><path style="opacity:1" fill="#f6d66a" d="M 277.5,148.5 C 277.833,148.5 278.167,148.5 278.5,148.5C 279.11,149.391 279.443,150.391 279.5,151.5C 280.167,153.5 280.833,155.5 281.5,157.5C 282.276,164.137 282.609,170.804 282.5,177.5C 281.566,178.568 281.232,179.901 281.5,181.5C 279.806,182.527 278.473,183.861 277.5,185.5C 280.39,176.463 281.223,167.129 280,157.5C 278.396,154.753 277.562,151.753 277.5,148.5 Z"/></g>
<g><path style="opacity:1" fill="#f1cda9" d="M 209.5,158.5 C 209.336,165.202 209.669,171.869 210.5,178.5C 208.952,174.966 208.286,171.133 208.5,167C 208.502,163.979 208.836,161.146 209.5,158.5 Z"/></g>
<g><path style="opacity:1" fill="#f8f2d8" d="M 279.5,151.5 C 280.15,151.804 280.817,152.137 281.5,152.5C 284.534,160.085 285.2,167.752 283.5,175.5C 283.666,170.489 283.499,165.489 283,160.5C 282.768,159.263 282.268,158.263 281.5,157.5C 280.833,155.5 280.167,153.5 279.5,151.5 Z"/></g>
<g><path style="opacity:1" fill="#e1f4e5" d="M 391.5,187.5 C 384.017,187.091 376.684,187.758 369.5,189.5C 369.33,188.178 369.663,187.011 370.5,186C 374,185.833 377.5,185.667 381,185.5C 384.902,185.512 388.402,186.179 391.5,187.5 Z"/></g>
<g><path style="opacity:1" fill="#f7ebc4" d="M 281.5,181.5 C 280.584,185.293 278.584,188.293 275.5,190.5C 276.167,188.833 276.833,187.167 277.5,185.5C 278.473,183.861 279.806,182.527 281.5,181.5 Z"/></g>
<g><path style="opacity:1" fill="#77c48d" d="M 391.5,187.5 C 394.167,187.5 396.833,187.5 399.5,187.5C 399.5,188.167 399.5,188.833 399.5,189.5C 390.067,187.879 380.734,188.212 371.5,190.5C 370.167,190.5 368.833,190.5 367.5,190.5C 367.842,189.662 368.508,189.328 369.5,189.5C 376.684,187.758 384.017,187.091 391.5,187.5 Z"/></g>
<g><path style="opacity:1" fill="#f3ddc6" d="M 215.5,189.5 C 219.827,193.161 223.827,197.161 227.5,201.5C 224.482,201.335 221.482,201.502 218.5,202C 215.916,202.86 213.583,204.027 211.5,205.5C 210.564,206.974 209.23,207.974 207.5,208.5C 209.317,206.988 210.317,204.988 210.5,202.5C 211.873,202.657 213.207,202.49 214.5,202C 213.549,201.282 213.383,200.449 214,199.5C 217.409,200.622 220.909,200.789 224.5,200C 223.347,198.117 221.681,197.284 219.5,197.5C 217.588,195.178 216.255,192.512 215.5,189.5 Z"/></g>
<g><path style="opacity:1" fill="#69bf81" d="M 407.5,192.5 C 413.336,195.32 418.67,198.986 423.5,203.5C 425.985,205.652 427.651,208.319 428.5,211.5C 423.639,204.639 417.305,199.639 409.5,196.5C 408.295,195.423 407.628,194.09 407.5,192.5 Z"/></g>
<g><path style="opacity:1" fill="#d7f2dc" d="M 399.5,187.5 C 402.187,187.336 404.854,187.503 407.5,188C 408.167,189 408.833,190 409.5,191C 416.095,193.112 420.762,197.279 423.5,203.5C 418.67,198.986 413.336,195.32 407.5,192.5C 405.208,190.733 402.542,189.733 399.5,189.5C 399.5,188.833 399.5,188.167 399.5,187.5 Z"/></g>
<g><path style="opacity:1" fill="#f0e2bd" d="M 275.5,191.5 C 275.762,192.978 275.429,194.311 274.5,195.5C 272.092,196.216 270.092,197.549 268.5,199.5C 271.917,200.099 274.917,201.432 277.5,203.5C 272.904,202.339 268.237,201.339 263.5,200.5C 267.838,197.813 271.838,194.813 275.5,191.5 Z"/></g>
<g><path style="opacity:1" fill="#fdd552" d="M 253.5,132.5 C 254.833,132.5 256.167,132.5 257.5,132.5C 262.014,134.522 266.347,137.022 270.5,140C 273.447,142.436 275.78,145.269 277.5,148.5C 277.562,151.753 278.396,154.753 280,157.5C 281.223,167.129 280.39,176.463 277.5,185.5C 276.833,187.167 276.167,188.833 275.5,190.5C 275.5,190.833 275.5,191.167 275.5,191.5C 271.838,194.813 267.838,197.813 263.5,200.5C 268.237,201.339 272.904,202.339 277.5,203.5C 280.688,205.932 283.688,208.599 286.5,211.5C 287.825,214.15 289.158,216.816 290.5,219.5C 289.954,221.135 289.62,222.801 289.5,224.5C 290.5,224.5 291.5,224.5 292.5,224.5C 292.667,242.836 292.5,261.17 292,279.5C 291.727,281.101 291.227,282.601 290.5,284C 266.836,284.5 243.169,284.667 219.5,284.5C 218.778,284.082 218.278,283.416 218,282.5C 217.833,272.667 217.667,262.833 217.5,253C 210.407,226.345 219.407,208.511 244.5,199.5C 241.905,197.283 239.405,194.949 237,192.5C 236.062,189.743 234.562,187.41 232.5,185.5C 225.3,168.928 227.633,153.928 239.5,140.5C 243.072,138.033 246.739,135.533 250.5,133C 251.448,132.517 252.448,132.351 253.5,132.5 Z"/></g>
<g><path style="opacity:1" fill="#f0a55a" d="M 227.5,201.5 C 222.589,204.061 217.256,205.394 211.5,205.5C 213.583,204.027 215.916,202.86 218.5,202C 221.482,201.502 224.482,201.335 227.5,201.5 Z"/></g>
<g><path style="opacity:1" fill="#ece3ca" d="M 277.5,203.5 C 280.09,203.918 282.423,204.918 284.5,206.5C 285.192,205.975 285.692,205.308 286,204.5C 286.371,207.013 287.205,209.679 288.5,212.5C 287.833,212.167 287.167,211.833 286.5,211.5C 283.688,208.599 280.688,205.932 277.5,203.5 Z"/></g>
<g><path style="opacity:1" fill="#dcf7e2" d="M 423.5,203.5 C 424.583,203.539 425.583,203.873 426.5,204.5C 432.263,210.693 435.263,218.027 435.5,226.5C 433.976,221.118 431.642,216.118 428.5,211.5C 427.651,208.319 425.985,205.652 423.5,203.5 Z"/></g>
<g><path style="opacity:1" fill="#5ac778" d="M 399.5,189.5 C 402.542,189.733 405.208,190.733 407.5,192.5C 407.628,194.09 408.295,195.423 409.5,196.5C 417.305,199.639 423.639,204.639 428.5,211.5C 428.506,214.518 429.506,217.184 431.5,219.5C 430.689,220.216 430.022,221.05 429.5,222C 432.895,226.319 434.229,231.319 433.5,237C 433.333,239.833 433.167,242.667 433,245.5C 431.184,250.427 429.684,255.427 428.5,260.5C 421.354,264.33 413.688,265.997 405.5,265.5C 397.324,266.101 389.991,264.101 383.5,259.5C 383.586,258.504 383.252,257.671 382.5,257C 378.487,256.15 376.487,253.65 376.5,249.5C 379.989,254.098 383.989,254.598 388.5,251C 395.716,243.45 403.55,236.617 412,230.5C 415.748,222.889 413.248,219.722 404.5,221C 397.572,227.05 390.739,233.216 384,239.5C 380.158,233.812 375.324,229.478 369.5,226.5C 364.14,226.592 362.14,229.259 363.5,234.5C 362.171,230.603 361.004,226.603 360,222.5C 359.148,218.004 359.648,213.67 361.5,209.5C 361.291,208.914 360.957,208.414 360.5,208C 363.165,205.183 363.832,202.017 362.5,198.5C 364.898,197.102 366.565,195.102 367.5,192.5C 369.026,192.006 370.359,191.339 371.5,190.5C 380.734,188.212 390.067,187.879 399.5,189.5 Z"/></g>
<g><path style="opacity:1" fill="#fa9d46" d="M 237.5,131.5 C 243.026,131.179 248.36,131.512 253.5,132.5C 252.448,132.351 251.448,132.517 250.5,133C 246.739,135.533 243.072,138.033 239.5,140.5C 233.586,143.261 230.086,147.927 229,154.5C 228.167,155.333 227.333,156.167 226.5,157C 226.46,163.024 226.626,169.19 227,175.5C 227.56,179.627 229.393,182.96 232.5,185.5C 234.562,187.41 236.062,189.743 237,192.5C 239.405,194.949 241.905,197.283 244.5,199.5C 219.407,208.511 210.407,226.345 217.5,253C 217.667,262.833 217.833,272.667 218,282.5C 218.278,283.416 218.778,284.082 219.5,284.5C 219.5,284.833 219.5,285.167 219.5,285.5C 213.31,285.823 207.31,285.49 201.5,284.5C 200.941,282.321 200.274,280.154 199.5,278C 200.314,259.531 200.814,241.031 201,222.5C 202.591,220.073 203.425,217.407 203.5,214.5C 203.5,214.167 203.5,213.833 203.5,213.5C 205.587,212.415 206.92,210.749 207.5,208.5C 209.23,207.974 210.564,206.974 211.5,205.5C 217.256,205.394 222.589,204.061 227.5,201.5C 228.497,201.53 229.164,201.03 229.5,200C 227.877,198.124 228.21,196.79 230.5,196C 228.167,195.667 225.833,195.333 223.5,195C 221.839,191.579 220.339,188.079 219,184.5C 217.68,184.201 216.18,184.034 214.5,184C 215.516,182.323 216.516,180.657 217.5,179C 216.99,177.174 216.156,177.007 215,178.5C 214.178,175.883 213.678,173.216 213.5,170.5C 214.833,170.5 216.167,170.5 217.5,170.5C 214.884,164.35 213.551,158.017 213.5,151.5C 213.5,150.833 213.5,150.167 213.5,149.5C 214.5,148.833 215.5,148.167 216.5,147.5C 218.048,147.179 218.715,146.179 218.5,144.5C 219.5,144.5 220.5,144.5 221.5,144.5C 221.5,143.5 221.5,142.5 221.5,141.5C 225.281,141.704 227.614,140.037 228.5,136.5C 230.993,136.329 232.826,137.329 234,139.5C 234.374,138.584 234.874,137.75 235.5,137C 234.177,136.184 233.511,135.017 233.5,133.5C 234.514,132.326 235.847,131.66 237.5,131.5 Z"/></g>
<g><path style="opacity:1" fill="#ecbe95" d="M 207.5,208.5 C 206.92,210.749 205.587,212.415 203.5,213.5C 204.08,211.251 205.413,209.585 207.5,208.5 Z"/></g>
<g><path style="opacity:1" fill="#0da083" d="M 362.5,193.5 C 353.118,216.814 357.451,237.314 375.5,255C 377.817,257.157 380.484,258.657 383.5,259.5C 389.991,264.101 397.324,266.101 405.5,265.5C 413.688,265.997 421.354,264.33 428.5,260.5C 428.833,260.5 429.167,260.5 429.5,260.5C 426.915,265.091 423.915,269.424 420.5,273.5C 417.545,275.122 414.878,277.122 412.5,279.5C 406.366,282.156 400.032,284.323 393.5,286C 387.805,286.626 382.138,286.459 376.5,285.5C 376.167,285.5 375.833,285.5 375.5,285.5C 357.55,280.346 345.216,269.013 338.5,251.5C 337.617,246.203 336.951,240.869 336.5,235.5C 337.595,216.612 346.262,202.612 362.5,193.5 Z"/></g>
<g><path style="opacity:1" fill="#ed9e58" d="M 203.5,214.5 C 203.425,217.407 202.591,220.073 201,222.5C 200.814,241.031 200.314,259.531 199.5,278C 200.274,280.154 200.941,282.321 201.5,284.5C 200.833,284.5 200.167,284.5 199.5,284.5C 199.672,283.508 199.338,282.842 198.5,282.5C 198.19,262.121 198.523,241.787 199.5,221.5C 200.167,219.833 200.833,218.167 201.5,216.5C 201.833,215.5 202.5,214.833 203.5,214.5 Z"/></g>
<g><path style="opacity:1" fill="#ede2c1" d="M 293.5,223.5 C 295.224,241.151 296.224,259.151 296.5,277.5C 296.413,280.413 295.58,283.079 294,285.5C 292.644,286.38 291.144,286.714 289.5,286.5C 289.5,286.167 289.5,285.833 289.5,285.5C 291.017,285.489 292.184,284.823 293,283.5C 293.5,263.503 293.667,243.503 293.5,223.5 Z"/></g>
<g><path style="opacity:1" fill="#64c281" d="M 428.5,211.5 C 431.642,216.118 433.976,221.118 435.5,226.5C 435.5,227.5 435.5,228.5 435.5,229.5C 436.072,238.378 435.072,247.045 432.5,255.5C 431.687,257.261 430.687,258.928 429.5,260.5C 429.167,260.5 428.833,260.5 428.5,260.5C 429.684,255.427 431.184,250.427 433,245.5C 433.167,242.667 433.333,239.833 433.5,237C 434.229,231.319 432.895,226.319 429.5,222C 430.022,221.05 430.689,220.216 431.5,219.5C 429.506,217.184 428.506,214.518 428.5,211.5 Z"/></g>
<g><path style="opacity:1" fill="#acef79" d="M 376.5,249.5 C 372.511,244.179 368.178,239.179 363.5,234.5C 362.14,229.259 364.14,226.592 369.5,226.5C 375.324,229.478 380.158,233.812 384,239.5C 390.739,233.216 397.572,227.05 404.5,221C 413.248,219.722 415.748,222.889 412,230.5C 403.55,236.617 395.716,243.45 388.5,251C 383.989,254.598 379.989,254.098 376.5,249.5 Z"/></g>
<g><path style="opacity:1" fill="#f4e4d3" d="M 201.5,216.5 C 200.833,218.167 200.167,219.833 199.5,221.5C 198.883,221.611 198.383,221.944 198,222.5C 197.171,242.671 197.338,262.671 198.5,282.5C 199.338,282.842 199.672,283.508 199.5,284.5C 198.504,284.586 197.671,284.252 197,283.5C 196.333,262.833 196.333,242.167 197,221.5C 197.996,219.34 199.496,217.673 201.5,216.5 Z"/></g>
<g><path style="opacity:1" fill="#f8c396" d="M 199.5,221.5 C 198.523,241.787 198.19,262.121 198.5,282.5C 197.338,262.671 197.171,242.671 198,222.5C 198.383,221.944 198.883,221.611 199.5,221.5 Z"/></g>
<g><path style="opacity:1" fill="#d0edd6" d="M 435.5,229.5 C 436.201,236.037 436.868,242.703 437.5,249.5C 435.807,251.602 434.14,253.602 432.5,255.5C 435.072,247.045 436.072,238.378 435.5,229.5 Z"/></g>
<g><path style="opacity:1" fill="#56c67e" d="M 367.5,190.5 C 368.833,190.5 370.167,190.5 371.5,190.5C 370.359,191.339 369.026,192.006 367.5,192.5C 366.565,195.102 364.898,197.102 362.5,198.5C 363.832,202.017 363.165,205.183 360.5,208C 360.957,208.414 361.291,208.914 361.5,209.5C 359.648,213.67 359.148,218.004 360,222.5C 361.004,226.603 362.171,230.603 363.5,234.5C 368.178,239.179 372.511,244.179 376.5,249.5C 376.487,253.65 378.487,256.15 382.5,257C 383.252,257.671 383.586,258.504 383.5,259.5C 380.484,258.657 377.817,257.157 375.5,255C 357.451,237.314 353.118,216.814 362.5,193.5C 364.072,192.313 365.739,191.313 367.5,190.5 Z"/></g>
<g><path style="opacity:1" fill="#d5f7ef" d="M 432.5,255.5 C 432.54,258.425 431.707,261.091 430,263.5C 428.333,265.833 426.667,268.167 425,270.5C 423.871,272.141 422.371,273.141 420.5,273.5C 423.915,269.424 426.915,265.091 429.5,260.5C 430.687,258.928 431.687,257.261 432.5,255.5 Z"/></g>
<g><path style="opacity:1" fill="#f6d466" d="M 286.5,211.5 C 287.167,211.833 287.833,212.167 288.5,212.5C 290.723,215.802 292.39,219.468 293.5,223.5C 293.667,243.503 293.5,263.503 293,283.5C 292.184,284.823 291.017,285.489 289.5,285.5C 266.167,285.5 242.833,285.5 219.5,285.5C 219.5,285.167 219.5,284.833 219.5,284.5C 243.169,284.667 266.836,284.5 290.5,284C 291.227,282.601 291.727,281.101 292,279.5C 292.5,261.17 292.667,242.836 292.5,224.5C 291.5,224.5 290.5,224.5 289.5,224.5C 289.62,222.801 289.954,221.135 290.5,219.5C 289.158,216.816 287.825,214.15 286.5,211.5 Z"/></g>
<g><path style="opacity:1" fill="#ebc891" d="M 199.5,284.5 C 200.167,284.5 200.833,284.5 201.5,284.5C 207.31,285.49 213.31,285.823 219.5,285.5C 242.833,285.5 266.167,285.5 289.5,285.5C 289.5,285.833 289.5,286.167 289.5,286.5C 259.831,286.667 230.165,286.5 200.5,286C 199.944,285.617 199.611,285.117 199.5,284.5 Z"/></g>
<g><path style="opacity:1" fill="#dff8f5" d="M 412.5,279.5 C 412.196,280.15 411.863,280.817 411.5,281.5C 408.381,282.792 405.381,284.292 402.5,286C 399.044,286.18 395.711,286.847 392.5,288C 388.129,288.828 383.795,288.661 379.5,287.5C 378.398,286.824 377.398,286.158 376.5,285.5C 382.138,286.459 387.805,286.626 393.5,286C 400.032,284.323 406.366,282.156 412.5,279.5 Z"/></g>
<g><path style="opacity:1" fill="#9b9b9b" d="M 389.5,302.5 C 412.257,302.021 434.924,302.521 457.5,304C 460.448,307.927 459.782,311.261 455.5,314C 437.836,314.5 420.17,314.667 402.5,314.5C 335.499,314.667 268.499,314.5 201.5,314C 197.513,310.287 197.513,306.62 201.5,303C 264.166,302.5 326.832,302.333 389.5,302.5 Z"/></g>
</svg>
