<?xml version="1.0" encoding="UTF-8"?>
<!DOCTYPE svg PUBLIC "-//W3C//DTD SVG 1.1//EN" "http://www.w3.org/Graphics/SVG/1.1/DTD/svg11.dtd">
<svg xmlns="http://www.w3.org/2000/svg" version="1.1" width="225px" height="225px" style="shape-rendering:geometricPrecision; text-rendering:geometricPrecision; image-rendering:optimizeQuality; fill-rule:evenodd; clip-rule:evenodd" xmlns:xlink="http://www.w3.org/1999/xlink">
<g><path style="opacity:0.051" fill="#fff4ec" d="M 11.5,25.5 C 11.5,25.8333 11.5,26.1667 11.5,26.5C 9.5887,27.075 7.92203,28.075 6.5,29.5C 6.04684,26.3127 7.7135,24.9794 11.5,25.5 Z"/></g>
<g><path style="opacity:1" fill="#fc4f19" d="M 11.5,26.5 C 16.8333,26.5 22.1667,26.5 27.5,26.5C 27.2087,38.2172 27.542,49.8838 28.5,61.5C 26.3722,63.4458 24.0388,65.2791 21.5,67C 18.854,67.4974 16.1873,67.6641 13.5,67.5C 11.246,66.8763 9.57935,65.543 8.5,63.5C 7.45335,52.5221 7.28668,41.5221 8,30.5C 9.37561,29.2949 10.5423,27.9616 11.5,26.5 Z"/></g>
<g><path style="opacity:1" fill="#fc4f19" d="M 48.5,26.5 C 55.5,26.5 62.5,26.5 69.5,26.5C 69.1901,37.5813 69.5234,48.5813 70.5,59.5C 66.7167,67.4054 60.7167,69.5721 52.5,66C 50.7518,63.9871 49.4185,61.8205 48.5,59.5C 48.5,48.5 48.5,37.5 48.5,26.5 Z"/></g>
<g><path style="opacity:1" fill="#fd4e1a" d="M 90.5,26.5 C 97.5,26.5 104.5,26.5 111.5,26.5C 111.19,37.5813 111.523,48.5813 112.5,59.5C 105.167,71.5 97.8333,71.5 90.5,59.5C 90.5,48.5 90.5,37.5 90.5,26.5 Z"/></g>
<g><path style="opacity:1" fill="#fc4f19" d="M 133.5,26.5 C 140.5,26.5 147.5,26.5 154.5,26.5C 154.5,37.5 154.5,48.5 154.5,59.5C 153.692,61.2202 152.692,62.8869 151.5,64.5C 143.338,69.7838 137.005,68.1171 132.5,59.5C 133.477,48.5813 133.81,37.5813 133.5,26.5 Z"/></g>
<g><path style="opacity:1" fill="#fd4f18" d="M 195.5,59.5 C 194.632,64.8556 191.466,67.5222 186,67.5C 180.319,67.6488 176.819,64.9821 175.5,59.5C 176.33,49.6751 176.83,39.6751 177,29.5C 182.693,29.1149 188.526,28.4483 194.5,27.5C 195.499,38.1459 195.832,48.8126 195.5,59.5 Z"/></g>
<g><path style="opacity:1" fill="#e6031c" d="M 27.5,26.5 C 34.5,26.5 41.5,26.5 48.5,26.5C 48.5,37.5 48.5,48.5 48.5,59.5C 45.2768,67.4677 39.6101,69.6343 31.5,66C 30.1175,64.7292 29.1175,63.2292 28.5,61.5C 27.542,49.8838 27.2087,38.2172 27.5,26.5 Z"/></g>
<g><path style="opacity:1" fill="#fb4b26" d="M 175.5,26.5 C 182.5,26.5 189.5,26.5 196.5,26.5C 196.5,37.5 196.5,48.5 196.5,59.5C 196.167,59.5 195.833,59.5 195.5,59.5C 195.832,48.8126 195.499,38.1459 194.5,27.5C 188.526,28.4483 182.693,29.1149 177,29.5C 176.83,39.6751 176.33,49.6751 175.5,59.5C 175.5,48.5 175.5,37.5 175.5,26.5 Z"/></g>
<g><path style="opacity:1" fill="#e6021c" d="M 196.5,26.5 C 202.221,26.3686 207.888,26.8686 213.5,28C 214.047,28.9246 214.713,29.7579 215.5,30.5C 216.833,40.1667 216.833,49.8333 215.5,59.5C 212.439,60.8095 211.106,63.1429 211.5,66.5C 211.5,67.1667 211.167,67.5 210.5,67.5C 210.167,67.5 209.833,67.5 209.5,67.5C 202.592,68.9128 198.258,66.2461 196.5,59.5C 196.5,48.5 196.5,37.5 196.5,26.5 Z"/></g>
<g><path style="opacity:1" fill="#e6041d" d="M 69.5,26.5 C 76.5,26.5 83.5,26.5 90.5,26.5C 90.5,37.5 90.5,48.5 90.5,59.5C 89.2109,64.7946 85.8776,67.4612 80.5,67.5C 74.453,68.1125 71.1197,65.4458 70.5,59.5C 69.5234,48.5813 69.1901,37.5813 69.5,26.5 Z"/></g>
<g><path style="opacity:1" fill="#d0633c" d="M 11.5,26.5 C 10.5423,27.9616 9.37561,29.2949 8,30.5C 7.28668,41.5221 7.45335,52.5221 8.5,63.5C 7.77842,63.0825 7.27842,62.4158 7,61.5C 6.50016,50.8385 6.3335,40.1719 6.5,29.5C 7.92203,28.075 9.5887,27.075 11.5,26.5 Z"/></g>
<g><path style="opacity:1" fill="#e7061d" d="M 111.5,26.5 C 118.833,26.5 126.167,26.5 133.5,26.5C 133.81,37.5813 133.477,48.5813 132.5,59.5C 132.267,62.9089 130.6,65.4089 127.5,67C 119.697,69.6058 114.697,67.1058 112.5,59.5C 111.523,48.5813 111.19,37.5813 111.5,26.5 Z"/></g>
<g><path style="opacity:1" fill="#e6051d" d="M 154.5,26.5 C 161.5,26.5 168.5,26.5 175.5,26.5C 175.5,37.5 175.5,48.5 175.5,59.5C 172.326,67.4699 166.659,69.6366 158.5,66C 156.266,64.3621 154.933,62.1955 154.5,59.5C 154.5,48.5 154.5,37.5 154.5,26.5 Z"/></g>
<g><path style="opacity:1" fill="#e3524d" d="M 11.5,26.5 C 11.5,26.1667 11.5,25.8333 11.5,25.5C 78.5008,25.3333 145.501,25.5 212.5,26C 214.286,26.7845 215.786,27.9512 217,29.5C 217.667,40.1667 217.667,50.8333 217,61.5C 215.924,64.079 214.091,65.7457 211.5,66.5C 211.106,63.1429 212.439,60.8095 215.5,59.5C 216.833,49.8333 216.833,40.1667 215.5,30.5C 214.713,29.7579 214.047,28.9246 213.5,28C 207.888,26.8686 202.221,26.3686 196.5,26.5C 189.5,26.5 182.5,26.5 175.5,26.5C 168.5,26.5 161.5,26.5 154.5,26.5C 147.5,26.5 140.5,26.5 133.5,26.5C 126.167,26.5 118.833,26.5 111.5,26.5C 104.5,26.5 97.5,26.5 90.5,26.5C 83.5,26.5 76.5,26.5 69.5,26.5C 62.5,26.5 55.5,26.5 48.5,26.5C 41.5,26.5 34.5,26.5 27.5,26.5C 22.1667,26.5 16.8333,26.5 11.5,26.5 Z"/></g>
<g><path style="opacity:1" fill="#feb17c" d="M 154.5,59.5 C 154.933,62.1955 156.266,64.3621 158.5,66C 166.659,69.6366 172.326,67.4699 175.5,59.5C 176.819,64.9821 180.319,67.6488 186,67.5C 191.466,67.5222 194.632,64.8556 195.5,59.5C 195.833,59.5 196.167,59.5 196.5,59.5C 198.258,66.2461 202.592,68.9128 209.5,67.5C 208.935,69.9521 208.268,72.2854 207.5,74.5C 207.217,73.7109 206.717,73.0442 206,72.5C 202.446,73.9555 199.279,73.2888 196.5,70.5C 196.709,69.914 197.043,69.414 197.5,69C 195.919,68.2935 194.419,67.4601 193,66.5C 191.174,68.0738 189.007,68.9071 186.5,69C 188.883,70.1971 188.55,71.0305 185.5,71.5C 183.114,71.2187 180.781,71.2187 178.5,71.5C 176.884,70.8848 175.551,69.8848 174.5,68.5C 172.299,70.8329 169.799,71.1662 167,69.5C 164.849,69.7725 162.849,70.4392 161,71.5C 160.691,70.2341 160.191,69.0674 159.5,68C 157.008,66.3904 154.341,65.2237 151.5,64.5C 152.692,62.8869 153.692,61.2202 154.5,59.5 Z"/></g>
<g><path style="opacity:1" fill="#fdb67f" d="M 48.5,59.5 C 49.4185,61.8205 50.7518,63.9871 52.5,66C 60.7167,69.5721 66.7167,67.4054 70.5,59.5C 71.1197,65.4458 74.453,68.1125 80.5,67.5C 85.8776,67.4612 89.2109,64.7946 90.5,59.5C 97.8333,71.5 105.167,71.5 112.5,59.5C 114.697,67.1058 119.697,69.6058 127.5,67C 130.6,65.4089 132.267,62.9089 132.5,59.5C 137.005,68.1171 143.338,69.7838 151.5,64.5C 154.341,65.2237 157.008,66.3904 159.5,68C 160.191,69.0674 160.691,70.2341 161,71.5C 162.849,70.4392 164.849,69.7725 167,69.5C 169.799,71.1662 172.299,70.8329 174.5,68.5C 175.551,69.8848 176.884,70.8848 178.5,71.5C 180.781,71.2187 183.114,71.2187 185.5,71.5C 188.55,71.0305 188.883,70.1971 186.5,69C 189.007,68.9071 191.174,68.0738 193,66.5C 194.419,67.4601 195.919,68.2935 197.5,69C 197.043,69.414 196.709,69.914 196.5,70.5C 199.279,73.2888 202.446,73.9555 206,72.5C 206.717,73.0442 207.217,73.7109 207.5,74.5C 196.828,74.6665 186.161,74.4998 175.5,74C 172.789,72.1952 170.122,72.1952 167.5,74C 116.501,74.5 65.5011,74.6667 14.5,74.5C 14.7845,72.5853 14.4511,70.9187 13.5,69.5C 13.5,68.8333 13.5,68.1667 13.5,67.5C 16.1873,67.6641 18.854,67.4974 21.5,67C 24.0388,65.2791 26.3722,63.4458 28.5,61.5C 29.1175,63.2292 30.1175,64.7292 31.5,66C 39.6101,69.6343 45.2768,67.4677 48.5,59.5 Z"/></g>
<g><path style="opacity:1" fill="#fbc693" d="M 209.5,67.5 C 209.833,67.5 210.167,67.5 210.5,67.5C 210.5,69.8333 210.5,72.1667 210.5,74.5C 144.904,75.4962 79.2378,75.8296 13.5,75.5C 13.5,73.5 13.5,71.5 13.5,69.5C 14.4511,70.9187 14.7845,72.5853 14.5,74.5C 65.5011,74.6667 116.501,74.5 167.5,74C 170.122,72.1952 172.789,72.1952 175.5,74C 186.161,74.4998 196.828,74.6665 207.5,74.5C 208.268,72.2854 208.935,69.9521 209.5,67.5 Z"/></g>
<g><path style="opacity:1" fill="#fde0b2" d="M 210.5,74.5 C 210.5,107.5 210.5,140.5 210.5,173.5C 169.5,173.5 128.5,173.5 87.5,173.5C 87.8314,143.662 87.4981,113.995 86.5,84.5C 77.859,83.1684 68.859,82.5017 59.5,82.5C 50.327,82.5002 41.327,82.8335 32.5,83.5C 31.8333,83.5 31.5,83.8333 31.5,84.5C 30.5019,113.995 30.1686,143.662 30.5,173.5C 24.8333,173.5 19.1667,173.5 13.5,173.5C 13.5,140.833 13.5,108.167 13.5,75.5C 79.2378,75.8296 144.904,75.4962 210.5,74.5 Z"/></g>
<g><path style="opacity:1" fill="#79564f" d="M 32.5,83.5 C 41.327,82.8335 50.327,82.5002 59.5,82.5C 68.859,82.5017 77.859,83.1684 86.5,84.5C 84.2075,84.2436 82.0408,84.5769 80,85.5C 79.5,85 79,84.5 78.5,84C 63.1703,83.5001 47.837,83.3334 32.5,83.5 Z"/></g>
<g><path style="opacity:1" fill="#826161" d="M 199.5,87.5 C 199.5,89.5 199.5,91.5 199.5,93.5C 198.292,92.7659 196.959,92.4326 195.5,92.5C 195.97,90.2723 196.97,88.9389 198.5,88.5C 198.078,86.3368 196.744,85.0034 194.5,84.5C 180.749,83.75 167.083,83.75 153.5,84.5C 152.167,84.8333 150.833,85.1667 149.5,85.5C 151.444,86.8007 153.444,87.8007 155.5,88.5C 146.833,88.5 138.167,88.5 129.5,88.5C 132.962,87.5184 136.629,87.185 140.5,87.5C 140.5,86.5 140.5,85.5 140.5,84.5C 127.855,83.4352 115.188,83.2685 102.5,84C 99.0011,87.2998 98.6677,90.7998 101.5,94.5C 102.792,117.517 102.792,140.517 101.5,163.5C 103.527,163.338 105.527,163.505 107.5,164C 108.056,164.383 108.389,164.883 108.5,165.5C 106.5,165.5 104.5,165.5 102.5,165.5C 101.761,165.631 101.094,165.464 100.5,165C 99.6006,163.348 98.6006,161.848 97.5,160.5C 97.3334,136.164 97.5,111.831 98,87.5C 98.7845,85.714 99.9512,84.214 101.5,83C 133.167,82.3333 164.833,82.3333 196.5,83C 198.141,84.129 199.141,85.629 199.5,87.5 Z"/></g>
<g><path style="opacity:1" fill="#7e5c62" d="M 32.5,83.5 C 47.837,83.3334 63.1703,83.5001 78.5,84C 79,84.5 79.5,85 80,85.5C 82.0408,84.5769 84.2075,84.2436 86.5,84.5C 87.4981,113.995 87.8314,143.662 87.5,173.5C 87.5,179.5 87.5,185.5 87.5,191.5C 68.8333,191.5 50.1667,191.5 31.5,191.5C 31.5,155.833 31.5,120.167 31.5,84.5C 31.5,83.8333 31.8333,83.5 32.5,83.5 Z"/></g>
<g><path style="opacity:1" fill="#58dafb" d="M 38.5,98.5 C 48.5,107.833 58.1667,117.5 67.5,127.5C 58.1607,127.666 48.8274,127.5 39.5,127C 38.5149,117.583 38.1816,108.083 38.5,98.5 Z"/></g>
<g><path style="opacity:1" fill="#5fd8f8" d="M 60.5,89.5 C 66.8421,89.3338 73.1754,89.5005 79.5,90C 80.2524,90.6708 80.5858,91.5041 80.5,92.5C 80.5,98.1667 80.5,103.833 80.5,109.5C 79.5266,109.013 78.5266,108.513 77.5,108C 71.2817,102.25 65.615,96.0838 60.5,89.5 Z"/></g>
<g><path style="opacity:1" fill="#b3f3fd" d="M 60.5,89.5 C 65.615,96.0838 71.2817,102.25 77.5,108C 78.5266,108.513 79.5266,109.013 80.5,109.5C 80.6661,115.176 80.4994,120.843 80,126.5C 79.3292,127.252 78.4959,127.586 77.5,127.5C 74.1667,127.5 70.8333,127.5 67.5,127.5C 58.1667,117.5 48.5,107.833 38.5,98.5C 38.5,96.1667 38.5,93.8333 38.5,91.5C 38.6107,90.8826 38.944,90.3826 39.5,90C 46.4921,89.5004 53.4921,89.3337 60.5,89.5 Z"/></g>
<g><path style="opacity:1" fill="#6f8d9a" d="M 38.5,91.5 C 38.5,93.8333 38.5,96.1667 38.5,98.5C 38.1816,108.083 38.5149,117.583 39.5,127C 48.8274,127.5 58.1607,127.666 67.5,127.5C 70.8333,127.5 74.1667,127.5 77.5,127.5C 77.5,127.833 77.5,128.167 77.5,128.5C 64.1667,128.5 50.8333,128.5 37.5,128.5C 37.1714,115.989 37.5048,103.655 38.5,91.5 Z"/></g>
<g><path style="opacity:1" fill="#606168" d="M 80.5,92.5 C 81.6595,103.993 81.8261,115.659 81,127.5C 79.9887,128.337 78.8221,128.67 77.5,128.5C 77.5,128.167 77.5,127.833 77.5,127.5C 78.4959,127.586 79.3292,127.252 80,126.5C 80.4994,120.843 80.6661,115.176 80.5,109.5C 80.5,103.833 80.5,98.1667 80.5,92.5 Z"/></g>
<g><path style="opacity:1" fill="#615364" d="M 75.5,134.5 C 77.3904,134.297 78.8904,134.963 80,136.5C 80.6667,139.833 80.6667,143.167 80,146.5C 74.5451,149.91 72.3785,148.243 73.5,141.5C 73.6434,138.887 74.3101,136.553 75.5,134.5 Z"/></g>
<g><path style="opacity:1" fill="#7b5f65" d="M 129.5,88.5 C 121.167,88.5 112.833,88.5 104.5,88.5C 104.169,112.339 104.502,136.006 105.5,159.5C 127.167,159.5 148.833,159.5 170.5,159.5C 177.833,159.5 185.167,159.5 192.5,159.5C 192.5,156.833 192.5,154.167 192.5,151.5C 192.5,144.833 192.5,138.167 192.5,131.5C 192.5,126.5 192.5,121.5 192.5,116.5C 192.5,107.5 192.5,98.5 192.5,89.5C 180.345,88.5048 168.011,88.1714 155.5,88.5C 153.444,87.8007 151.444,86.8007 149.5,85.5C 150.833,85.1667 152.167,84.8333 153.5,84.5C 167.083,83.75 180.749,83.75 194.5,84.5C 196.744,85.0034 198.078,86.3368 198.5,88.5C 196.97,88.9389 195.97,90.2723 195.5,92.5C 196.959,92.4326 198.292,92.7659 199.5,93.5C 199.5,94.1667 199.5,94.8333 199.5,95.5C 198.668,116.663 198.168,137.996 198,159.5C 196.731,160.905 196.231,162.571 196.5,164.5C 167.123,164.183 137.789,164.516 108.5,165.5C 108.389,164.883 108.056,164.383 107.5,164C 105.527,163.505 103.527,163.338 101.5,163.5C 102.792,140.517 102.792,117.517 101.5,94.5C 98.6677,90.7998 99.0011,87.2998 102.5,84C 115.188,83.2685 127.855,83.4352 140.5,84.5C 140.5,85.5 140.5,86.5 140.5,87.5C 136.629,87.185 132.962,87.5184 129.5,88.5 Z"/></g>
<g><path style="opacity:1" fill="#6fd4f0" d="M 105.5,94.5 C 109.167,97.5 112.5,100.833 115.5,104.5C 134.167,122.5 152.5,140.833 170.5,159.5C 148.833,159.5 127.167,159.5 105.5,159.5C 105.5,137.833 105.5,116.167 105.5,94.5 Z"/></g>
<g><path style="opacity:1" fill="#5adafa" d="M 130.5,89.5 C 137.5,89.5 144.5,89.5 151.5,89.5C 164.447,104.115 178.114,118.115 192.5,131.5C 192.5,138.167 192.5,144.833 192.5,151.5C 171.5,131.167 150.833,110.5 130.5,89.5 Z"/></g>
<g><path style="opacity:1" fill="#b2f4fd" d="M 130.5,89.5 C 150.833,110.5 171.5,131.167 192.5,151.5C 192.5,154.167 192.5,156.833 192.5,159.5C 185.167,159.5 177.833,159.5 170.5,159.5C 152.5,140.833 134.167,122.5 115.5,104.5C 112.5,100.833 109.167,97.5 105.5,94.5C 105.5,92.8333 105.5,91.1667 105.5,89.5C 113.833,89.5 122.167,89.5 130.5,89.5 Z"/></g>
<g><path style="opacity:1" fill="#7a9ba9" d="M 129.5,88.5 C 138.167,88.5 146.833,88.5 155.5,88.5C 168.011,88.1714 180.345,88.5048 192.5,89.5C 183.5,89.5 174.5,89.5 165.5,89.5C 160.833,89.5 156.167,89.5 151.5,89.5C 144.5,89.5 137.5,89.5 130.5,89.5C 122.167,89.5 113.833,89.5 105.5,89.5C 105.5,91.1667 105.5,92.8333 105.5,94.5C 105.5,116.167 105.5,137.833 105.5,159.5C 104.502,136.006 104.169,112.339 104.5,88.5C 112.833,88.5 121.167,88.5 129.5,88.5 Z"/></g>
<g><path style="opacity:1" fill="#53dbfe" d="M 115.5,104.5 C 116.412,106.595 117.579,108.595 119,110.5C 124.549,115.26 129.883,120.26 135,125.5C 136.694,127.24 137.861,129.24 138.5,131.5C 139.552,131.351 140.552,131.517 141.5,132C 144.484,135.264 147.651,138.43 151,141.5C 152.694,143.24 153.861,145.24 154.5,147.5C 155.552,147.351 156.552,147.517 157.5,148C 160.748,151.316 164.081,154.65 167.5,158C 147.169,158.5 126.836,158.667 106.5,158.5C 106.167,138.489 106.5,118.489 107.5,98.5C 109.692,99.8587 111.359,101.692 112.5,104C 113.448,104.483 114.448,104.649 115.5,104.5 Z"/></g>
<g><path style="opacity:1" fill="#f6fdfd" d="M 151.5,89.5 C 156.167,89.5 160.833,89.5 165.5,89.5C 174.167,98.8333 183.167,107.833 192.5,116.5C 192.5,121.5 192.5,126.5 192.5,131.5C 178.114,118.115 164.447,104.115 151.5,89.5 Z"/></g>
<g><path style="opacity:1" fill="#5dd9f9" d="M 165.5,89.5 C 174.5,89.5 183.5,89.5 192.5,89.5C 192.5,98.5 192.5,107.5 192.5,116.5C 183.167,107.833 174.167,98.8333 165.5,89.5 Z"/></g>
<g><path style="opacity:1" fill="#7e5c57" d="M 199.5,95.5 C 199.667,117.836 199.5,140.169 199,162.5C 198.626,163.416 198.126,164.25 197.5,165C 181.422,166.153 165.255,166.653 149,166.5C 133.33,166.5 117.83,166.167 102.5,165.5C 104.5,165.5 106.5,165.5 108.5,165.5C 137.789,164.516 167.123,164.183 196.5,164.5C 196.231,162.571 196.731,160.905 198,159.5C 198.168,137.996 198.668,116.663 199.5,95.5 Z"/></g>
<g><path style="opacity:1" fill="#efd4b8" d="M 199.5,87.5 C 200.663,112.663 200.83,137.997 200,163.5C 199.535,164.931 198.701,166.097 197.5,167C 164.833,167.667 132.167,167.667 99.5,167C 97.9837,165.103 97.317,162.936 97.5,160.5C 98.6006,161.848 99.6006,163.348 100.5,165C 101.094,165.464 101.761,165.631 102.5,165.5C 117.83,166.167 133.33,166.5 149,166.5C 165.255,166.653 181.422,166.153 197.5,165C 198.126,164.25 198.626,163.416 199,162.5C 199.5,140.169 199.667,117.836 199.5,95.5C 199.5,94.8333 199.5,94.1667 199.5,93.5C 199.5,91.5 199.5,89.5 199.5,87.5 Z"/></g>
<g><path style="opacity:1" fill="#fcb985" d="M 13.5,173.5 C 19.1667,173.5 24.8333,173.5 30.5,173.5C 30.5,179.167 30.5,184.833 30.5,190.5C 24.8333,190.5 19.1667,190.5 13.5,190.5C 13.5,184.833 13.5,179.167 13.5,173.5 Z"/></g>
<g><path style="opacity:1" fill="#f1b586" d="M 87.5,173.5 C 128.5,173.5 169.5,173.5 210.5,173.5C 210.5,179.167 210.5,184.833 210.5,190.5C 214.371,190.185 218.038,190.518 221.5,191.5C 176.833,191.5 132.167,191.5 87.5,191.5C 87.5,185.5 87.5,179.5 87.5,173.5 Z"/></g>
<g><path style="opacity:1" fill="#feb87f" d="M 94.5,174.5 C 132.168,174.333 169.835,174.5 207.5,175C 208.833,179 208.833,183 207.5,187C 167.946,187.204 128.613,187.704 89.5,188.5C 88.5078,184.217 88.1744,179.884 88.5,175.5C 90.7354,175.795 92.7354,175.461 94.5,174.5 Z"/></g>
<g><path style="opacity:1" fill="#cfa68b" d="M 31.5,84.5 C 31.5,120.167 31.5,155.833 31.5,191.5C 21.8333,191.5 12.1667,191.5 2.5,191.5C 5.96192,190.518 9.62859,190.185 13.5,190.5C 19.1667,190.5 24.8333,190.5 30.5,190.5C 30.5,184.833 30.5,179.167 30.5,173.5C 30.1686,143.662 30.5019,113.995 31.5,84.5 Z"/></g>
<g><path style="opacity:1" fill="#625b6e" d="M 2.5,191.5 C 12.1667,191.5 21.8333,191.5 31.5,191.5C 50.1667,191.5 68.8333,191.5 87.5,191.5C 132.167,191.5 176.833,191.5 221.5,191.5C 222.609,191.557 223.609,191.89 224.5,192.5C 224.5,193.833 224.5,195.167 224.5,196.5C 223.711,196.783 223.044,197.283 222.5,198C 148.833,198.667 75.1667,198.667 1.5,198C 0.955796,197.283 0.28913,196.783 -0.5,196.5C -0.5,195.167 -0.5,193.833 -0.5,192.5C 0.391047,191.89 1.39105,191.557 2.5,191.5 Z"/></g>
</svg>
