<?xml version="1.0" encoding="UTF-8"?>
<!DOCTYPE svg PUBLIC "-//W3C//DTD SVG 1.1//EN" "http://www.w3.org/Graphics/SVG/1.1/DTD/svg11.dtd">
<svg xmlns="http://www.w3.org/2000/svg" version="1.1" width="200px" height="200px" style="shape-rendering:geometricPrecision; text-rendering:geometricPrecision; image-rendering:optimizeQuality; fill-rule:evenodd; clip-rule:evenodd" xmlns:xlink="http://www.w3.org/1999/xlink">
<g><path style="opacity:0.984" fill="#000000" d="M 24.5,-0.5 C 65.5,-0.5 106.5,-0.5 147.5,-0.5C 147.783,0.28913 148.283,0.955796 149,1.5C 149.5,9.15943 149.666,16.8261 149.5,24.5C 157.174,24.3336 164.841,24.5003 172.5,25C 173,25.5 173.5,26 174,26.5C 174.667,83.1667 174.667,139.833 174,196.5C 173.302,197.691 172.469,198.691 171.5,199.5C 124.167,199.5 76.8333,199.5 29.5,199.5C 20.3488,195.842 14.5155,189.176 12,179.5C 11.3333,124.167 11.3333,68.8333 12,13.5C 13.9538,6.71998 18.1204,2.05332 24.5,-0.5 Z M 28.5,12.5 C 64.5,12.5 100.5,12.5 136.5,12.5C 136.5,16.5 136.5,20.5 136.5,24.5C 101.165,24.6667 65.8318,24.5 30.5,24C 25.8848,22.923 24.3848,20.0897 26,15.5C 27.045,14.6266 27.8783,13.6266 28.5,12.5 Z M 87.5,62.5 C 116.391,62.2685 132.725,76.4351 136.5,105C 136.175,111.133 134.675,116.967 132,122.5C 122.258,140.822 110.425,157.655 96.5,173C 94.5,173.667 92.5,173.667 90.5,173C 73.1909,155.551 60.0243,135.385 51,112.5C 49.26,85.6366 61.4267,68.97 87.5,62.5 Z"/></g>
<g><path style="opacity:0.94" fill="#000000" d="M 88.5,86.5 C 105.314,85.8129 113.147,93.8129 112,110.5C 107.753,122.702 99.2529,127.202 86.5,124C 74.796,118.076 71.296,108.909 76,96.5C 78.8871,91.4341 83.0537,88.1008 88.5,86.5 Z"/></g>
</svg>
