<?xml version="1.0" encoding="UTF-8"?>
<!DOCTYPE svg PUBLIC "-//W3C//DTD SVG 1.1//EN" "http://www.w3.org/Graphics/SVG/1.1/DTD/svg11.dtd">
<svg xmlns="http://www.w3.org/2000/svg" version="1.1" width="200px" height="200px" style="shape-rendering:geometricPrecision; text-rendering:geometricPrecision; image-rendering:optimizeQuality; fill-rule:evenodd; clip-rule:evenodd" xmlns:xlink="http://www.w3.org/1999/xlink">
<g><path style="opacity:0.933" fill="#000000" d="M 94.5,7.5 C 123.007,7.19928 142.507,20.1993 153,46.5C 159.89,51.2763 163.39,57.9429 163.5,66.5C 163.068,71.8286 161.568,76.8286 159,81.5C 152.512,88.3954 146.512,88.0621 141,80.5C 137.518,87.9461 132.685,94.4461 126.5,100C 161.813,120.121 177.48,150.621 173.5,191.5C 124.167,191.5 74.8333,191.5 25.5,191.5C 22.2478,160.416 31.5812,133.916 53.5,112C 59.3599,107.237 65.6933,103.237 72.5,100C 69.7047,98.2068 67.2047,96.0402 65,93.5C 62.0825,89.3339 59.4159,85.0006 57,80.5C 51.4876,88.0621 45.4876,88.3954 39,81.5C 33.0063,71.4795 33.0063,61.4795 39,51.5C 40.708,49.4565 42.708,47.7899 45,46.5C 53.9569,23.788 70.4569,10.788 94.5,7.5 Z M 93.5,15.5 C 116.755,14.8712 133.588,24.8712 144,45.5C 144.449,48.0937 143.449,50.0937 141,51.5C 130.476,26.8196 111.976,17.3196 85.5,23C 71.3333,27.8333 61.8333,37.3333 57,51.5C 54.5507,50.0937 53.5507,48.0937 54,45.5C 62.1857,28.7997 75.3523,18.7997 93.5,15.5 Z M 94.5,35.5 C 117.477,35.9754 128.644,47.642 128,70.5C 120.639,92.2621 106.139,99.0954 84.5,91C 82.6508,89.907 80.9842,88.5737 79.5,87C 82.833,86.8859 86.1663,87.2192 89.5,88C 92.7661,93.1666 97.4328,94.8333 103.5,93C 109.39,89.2198 110.89,84.0531 108,77.5C 104.257,73.7406 99.7566,72.5739 94.5,74C 92.1667,75 90.5,76.6667 89.5,79C 83.6791,79.1313 78.0124,78.1313 72.5,76C 66.5473,55.411 73.8806,41.911 94.5,35.5 Z M 98.5,80.5 C 102.184,82.2033 102.351,84.2033 99,86.5C 95.8981,84.6627 95.7314,82.6627 98.5,80.5 Z M 96.5,108.5 C 130.284,111.775 150.784,130.109 158,163.5C 158.829,168.137 159.329,172.804 159.5,177.5C 119.167,177.5 78.8333,177.5 38.5,177.5C 39.3398,151.981 50.0065,131.814 70.5,117C 78.7389,112.419 87.4056,109.586 96.5,108.5 Z"/></g>
</svg>
