<?xml version="1.0" encoding="utf-8"?>
<svg viewBox="6.486 1.356 89.781 92.857" xmlns="http://www.w3.org/2000/svg">
  <path d="m68 30.207c-8.625 0-15.625 7-15.625 15.625s7 15.625 15.625 15.625 15.625-7 15.625-15.625-7-15.625-15.625-15.625zm8.082 19.293c1.25 1.25 1.25 3.207 0 4.457-0.58203 0.58203-1.418 0.91797-2.207 0.91797-0.79297 0-1.582-0.33203-2.207-0.91797l-3.668-3.707-3.707 3.668c-0.58203 0.625-1.375 0.91797-2.207 0.91797-0.83203 0-1.582-0.29297-2.207-0.91797-1.207-1.207-1.207-3.168 0-4.418l3.707-3.668-3.707-3.668c-1.207-1.25-1.207-3.207 0-4.457 1.25-1.207 3.207-1.207 4.418 0l3.707 3.707 3.668-3.668c1.25-1.25 3.207-1.25 4.418 0 1.25 1.207 1.25 3.168 0 4.418l-3.668 3.668 3.668 3.668z" transform="matrix(0.9999999999999999, 0, 0, 0.9999999999999999, 0, 0)"/>
  <path d="m81.168 23.832c-0.83203 1.207-1.375 2.082-1.918 2.957-0.042969 0.082032-0.125 0.20703-0.16797 0.29297-3.25-1.918-7.043-3.125-11.082-3.125-12.082 0-21.875 9.832-21.875 21.875 0 6.918 3.293 13.043 8.332 17.043v16.293c0 2.875-2.332 5.207-5.207 5.207s-5.207-2.332-5.207-5.207v-16.668c0-0.66797-0.20703-1.293-0.58203-1.793l-26.129-36.875c-1.125-1.582-1.25-3.668-0.375-5.375 0.91797-1.75 2.668-2.832 4.625-2.832h55.332c1.957 0 3.707 1.082 4.625 2.832 0.875 1.707 0.75 3.793-0.375 5.375z" transform="matrix(0.9999999999999999, 0, 0, 0.9999999999999999, 0, 0)"/>
</svg>