<?xml version="1.0" standalone="no"?>
<!DOCTYPE svg PUBLIC "-//W3C//DTD SVG 20010904//EN"
 "http://www.w3.org/TR/2001/REC-SVG-20010904/DTD/svg10.dtd">
<svg version="1.0" xmlns="http://www.w3.org/2000/svg"
 width="200.000000pt" height="200.000000pt" viewBox="0 0 200.000000 200.000000"
 preserveAspectRatio="xMidYMid meet">

<g transform="translate(0.000000,200.000000) scale(0.100000,-0.100000)"
fill="#000000" stroke="none">
<path d="M280 1847 c-14 -7 -33 -28 -42 -47 -17 -32 -18 -92 -18 -805 0 -752
1 -771 20 -803 11 -18 32 -37 46 -42 15 -6 199 -10 452 -10 545 0 500 -20 505
220 l2 135 176 5 c175 5 176 5 213 34 45 34 75 95 76 153 0 63 -7 73 -51 73
l-39 0 0 79 0 79 30 5 c16 4 47 24 68 45 94 94 66 250 -54 304 l-44 19 0 133
c0 161 -7 177 -67 157 -30 -10 -45 -10 -61 -2 -28 15 -63 13 -86 -4 -17 -13
-23 -13 -44 1 -23 15 -48 15 -99 -1 -23 -7 -23 -7 -23 104 0 62 -5 121 -10
132 -26 48 -40 49 -497 49 -322 0 -434 -3 -453 -13z m894 -63 c12 -12 16 -37
16 -102 l0 -87 -38 -16 c-33 -14 -42 -14 -57 -3 -24 18 -66 18 -90 0 -16 -12
-24 -11 -52 2 -28 13 -39 14 -68 3 -28 -10 -42 -10 -69 0 -70 25 -67 44 -64
-490 l3 -476 23 -38 c40 -63 66 -71 247 -77 l160 -5 3 -132 c2 -109 0 -134
-13 -147 -15 -14 -65 -16 -444 -16 -319 0 -430 3 -439 12 -17 17 -17 1559 0
1576 9 9 120 12 439 12 375 0 429 -2 443 -16z m-201 -271 c16 -3 40 0 53 7 20
11 28 11 48 0 15 -8 37 -10 58 -6 18 4 43 7 56 6 12 0 40 -1 62 -1 22 0 50 1
63 1 12 1 37 -2 55 -6 21 -4 43 -2 58 6 18 10 30 11 49 2 14 -7 39 -12 55 -12
l30 0 0 -109 0 -109 -30 -11 c-119 -41 -168 -177 -102 -282 28 -43 48 -58 105
-79 26 -9 27 -12 27 -85 l0 -75 -264 0 c-298 0 -276 7 -276 -87 0 -47 -4 -59
-29 -84 -24 -23 -38 -29 -73 -29 -46 1 -64 10 -91 50 -15 22 -17 66 -17 462
l0 438 33 0 c17 0 39 5 47 10 8 6 24 8 35 4 11 -3 33 -8 48 -11z m685 -303
c34 -21 62 -71 62 -111 0 -11 -8 -37 -17 -56 -36 -76 -134 -97 -197 -43 -50
44 -63 90 -41 147 30 78 120 107 193 63z m-8 -535 c0 -35 -24 -79 -54 -99 -22
-14 -61 -16 -285 -16 l-260 0 15 35 c7 19 14 50 14 70 l0 35 285 0 285 0 0
-25z"/>
<path d="M545 1694 c-25 -25 -1 -46 49 -42 31 2 42 8 44 22 7 36 -62 51 -93
20z"/>
<path d="M702 1701 c-8 -5 -12 -17 -10 -27 3 -17 15 -19 124 -22 106 -2 122 0
128 14 13 35 -12 44 -123 44 -58 0 -112 -4 -119 -9z"/>
<path d="M583 414 c-23 -23 -25 -31 -21 -95 5 -100 11 -104 154 -104 110 0
117 1 135 24 14 18 19 39 19 90 0 58 -3 71 -23 89 -21 20 -34 22 -131 22 -101
0 -108 -1 -133 -26z m227 -89 l0 -55 -95 0 -95 0 0 55 0 55 95 0 95 0 0 -55z"/>
<path d="M872 1431 c-8 -5 -12 -17 -10 -27 3 -18 17 -19 263 -19 246 0 260 1
263 19 2 10 -2 22 -10 27 -7 5 -121 9 -253 9 -132 0 -246 -4 -253 -9z"/>
<path d="M872 1241 c-8 -5 -12 -17 -10 -27 3 -18 17 -19 263 -19 246 0 260 1
263 19 2 10 -2 22 -10 27 -17 11 -489 11 -506 0z"/>
<path d="M872 1051 c-8 -5 -12 -17 -10 -27 3 -18 17 -19 263 -19 246 0 260 1
263 19 2 10 -2 22 -10 27 -17 11 -489 11 -506 0z"/>
<path d="M1600 1142 c-33 -49 -33 -49 -53 -29 -17 17 -21 18 -35 3 -14 -14
-14 -20 4 -63 11 -26 27 -49 36 -51 19 -4 130 145 126 168 -2 8 -12 16 -24 18
-15 2 -29 -10 -54 -46z"/>
</g>
</svg>
