<?xml version="1.0" encoding="UTF-8"?>
<!DOCTYPE svg PUBLIC "-//W3C//DTD SVG 1.1//EN" "http://www.w3.org/Graphics/SVG/1.1/DTD/svg11.dtd">
<svg xmlns="http://www.w3.org/2000/svg" version="1.1" width="200px" height="200px" style="shape-rendering:geometricPrecision; text-rendering:geometricPrecision; image-rendering:optimizeQuality; fill-rule:evenodd; clip-rule:evenodd" xmlns:xlink="http://www.w3.org/1999/xlink">
<g><path style="opacity:0.922" fill="#000000" d="M 85.5,-0.5 C 94.8333,-0.5 104.167,-0.5 113.5,-0.5C 161.167,9.16667 189.833,37.8333 199.5,85.5C 199.5,94.8333 199.5,104.167 199.5,113.5C 189.833,161.167 161.167,189.833 113.5,199.5C 104.167,199.5 94.8333,199.5 85.5,199.5C 37.8333,189.833 9.16667,161.167 -0.5,113.5C -0.5,104.167 -0.5,94.8333 -0.5,85.5C 9.16667,37.8333 37.8333,9.16667 85.5,-0.5 Z M 98.5,13.5 C 144.956,16.789 173.456,41.1223 184,86.5C 187.944,122.102 175.444,150.269 146.5,171C 123.697,185.075 99.3635,188.408 73.5,181C 36.0818,166.737 16.0818,139.57 13.5,99.5C 16.638,55.7069 39.3047,27.8735 81.5,16C 87.3029,15.1088 92.9696,14.2754 98.5,13.5 Z"/></g>
<g><path style="opacity:0.925" fill="#000000" d="M 92.5,49.5 C 101.978,48.4825 110.978,49.9825 119.5,54C 130.579,64.2244 132.746,76.0577 126,89.5C 120.333,94.1667 114.667,98.8333 109,103.5C 107.184,108.025 105.85,112.691 105,117.5C 100.351,122.406 95.3509,122.74 90,118.5C 87.4264,110.399 88.4264,102.733 93,95.5C 98.1426,90.2682 103.476,85.2682 109,80.5C 112.345,74.5335 110.845,70.0335 104.5,67C 95.3148,65.7594 88.3148,69.0927 83.5,77C 71.4303,79.9287 67.2637,75.4287 71,63.5C 76.4787,56.1812 83.6453,51.5145 92.5,49.5 Z"/></g>
<g><path style="opacity:0.902" fill="#000000" d="M 92.5,128.5 C 107.04,128.406 111.04,134.906 104.5,148C 91.0836,152.9 85.2503,148.4 87,134.5C 88.3597,131.977 90.193,129.977 92.5,128.5 Z"/></g>
</svg>
