<?xml version="1.0" standalone="no"?>
<!DOCTYPE svg PUBLIC "-//W3C//DTD SVG 20010904//EN"
 "http://www.w3.org/TR/2001/REC-SVG-20010904/DTD/svg10.dtd">
<svg version="1.0" xmlns="http://www.w3.org/2000/svg"
 width="200.000000pt" height="200.000000pt" viewBox="0 0 200.000000 200.000000"
 preserveAspectRatio="xMidYMid meet">

<g transform="translate(0.000000,200.000000) scale(0.100000,-0.100000)"
fill="#000000" stroke="none">
<path d="M538 1409 c-469 -375 -471 -377 -413 -415 23 -15 27 -15 51 1 14 9
204 158 421 332 217 173 400 312 407 310 6 -2 191 -148 411 -324 221 -175 406
-323 413 -327 35 -21 81 28 62 65 -18 33 -872 709 -895 709 -11 -1 -217 -158
-457 -351z"/>
<path d="M397 1022 c-15 -17 -17 -57 -17 -370 0 -342 1 -353 21 -373 19 -19
29 -20 215 -17 160 2 196 6 204 18 5 8 10 92 10 185 0 94 5 188 11 210 23 81
111 134 193 115 48 -11 103 -63 116 -110 5 -19 10 -115 10 -212 0 -171 1 -177
22 -192 33 -23 373 -23 406 0 l22 15 0 358 c0 334 -1 359 -18 374 -24 22 -45
21 -65 -1 -15 -17 -17 -55 -17 -340 l0 -322 -125 0 -125 0 0 148 c0 184 -13
234 -77 303 -54 57 -116 84 -193 83 -68 -1 -115 -21 -168 -69 -75 -67 -86
-106 -90 -298 l-4 -168 -122 3 -121 3 -5 328 c-4 277 -7 329 -20 337 -23 15
-45 12 -63 -8z"/>
</g>
</svg>
