<?xml version="1.0" encoding="UTF-8"?>
<!DOCTYPE svg PUBLIC "-//W3C//DTD SVG 1.1//EN" "http://www.w3.org/Graphics/SVG/1.1/DTD/svg11.dtd">
<svg xmlns="http://www.w3.org/2000/svg" version="1.1" width="512px" height="512px" style="shape-rendering:geometricPrecision; text-rendering:geometricPrecision; image-rendering:optimizeQuality; fill-rule:evenodd; clip-rule:evenodd" xmlns:xlink="http://www.w3.org/1999/xlink">
<g><path style="opacity:0.966" fill="#000000" d="M 74.5,16.5 C 140.537,16.0174 206.537,16.5174 272.5,18C 295.55,24.2169 311.55,38.3835 320.5,60.5C 353.162,61.3332 385.828,61.8332 418.5,62C 455.755,68.9195 480.255,90.4195 492,126.5C 493.385,131.761 494.385,137.094 495,142.5C 495.667,233.167 495.667,323.833 495,414.5C 487.583,460.25 461.083,487.084 415.5,495C 353.833,495.667 292.167,495.667 230.5,495C 220.295,490.669 217.795,483.503 223,473.5C 224.731,471.383 226.898,469.883 229.5,469C 290.833,468.667 352.167,468.333 413.5,468C 442.019,462.481 459.853,445.647 467,417.5C 468.46,382.202 468.96,346.868 468.5,311.5C 406.796,311.981 345.129,311.481 283.5,310C 260.937,303.436 247.437,288.603 243,265.5C 240.044,233.16 253.877,211.993 284.5,202C 345.801,200.523 407.135,200.023 468.5,200.5C 468.667,182.497 468.5,164.497 468,146.5C 463.672,118.515 448.172,100.015 421.5,91C 312.535,89.3438 203.535,89.0105 94.5,90C 66.8074,97.0264 49.9741,114.526 44,142.5C 43.3333,233.167 43.3333,323.833 44,414.5C 49.5801,441.856 65.7467,459.356 92.5,467C 104.197,467.923 115.864,468.923 127.5,470C 134.373,475.28 135.873,481.78 132,489.5C 130.039,492.135 127.539,493.969 124.5,495C 77.8087,500.245 43.9754,482.078 23,440.5C 20.1841,433.386 18.1841,426.053 17,418.5C 16.3333,304.167 16.3333,189.833 17,75.5C 23.9378,43.7308 43.1044,24.0641 74.5,16.5 Z M 77.5,43.5 C 139.501,43.3333 201.501,43.5 263.5,44C 274.926,46.4362 283.926,52.4362 290.5,62C 224.167,62.3333 157.833,62.6667 91.5,63C 73.2891,66.1891 57.4558,74.0224 44,86.5C 45.2128,64.4497 56.3795,50.1163 77.5,43.5 Z M 293.5,227.5 C 351.833,227.5 410.167,227.5 468.5,227.5C 468.5,246.5 468.5,265.5 468.5,284.5C 409.499,284.667 350.499,284.5 291.5,284C 273.315,277.801 266.481,265.301 271,246.5C 275.149,236.033 282.649,229.7 293.5,227.5 Z"/></g>
<g><path style="opacity:0.916" fill="#000000" d="M 305.5,240.5 C 318.204,240.544 323.371,246.878 321,259.5C 316.983,266.138 311.15,268.304 303.5,266C 296.862,261.983 294.696,256.15 297,248.5C 299.098,244.897 301.932,242.23 305.5,240.5 Z"/></g>
</svg>
