<?xml version="1.0" encoding="iso-8859-1"?>
<!-- Uploaded to: SVG Repo, www.svgrepo.com, Generator: SVG Repo Mixer Tools -->
<svg height="800px" width="800px" version="1.1" id="Layer_1" xmlns="http://www.w3.org/2000/svg" xmlns:xlink="http://www.w3.org/1999/xlink" 
	 viewBox="0 0 508 508" xml:space="preserve">
<g>
	<path style="fill:#FFC52F;" d="M242.4,49.2c0.4,0,1.2,0,1.6,0C243.6,49.2,242.8,49.2,242.4,49.2z"/>
	<path style="fill:#FFC52F;" d="M251.2,48.4c2.8,0,6-0.4,8.8-0.4C257.2,48.4,254,48.4,251.2,48.4z"/>
	<path style="fill:#FFC52F;" d="M260,48.4c2.8,0,6,0,8.8,0.4C266,48.4,263.2,48.4,260,48.4z"/>
	<path style="fill:#FFC52F;" d="M274,48.8c1.2,0,2.4,0,3.6,0.4C276.4,49.2,275.2,48.8,274,48.8z"/>
	<path style="fill:#FFC52F;" d="M285.2,50c0.4,0,0.8,0,1.2,0C286,50,285.6,50,285.2,50z"/>
	<path style="fill:#FFC52F;" d="M78,394h358.8l1.6-163.2c-1.2-86-73.2-168.4-156-181.2c-0.4,0-0.8,0-1.2,0c-2.4-0.4-5.2-0.4-7.6-0.8
		c-1.2,0-2.4,0-3.6-0.4c-1.6,0-3.2-0.4-5.2-0.4c-2.8,0-6-0.4-8.8-0.4c-3.2,0-6,0-8.8,0.4c-2.4,0-4.8,0.4-7.2,0.4c-0.4,0-1.2,0-2,0
		C150.8,58,78,140,78,230C78,230.8,78,394,78,394z"/>
</g>
<path style="fill:#EFDC81;" d="M63.6,394C56,394,46,400.8,46,408.4v36c0,7.6,10,10,17.6,10H456c7.6,0,10-6.4,10-14v-31.6
	c0-8-2.4-14.4-10-14.4H63.6V394z"/>
<path style="fill:#EF934A;" d="M260,500.4c24,0,44-18.4,46-42.4h-92C216,482,236,500.4,260,500.4z"/>
<path style="fill:#FFC52F;" d="M214,458h92l0.4-4H214V458z"/>
<path style="fill:#EF934A;" d="M260,6c-10,0-18,8-18,18s8,18,18,18s18-8,18-18S270,6,260,6z"/>
<path d="M451.2,462H63.6c-12.8,0-25.6-6.8-25.6-22v-31.6c0-8.4,4.4-18.4,25.6-18.4H354c2.4,0,4,1.6,4,4s-1.6,4-4,4H63.6
	C46,398,46,405.2,46,408.4V440c0,13.6,14.8,14,17.6,14h387.6c9.6,0,10.8-4,10.8-8v-37.6c0-7.6-1.6-10.4-10.4-10.4H390l0,0
	c-2.4,0-4-1.6-4-4s1.6-4,4-4l61.6-0.4C468,390,470,399.6,470,408v37.6C470,456,463.2,462,451.2,462z"/>
<path d="M454,398c-11.2,0-24-12-24-22V222c-4-96-79.6-171.6-172.4-171.6C162.8,50.4,86,127.6,86,222v154.4
	c0,10.8-11.2,21.6-22.4,21.6c-2.4,0-4-1.6-4-4s1.6-4,4-4c6.8,0,14.4-7.2,14.4-13.6V222c0-99.2,80.8-179.6,179.6-179.6
	c96.8,0,176,78.8,180.4,179.6v154.4c0,5.6,9.6,14,16,14c2.4,0,4,1.6,4,4S456.4,398,454,398z"/>
<path d="M260,508c-28,0-50.8-22-52-50c0-2.4,1.6-4,4-4c2.4-0.4,4,1.6,4,4c0.8,23.6,20.4,42.4,44,42.4s43.2-18.4,44-42.4
	c0-2.4,2-4,4-4c2.4,0,4,2,4,4C311.2,486,288,508,260,508z"/>
<path d="M260,48c-13.2,0-24-10.8-24-24s10.8-24,24-24s24,10.8,24,24S273.2,48,260,48z M260,8c-8.8,0-16,7.2-16,16s7.2,16,16,16
	s16-7.2,16-16S268.8,8,260,8z"/>
<path d="M124,223.6c-2.4,0-4-1.6-4-4c0-77.2,62.8-140,140-140c2.4,0,4,1.6,4,4s-1.6,4-4,4c-72.8,0-132,59.2-132,132
	C128,222,126,223.6,124,223.6z"/>
</svg>