<?xml version="1.0" encoding="utf-8"?>
<svg viewBox="0.858 4.41 61.698 52.627" xmlns="http://www.w3.org/2000/svg">
  <g>
    <path d="M27,30H49a.99974.99974,0,0,0,1-1V13a.99974.99974,0,0,0-1-1H27a.99974.99974,0,0,0-1,1V29A.99974.99974,0,0,0,27,30Zm1-2V14.68463l9.521,5.1933a1.00084,1.00084,0,0,0,.958,0L48,14.68463V28Zm2.92157-14H45.07843L38,17.86133ZM53,40H34V37a3.00328,3.00328,0,0,0-3-3H18V29a.99974.99974,0,0,0-1-1H9a.99974.99974,0,0,0-1,1V51a.99974.99974,0,0,0,1,1h8a.99974.99974,0,0,0,1-1V48H53a3.00328,3.00328,0,0,0,3-3V43A3.00328,3.00328,0,0,0,53,40ZM16,50H10V30h6Zm38-5a1.001,1.001,0,0,1-1,1H18V36H31a1.001,1.001,0,0,1,1,1v3H27a1,1,0,0,0,0,2H53a1.001,1.001,0,0,1,1,1ZM14,37V47a1,1,0,0,1-2,0V37a1,1,0,0,1,2,0Zm0-4a1,1,0,1,1-1-1A1,1,0,0,1,14,33Z"/>
  </g>
</svg>