<?xml version="1.0" encoding="utf-8"?>
<svg viewBox="-0.839 1.188 69.064 65.877" style="enable-background:new 0 0 68 68;" xmlns="http://www.w3.org/2000/svg">
  <g>
    <g>
      <path d="M7.7851706,49.1304893c-0.5,0-0.9916992-0.3955078-1.0708008-0.8930664    c-0.0874023-0.5454102,0.3364258-1.128418,0.8818359-1.215332c0.5463867-0.0849609,1.128418,0.3359375,1.2148438,0.8818359    c0.0874023,0.5454102-0.3359375,1.1279297-0.8813477,1.2148438C7.8818502,49.1265831,7.8335104,49.1304893,7.7851706,49.1304893z"/>
    </g>
    <g>
      <path d="M25.7534332,50.7320518c-0.5507813,0-0.9980469-0.4453125-1-0.996582    c-0.0019531-0.5522461,0.4443359-1.0014648,0.996582-1.003418l11.5053711-0.0341797    c0.449707-0.0004883,0.8813477-0.1713867,1.2163086-0.480957c0.3120117-0.2739258,0.5307617-0.6376953,0.6352539-1.0429688    c0.0458984-0.1777344,0.0673828-0.3706055,0.0644531-0.5727539c-0.0058594-1.175293-0.8657227-2.1201172-1.9179688-2.1201172    c-0.0024414,0-0.0048828,0-0.0073242,0l-6.3378906,0.0126953c-1.1875,0.0273438-2.3901367-0.1445313-3.5444336-0.4428711    c-0.5395508-0.1391602-1.0263672-0.2978516-1.4868164-0.4858398c-1.0180664-0.3740234-2.0092773-0.8803711-2.9155273-1.4921875    c-2.0566406-1.3652344-4.4326172-2.0678711-6.8359375-2.0683594l-3.6435556,0.0043945c0,0-0.0004883,0-0.0009766,0    c-0.5517578,0-0.9995117-0.4467773-1-0.9990234s0.4462891-1.0004883,0.9990234-1.0009766l3.6386728-0.0043945    c0.0263672,0,0.0537109,0,0.0805664,0c2.7792969,0,5.5019531,0.8310547,7.875,2.4067383    c0.7792969,0.5258789,1.6269531,0.9584961,2.5258789,1.2895508c0.4082031,0.1660156,0.8105469,0.296875,1.2631836,0.4135742    c0.9897461,0.2558594,2.0385742,0.3813477,3.0395508,0.3793945l6.3369141-0.0126953c0.0053711,0,0.0107422,0,0.015625,0    c2.1484375,0,3.9042969,1.8354492,3.9160156,4.1000977c0.0053711,0.3706055-0.0375977,0.7416992-0.1279297,1.0927734    c-0.2041016,0.7910156-0.6425781,1.512207-1.234375,2.0297852c-0.6850586,0.6333008-1.5976563,0.9926758-2.5493164,0.9941406    l-11.5029297,0.0341797C25.7558746,50.7320518,25.7544098,50.7320518,25.7534332,50.7320518z"/>
    </g>
    <g>
      <path d="M28.9233551,62.9581261c-2.3803711,0.0004883-4.7495117-0.6289063-6.9155273-1.8720703l-1.9677734-1.1459961    c-1.8276367-1.0444336-3.8881836-1.5986328-5.9521494-1.5986328c-0.0043945,0-0.0083008,0-0.0126953,0l-1.5551758-0.0019531    c-0.5522461-0.0004883-0.9990234-0.4492188-0.9985352-1.0014648c0.0004883-0.5517578,0.4482422-0.9985352,1-0.9985352    c0.0004883,0,0.0009766,0,0.0014648,0l1.5527344,0.0019531c0.0048828,0,0.0092773,0,0.0141602,0    c2.4091806,0,4.8129892,0.6450195,6.949708,1.8662109l1.9692383,1.1469727    c2.956543,1.6967773,6.3598633,2.0585938,9.5776367,1.0117188c4.9584961-1.3393555,9.8232422-3.0063477,14.5063477-4.9692383    c3.4160156-1.4316406,6.8017578-3.0483398,10.0634766-4.8056641c0.4389648-0.1904297,1.6220703-0.7807617,1.9545898-2.0698242    c0.1645508-0.6396484,0.1264648-1.2998047-0.1103516-1.9082031c-0.5405273-1.3833008-1.980957-2.0913086-3.2827148-1.609375    l-0.5332031,0.1625977c-2.0849609,0.746582-4.2626953,1.4741211-6.4243164,2.1459961    c-3.0859375,0.9594727-6.2387695,1.8374023-9.3706055,2.609375l-0.2675781-0.9648438l-0.2060547-0.9785156    c3.0883789-0.7612305,6.2021484-1.628418,9.2504883-2.5761719c2.1352539-0.6635742,4.2861328-1.3818359,6.3930664-2.1352539    l0.5229492-0.1586838c2.2758789-0.8418045,4.8398438,0.3686447,5.78125,2.7783127    c0.3901367,1.0019531,0.4536133,2.0854492,0.1835938,3.1333008c-0.5615234,2.1782227-2.4589844,3.1318359-3.0273438,3.3725586    c-3.2338867,1.7470703-6.6787109,3.3920898-10.1538086,4.8491211c-4.7651367,1.9970703-9.7143555,3.6928711-14.7099609,5.0410156    C31.7685699,62.734005,30.3437653,62.9581261,28.9233551,62.9581261z"/>
    </g>
    <g>
      <path d="M3.0000143,60.9342003c-0.2646484,0-0.519043-0.1049805-0.706543-0.2919922    c-0.1879883-0.1875-0.293457-0.4423828-0.293457-0.7080078V36.2071495c0-0.2675781,0.1074219-0.5239258,0.2978516-0.7119141    c0.1899414-0.1875,0.4511719-0.2734375,0.7158172-0.2880859l6.5952177,0.0908203c0.003418,0,0.0068359,0,0.0102539,0    c1.0175781,0,1.9897461,0.4013672,2.7226563,1.1313477c0.7358398,0.7319336,1.1416016,1.706543,1.144043,2.7441406    l0.0400391,17.8525391c0.0024414,1.0375977-0.3994141,2.0141602-1.1313477,2.7490234    c-0.7319336,0.7353516-1.706543,1.1416016-2.7441406,1.144043l-6.6479492,0.0151367    C3.0014791,60.9342003,3.0009909,60.9342003,3.0000143,60.9342003z M4.0000143,37.2208214v21.7109375l5.6459961-0.0126953    c0.503418-0.0009766,0.9760742-0.1982422,1.3310547-0.5546875c0.3549805-0.3569336,0.5498047-0.8305664,0.5488281-1.3339844    l-0.0400391-17.8525391c-0.0009766-0.503418-0.1982422-0.9760742-0.5546875-1.3310547    c-0.3554688-0.3540039-0.8271484-0.5488281-1.3286133-0.5488281c-0.0014648,0-0.003418,0-0.0048828,0L4.0000143,37.2208214z"/>
    </g>
    <g>
      <path d="M48.7153473,15.3770695c-0.2509766,0-0.4985352-0.0947266-0.6875-0.2739258L39.2285309,6.767695    c-0.3071289-0.2910156-0.3979492-0.7431641-0.2270508-1.1303711c0.1704102-0.3867188,0.5678711-0.6235352,0.9882813-0.5927734    l25.0839844,1.8525391c0.4643555,0.0341797,0.84375,0.3847656,0.9145508,0.8452148    c0.0708008,0.4604487-0.1855469,0.9086909-0.6186523,1.0810542l-16.284668,6.4829102    C48.9653473,15.353632,48.839859,15.3770695,48.7153473,15.3770695z M42.6411285,7.2457223l6.2978516,5.9658198    l11.6557617-4.6401367L42.6411285,7.2457223z"/>
    </g>
    <g>
      <path d="M48.0517731,27.4791203c-0.1298828,0-0.2612305-0.0253906-0.3862305-0.0776367    c-0.3901367-0.1635742-0.6347656-0.5546875-0.6118164-0.9770508l0.6630859-12.1020508    c0.0214844-0.3891602,0.2666016-0.7304688,0.6289063-0.8745117l16.284668-6.4829097    c0.4326172-0.1713867,0.9277344-0.0224609,1.1918945,0.3603516c0.2651367,0.3833008,0.2304688,0.898437-0.0834961,1.2426753    L48.7910309,27.1529484C48.5976715,27.3653507,48.327652,27.4791203,48.0517731,27.4791203z M49.6787262,15.0699406    l-0.4746094,8.6616211l12.1303711-13.3017578L49.6787262,15.0699406z"/>
    </g>
    <g>
      <path d="M22.930191,39.0938683c-0.1103516,0-0.222168-0.0185547-0.3320313-0.0571289    c-0.5209961-0.1835938-0.7944336-0.7543945-0.6113281-1.2753906c0.4624023-1.3139648,1.2490234-2.5117188,2.2744141-3.4633789    c0.4038086-0.3759766,1.0361328-0.3530273,1.4130859,0.0527344c0.3759766,0.4047852,0.3520508,1.0371094-0.0527344,1.4130859    c-0.7885742,0.7319336-1.3930664,1.6523438-1.7480469,2.6616211C23.7290192,38.836544,23.3427887,39.0938683,22.930191,39.0938683    z M28.1435699,34.2545128c-0.440918,0-0.8447266-0.2939453-0.9648438-0.7402344    c-0.144043-0.5332031,0.1713867-1.0820313,0.7050781-1.2255859c0.730957-0.1972656,1.4887695-0.2973652,2.2529297-0.2973652    h1.6835938c0.5522461,0,1,0.4477558,1,1.0000019s-0.4477539,1-1,1H30.136734    c-0.5883789,0-1.1708984,0.0766602-1.7324219,0.2280273C28.3173981,34.242794,28.2295074,34.2545128,28.1435699,34.2545128z     M36.7949371,33.9913292h-1.2744141c-0.5522461,0-1-0.4477539-1-1s0.4477539-1.0000019,1-1.0000019h1.2739258    c0.6635742-0.0004883,1.2973633-0.1518555,1.8833008-0.449707c0.4941406-0.2514648,1.0947266-0.0537109,1.3447266,0.4375    c0.2504883,0.4926777,0.0546875,1.0947285-0.4375,1.3447285C38.7275543,33.7598839,37.7631989,33.9908409,36.7949371,33.9913292z     M41.5796051,30.7667179c-0.125,0-0.2519531-0.0239258-0.375-0.0737305    c-0.5117188-0.2070313-0.7587891-0.7900391-0.5512695-1.3022461c0.2006836-0.4956055,0.3022461-1.0205078,0.3022461-1.5605469    c0-0.4663086-0.0761719-0.9233398-0.2260742-1.3579102c-0.1801758-0.5219727,0.097168-1.0913086,0.6191406-1.2714844    c0.5234375-0.1796875,1.0913086,0.0976563,1.2714844,0.6191406c0.2226563,0.6450195,0.3354492,1.3212891,0.3354492,2.0102539    c0,0.7983398-0.1508789,1.5761719-0.4487305,2.3115234C42.3496246,30.5303898,41.9751129,30.7667179,41.5796051,30.7667179z     M39.3662262,24.3550968c-0.1694336,0-0.3413086-0.0429688-0.4985352-0.1337891    c-0.6264648-0.3613281-1.3432617-0.5522461-2.0732422-0.5522461h-1.0053711c-0.5522461,0-1-0.4477539-1-1s0.4477539-1,1-1    h1.0053711c1.0800781,0,2.1425781,0.2836914,3.0722656,0.8198242c0.4785156,0.2758789,0.6425781,0.887207,0.3666992,1.3657227    C40.0483551,24.1758976,39.7119293,24.3550968,39.3662262,24.3550968z M32.0888824,23.6690617h-2.8657227    c-0.3520508-0.0004883-0.7001953-0.0375977-1.0371094-0.109375c-0.5400391-0.1157227-0.8842773-0.6469727-0.769043-1.1870117    c0.1157227-0.5400391,0.6499023-0.8837891,1.1870117-0.769043c0.2011719,0.0429688,0.4096642,0.0649414,0.6210938,0.0654297    h2.8637695c0.5522461,0,1,0.4477539,1,1S32.6411285,23.6690617,32.0888824,23.6690617z M25.6235504,21.3404484    c-0.3818359,0-0.7460938-0.2202148-0.9125977-0.5908203c-0.2875977-0.6396484-0.4331055-1.3212891-0.4331055-2.0258789    c0.0004883-0.855957,0.2226563-1.6987305,0.6425781-2.4384766c0.2724609-0.480957,0.8813477-0.6494141,1.362793-0.3764648    c0.4804649,0.2724609,0.6489258,0.8828125,0.3764648,1.362793c-0.2495117,0.4404297-0.3813477,0.9423828-0.3818359,1.4526367    c0,0.4199219,0.0864258,0.8256836,0.2573242,1.2060547c0.2265625,0.5039063,0.0014648,1.0957031-0.5024414,1.3217773    C25.8999176,21.3121281,25.7607574,21.3404484,25.6235504,21.3404484z M28.7573395,15.8052921    c-0.5009766,0-0.9331055-0.3754883-0.9921875-0.8852539c-0.0629883-0.5488281,0.3305664-1.0449219,0.8789063-1.1083984    c0.1899414-0.0214844,0.3833008-0.0332031,0.5791016-0.0332031h3.2348633c0.5522461,0,1,0.4477539,1,1s-0.4477539,1-1,1    h-3.2348633c-0.1186523,0-0.2348633,0.0068359-0.3496094,0.0205078    C28.8344879,15.803339,28.7959137,15.8052921,28.7573395,15.8052921z M47.2578278,15.7784367h-3.7001953    c-0.5522461,0-1-0.4477539-1-1s0.4477539-1,1-1h3.7001953c0.5522461,0,1,0.4477539,1,1    S47.8100739,15.7784367,47.2578278,15.7784367z M39.8579254,15.7784367h-3.7001953c-0.5522461,0-1-0.4477539-1-1s0.4477539-1,1-1    h3.7001953c0.5522461,0,1,0.4477539,1,1S40.4101715,15.7784367,39.8579254,15.7784367z"/>
    </g>
  </g>
</svg>