<?xml version="1.0" encoding="UTF-8"?>
<!-- Generator: visioncortex VTracer 0.6.3 -->
<svg version="1.1" xmlns="http://www.w3.org/2000/svg" width="1280" height="1280">
<path d="M0 0 C1.19 -0 2.38 -0.01 3.6 -0.01 C5.57 -0.01 5.57 -0.01 7.57 -0 C8.98 -0.01 10.38 -0.01 11.79 -0.01 C15.68 -0.02 19.57 -0.01 23.46 -0.01 C27.69 -0.01 31.91 -0.02 36.14 -0.02 C44.52 -0.03 52.91 -0.03 61.3 -0.03 C71.34 -0.03 81.38 -0.04 91.43 -0.05 C115.7 -0.06 139.98 -0.07 164.25 -0.07 C175.73 -0.08 187.2 -0.08 198.68 -0.08 C237.96 -0.1 277.23 -0.11 316.5 -0.11 C318.97 -0.11 321.43 -0.11 323.9 -0.11 C326.37 -0.11 328.84 -0.11 331.32 -0.11 C336.28 -0.11 341.24 -0.11 346.2 -0.11 C347.43 -0.11 348.66 -0.11 349.92 -0.11 C389.81 -0.12 429.7 -0.13 469.59 -0.16 C511.74 -0.18 553.9 -0.19 596.05 -0.2 C600.67 -0.2 605.3 -0.2 609.92 -0.2 C611.06 -0.2 612.2 -0.2 613.37 -0.2 C631.72 -0.2 650.07 -0.21 668.42 -0.22 C686.85 -0.24 705.28 -0.24 723.72 -0.23 C734.67 -0.23 745.63 -0.23 756.59 -0.25 C763.9 -0.26 771.22 -0.26 778.53 -0.25 C782.7 -0.24 786.87 -0.24 791.05 -0.25 C794.84 -0.26 798.63 -0.26 802.42 -0.25 C804.44 -0.24 806.45 -0.26 808.46 -0.27 C816.27 -0.22 821.83 0.05 827.82 5.48 C828.59 6.37 829.37 7.27 830.17 8.19 C831.45 9.67 831.45 9.67 832.76 11.17 C835.59 14.56 838.37 17.99 841.1 21.46 C843.58 24.57 846.15 27.6 848.73 30.63 C852.16 34.66 855.57 38.71 858.92 42.82 C859.56 43.6 860.2 44.39 860.86 45.2 C862.23 47.13 862.23 47.13 862.23 49.13 C862.89 49.13 863.55 49.13 864.23 49.13 C865.64 50.71 865.64 50.71 867.29 52.94 C872.7 60.09 878.4 67 884.22 73.82 C888.96 79.38 893.54 85.03 898.01 90.8 C901.94 95.84 906.07 100.69 910.26 105.51 C917.23 113.53 917.23 113.53 917.23 116.13 C917.89 116.13 918.55 116.13 919.23 116.13 C920.46 117.5 920.46 117.5 921.98 119.57 C925.47 124.18 929.1 128.67 932.79 133.13 C933.38 133.85 933.98 134.57 934.59 135.31 C937.79 139.2 941.01 143.07 944.25 146.94 C945.22 148.1 945.22 148.1 946.2 149.29 C947.45 150.78 948.7 152.28 949.96 153.77 C950.8 154.78 950.8 154.78 951.66 155.81 C952.4 156.7 952.4 156.7 953.16 157.61 C954.23 159.13 954.23 159.13 954.23 161.13 C954.89 161.13 955.55 161.13 956.23 161.13 C957.74 162.82 957.74 162.82 959.48 165.13 C960.4 166.35 960.4 166.35 961.34 167.6 C962.28 168.85 962.28 168.85 963.23 170.13 C963.81 170.88 964.39 171.63 964.99 172.4 C965.79 173.44 965.79 173.44 966.6 174.5 C967.08 175.13 967.57 175.76 968.06 176.4 C970.11 179.44 970.36 182.08 970.37 185.64 C970.38 187 970.38 187 970.39 188.4 C970.39 189.39 970.39 190.38 970.4 191.39 C970.4 192.42 970.4 193.44 970.41 194.5 C970.41 196.68 970.41 198.86 970.41 201.04 C970.42 204.32 970.43 207.61 970.45 210.89 C970.54 244.04 962.97 274.29 940.55 299.48 C938.16 302.09 938.16 302.09 936.23 305.13 C935.57 305.13 934.91 305.13 934.23 305.13 C934.23 305.79 934.23 306.45 934.23 307.13 C931.76 309.68 928.95 311.86 926.23 314.13 C925.5 314.76 924.78 315.4 924.03 316.05 C913.15 325.27 900.63 331.45 887.23 336.13 C886.04 336.6 884.85 337.07 883.63 337.56 C879.08 339.27 874.48 340.32 869.73 341.32 C868.91 341.49 868.08 341.67 867.24 341.85 C865.23 342.28 863.23 342.71 861.23 343.13 C861.23 344.37 861.23 345.62 861.22 346.9 C861.16 401.72 861.1 456.55 861.03 511.38 C861.03 512.21 861.02 513.04 861.02 513.89 C861 531.92 860.97 549.95 860.95 567.98 C860.94 576.82 860.92 585.66 860.91 594.5 C860.91 595.38 860.91 596.26 860.91 597.17 C860.87 625.7 860.83 654.23 860.8 682.76 C860.77 712.08 860.73 741.39 860.69 770.71 C860.68 774.84 860.68 778.98 860.67 783.12 C860.67 783.93 860.67 784.75 860.67 785.59 C860.65 798.71 860.63 811.83 860.62 824.96 C860.61 838.14 860.59 851.33 860.57 864.51 C860.55 872.35 860.54 880.19 860.54 888.03 C860.54 893.88 860.53 899.72 860.51 905.57 C860.51 907.94 860.51 910.31 860.51 912.68 C860.51 915.89 860.5 919.1 860.49 922.31 C860.49 923.25 860.5 924.18 860.5 925.14 C860.46 931.16 859.97 935.1 855.92 939.82 C851.45 943.66 847.76 944.38 841.95 944.38 C840.03 944.39 840.03 944.39 838.08 944.4 C836.66 944.39 835.25 944.39 833.83 944.38 C832.32 944.39 830.81 944.39 829.3 944.4 C825.12 944.41 820.95 944.4 816.78 944.4 C812.25 944.39 807.72 944.4 803.19 944.41 C795.24 944.42 787.29 944.42 779.34 944.42 C767.52 944.42 755.7 944.43 743.88 944.44 C721.54 944.46 699.21 944.46 676.87 944.46 C659.63 944.46 642.38 944.47 625.14 944.47 C620.18 944.47 615.22 944.48 610.26 944.48 C608.41 944.48 608.41 944.48 606.52 944.48 C571.83 944.49 537.14 944.5 502.45 944.5 C500.49 944.5 500.49 944.5 498.49 944.5 C491.86 944.5 485.22 944.5 478.59 944.5 C477.27 944.5 475.96 944.5 474.6 944.5 C471.94 944.5 469.27 944.5 466.61 944.5 C425.15 944.5 383.7 944.51 342.24 944.54 C295.7 944.57 249.15 944.59 202.6 944.59 C197.64 944.59 192.68 944.59 187.72 944.59 C185.89 944.59 185.89 944.59 184.02 944.58 C164.34 944.58 144.66 944.6 124.97 944.61 C105.2 944.63 85.43 944.63 65.66 944.62 C53.91 944.61 42.16 944.62 30.4 944.64 C22.56 944.65 14.71 944.65 6.87 944.63 C2.39 944.62 -2.08 944.62 -6.55 944.64 C-10.62 944.65 -14.69 944.65 -18.76 944.63 C-20.22 944.63 -21.69 944.63 -23.15 944.64 C-38.35 944.75 -38.35 944.75 -43.77 940.13 C-48.13 934.62 -48.35 929.92 -48.28 923.05 C-48.29 922.05 -48.29 921.04 -48.3 920.01 C-48.32 916.63 -48.3 913.26 -48.29 909.89 C-48.3 907.45 -48.3 905.01 -48.31 902.57 C-48.33 897.26 -48.33 891.95 -48.33 886.64 C-48.32 878.75 -48.33 870.85 -48.34 862.96 C-48.37 849.68 -48.38 836.4 -48.38 823.12 C-48.38 809.97 -48.39 796.82 -48.4 783.68 C-48.41 782.86 -48.41 782.04 -48.41 781.2 C-48.41 777.05 -48.42 772.9 -48.42 768.74 C-48.47 739.34 -48.49 709.93 -48.5 680.52 C-48.51 651.96 -48.53 623.39 -48.56 594.82 C-48.57 593.94 -48.57 593.06 -48.57 592.15 C-48.58 583.31 -48.59 574.46 -48.6 565.62 C-48.62 547.61 -48.64 529.59 -48.66 511.58 C-48.66 510.75 -48.66 509.92 -48.66 509.07 C-48.72 453.75 -48.75 398.44 -48.77 343.13 C-49.49 342.96 -50.21 342.79 -50.95 342.62 C-54.24 341.84 -57.52 341.06 -60.81 340.28 C-61.94 340.02 -63.07 339.75 -64.23 339.48 C-76.21 336.63 -86.35 332.76 -96.77 326.13 C-97.96 325.47 -99.14 324.83 -100.33 324.19 C-104.05 322.09 -107.33 319.47 -110.66 316.81 C-112.09 315.68 -113.55 314.58 -115.04 313.54 C-115.61 313.07 -116.18 312.61 -116.77 312.13 C-116.77 311.47 -116.77 310.81 -116.77 310.13 C-117.33 309.9 -117.88 309.68 -118.45 309.45 C-135.81 299.55 -147.92 272.66 -153.21 254.44 C-153.74 252.34 -154.27 250.24 -154.77 248.13 C-155.09 247.01 -155.09 247.01 -155.41 245.88 C-157.98 236.78 -157.93 227.15 -157.98 217.76 C-157.98 216.73 -157.99 215.69 -157.99 214.63 C-158 212.46 -158.01 210.29 -158.01 208.12 C-158.02 204.81 -158.05 201.49 -158.08 198.18 C-158.09 196.06 -158.1 193.94 -158.1 191.83 C-158.12 190.35 -158.12 190.35 -158.14 188.84 C-158.11 180.44 -155.62 175.81 -150.15 169.44 C-149.25 168.39 -148.35 167.33 -147.46 166.28 C-147.01 165.75 -146.56 165.22 -146.09 164.68 C-144.1 162.34 -142.15 159.95 -140.21 157.57 C-139.47 156.66 -138.74 155.76 -137.98 154.83 C-136.52 153.04 -135.06 151.25 -133.6 149.45 C-129.5 144.42 -125.35 139.44 -121.15 134.5 C-116.1 128.57 -111.1 122.61 -106.77 116.13 C-106.11 116.13 -105.45 116.13 -104.77 116.13 C-104.53 115.58 -104.29 115.03 -104.04 114.46 C-102.48 111.6 -100.56 109.31 -98.46 106.82 C-95.78 103.6 -93.19 100.4 -90.83 96.94 C-90.15 96.01 -89.47 95.08 -88.77 94.13 C-88.11 94.13 -87.45 94.13 -86.77 94.13 C-86.53 93.57 -86.28 93.02 -86.03 92.44 C-84.53 89.68 -82.72 87.47 -80.71 85.07 C-79.9 84.09 -79.09 83.12 -78.26 82.12 C-77.44 81.13 -76.62 80.14 -75.77 79.13 C-74.31 77.34 -72.85 75.55 -71.4 73.75 C-68.93 70.73 -66.44 67.72 -63.9 64.76 C-63.41 64.18 -62.92 63.61 -62.42 63.02 C-61.48 61.92 -60.53 60.82 -59.58 59.72 C-57.38 57.16 -55.38 54.59 -53.57 51.74 C-52.98 50.88 -52.38 50.02 -51.77 49.13 C-51.11 49.13 -50.45 49.13 -49.77 49.13 C-49.52 48.57 -49.27 48.01 -49.02 47.44 C-47.56 44.73 -45.8 42.56 -43.83 40.19 C-43.03 39.22 -42.22 38.25 -41.39 37.24 C-39.64 35.16 -37.89 33.08 -36.12 31.01 C-35.67 30.49 -35.23 29.96 -34.77 29.42 C-33.85 28.35 -32.93 27.27 -32.01 26.19 C-29.05 22.71 -26.22 19.15 -23.44 15.53 C-11.5 0.01 -11.5 0.01 0 0 Z M-2.77 34.13 C-3.37 34.77 -3.96 35.41 -4.57 36.08 C-5.07 36.65 -5.57 37.22 -6.08 37.82 C-6.6 38.4 -7.11 38.98 -7.64 39.58 C-8.97 41.08 -8.97 41.08 -8.77 43.13 C-9.43 43.13 -10.09 43.13 -10.77 43.13 C-12.5 45.15 -14.11 47.19 -15.71 49.32 C-19.5 54.25 -23.36 59.09 -27.4 63.82 C-32.27 69.52 -37.05 75.29 -41.77 81.13 C-42.52 82.01 -43.26 82.9 -44.03 83.82 C-45.97 85.91 -45.97 85.91 -45.77 88.13 C-46.43 88.13 -47.09 88.13 -47.77 88.13 C-49.47 90.13 -51.07 92.15 -52.65 94.25 C-56.63 99.45 -60.73 104.5 -65.02 109.44 C-68.8 113.8 -72.44 118.2 -75.94 122.79 C-78.29 125.78 -80.74 128.67 -83.21 131.57 C-87.84 137 -92.34 142.52 -96.77 148.13 C-97.51 149 -98.24 149.88 -98.99 150.78 C-100.97 152.9 -100.97 152.9 -100.77 155.13 C-101.43 155.13 -102.09 155.13 -102.77 155.13 C-104.56 157.26 -106.24 159.4 -107.9 161.63 C-108.37 162.25 -108.83 162.87 -109.32 163.51 C-110.47 165.04 -111.62 166.58 -112.77 168.13 C-109.07 170.6 -107.21 170.38 -102.79 170.39 C-102.07 170.39 -101.36 170.4 -100.62 170.4 C-98.22 170.41 -95.82 170.41 -93.41 170.4 C-91.7 170.41 -89.98 170.41 -88.26 170.42 C-83.58 170.43 -78.9 170.43 -74.23 170.43 C-70.33 170.43 -66.43 170.43 -62.53 170.44 C-53.34 170.45 -44.14 170.45 -34.94 170.44 C-25.45 170.44 -15.95 170.45 -6.45 170.47 C1.69 170.49 9.84 170.49 17.99 170.49 C22.86 170.49 27.72 170.49 32.59 170.51 C37.17 170.52 41.75 170.52 46.32 170.5 C48.01 170.5 49.69 170.5 51.37 170.51 C53.66 170.52 55.95 170.51 58.24 170.5 C59.53 170.5 60.81 170.5 62.13 170.5 C65.19 170.39 65.19 170.39 67.1 168.76 C68.67 166.49 69.36 164.21 70.17 161.57 C71.58 156.97 73.23 152.54 75.03 148.09 C77.22 142.67 79.32 137.23 81.44 131.79 C81.96 130.43 82.49 129.08 83.02 127.73 C85.98 120.16 88.79 112.58 91.31 104.86 C92.45 101.47 93.76 98.18 95.11 94.87 C97.52 88.96 99.8 83.01 102.1 77.07 C102.37 76.38 102.63 75.7 102.91 74.99 C106.21 66.48 109.45 57.96 112.41 49.33 C113.94 44.87 115.66 40.52 117.56 36.21 C118.34 33.76 118.27 31.68 118.23 29.13 C103.19 29.01 88.15 28.92 73.11 28.87 C66.13 28.84 59.15 28.81 52.17 28.75 C45.43 28.7 38.69 28.67 31.96 28.65 C29.38 28.64 26.81 28.63 24.24 28.6 C20.64 28.56 17.04 28.56 13.44 28.56 C12.38 28.54 11.31 28.52 10.21 28.51 C4.11 28.55 1.08 28.92 -2.77 34.13 Z M150.23 29.13 C147.7 34.18 145.44 38.87 143.42 44.09 C143.18 44.73 142.93 45.37 142.68 46.02 C142.16 47.36 141.64 48.7 141.13 50.04 C140.37 52.03 139.6 54.02 138.83 56 C136.2 62.8 133.68 69.63 131.28 76.51 C127.89 86.24 124.11 95.81 120.33 105.4 C116.84 114.26 113.47 123.14 110.34 132.14 C107.88 139.2 105.11 146.14 102.31 153.08 C100.19 158.39 98.46 163.55 97.23 169.13 C100.21 170.62 102.89 170.25 106.22 170.25 C107.31 170.26 107.31 170.26 108.42 170.26 C110.88 170.26 113.33 170.26 115.78 170.26 C117.53 170.26 119.28 170.26 121.04 170.26 C125.8 170.27 130.57 170.27 135.34 170.26 C140.32 170.26 145.3 170.26 150.28 170.26 C158.65 170.27 167.01 170.26 175.37 170.26 C185.06 170.25 194.74 170.25 204.43 170.26 C212.73 170.26 221.03 170.27 229.33 170.26 C234.29 170.26 239.25 170.26 244.22 170.26 C248.88 170.27 253.55 170.26 258.21 170.26 C259.93 170.26 261.65 170.26 263.36 170.26 C265.7 170.26 268.03 170.26 270.36 170.25 C272.33 170.25 272.33 170.25 274.33 170.25 C277.12 170.46 277.12 170.46 278.23 169.13 C278.32 167.32 278.35 165.5 278.35 163.69 C278.35 162.51 278.35 161.33 278.35 160.12 C278.35 158.81 278.34 157.51 278.34 156.16 C278.34 154.78 278.34 153.4 278.34 152.02 C278.34 148.27 278.34 144.51 278.33 140.76 C278.32 136.84 278.32 132.91 278.32 128.99 C278.32 121.56 278.31 114.13 278.3 106.7 C278.29 96.67 278.28 86.63 278.28 76.59 C278.27 60.77 278.25 44.95 278.23 29.13 C235.99 29.13 193.75 29.13 150.23 29.13 Z M311.23 29.13 C309.92 31.73 310.1 33.64 310.09 36.56 C310.09 37.71 310.09 38.86 310.08 40.05 C310.08 41.32 310.08 42.59 310.08 43.9 C310.08 45.25 310.08 46.59 310.07 47.94 C310.06 51.6 310.06 55.27 310.06 58.93 C310.06 61.98 310.06 65.04 310.05 68.09 C310.04 75.3 310.04 82.5 310.04 89.7 C310.04 97.14 310.03 104.58 310.02 112.02 C310 118.4 310 124.78 310 131.16 C310 134.98 310 138.79 309.99 142.61 C309.98 146.19 309.98 149.78 309.98 153.36 C309.98 155.31 309.98 157.26 309.97 159.21 C309.97 160.36 309.98 161.51 309.98 162.7 C309.98 163.71 309.98 164.71 309.98 165.75 C309.99 168.31 309.99 168.31 312.23 170.13 C314.72 170.33 317.1 170.4 319.59 170.38 C320.36 170.38 321.13 170.39 321.92 170.39 C324.51 170.4 327.09 170.39 329.68 170.39 C331.53 170.39 333.38 170.39 335.23 170.4 C340.26 170.41 345.29 170.4 350.33 170.4 C355.58 170.39 360.84 170.4 366.1 170.4 C374.93 170.4 383.76 170.4 392.59 170.39 C402.81 170.38 413.03 170.38 423.25 170.39 C432.02 170.4 440.78 170.4 449.54 170.4 C454.78 170.39 460.02 170.39 465.26 170.4 C470.19 170.41 475.11 170.4 480.03 170.39 C481.85 170.39 483.66 170.39 485.47 170.39 C487.93 170.4 490.4 170.39 492.86 170.38 C493.95 170.39 493.95 170.39 495.06 170.4 C499.09 170.48 499.09 170.48 502.23 168.13 C502.53 165.64 502.53 165.64 502.47 162.7 C502.48 161.55 502.48 160.39 502.49 159.21 C502.48 157.94 502.48 156.67 502.47 155.36 C502.47 154.01 502.47 152.66 502.48 151.32 C502.48 147.65 502.47 143.99 502.46 140.33 C502.45 136.5 502.46 132.67 502.46 128.84 C502.46 122.41 502.45 115.98 502.43 109.55 C502.42 102.11 502.41 94.67 502.41 87.23 C502.41 80.09 502.41 72.94 502.4 65.79 C502.4 62.74 502.4 59.7 502.39 56.65 C502.39 53.06 502.39 49.48 502.38 45.89 C502.37 43.95 502.37 42 502.37 40.05 C502.37 38.32 502.37 38.32 502.36 36.56 C502.36 35.55 502.36 34.54 502.36 33.51 C502.39 31.11 502.39 31.11 501.23 29.13 C438.53 29.13 375.83 29.13 311.23 29.13 Z M531.23 29.13 C529.92 31.73 530.1 33.64 530.09 36.56 C530.09 37.71 530.09 38.86 530.08 40.05 C530.08 41.32 530.08 42.59 530.08 43.9 C530.08 45.25 530.08 46.59 530.07 47.94 C530.06 51.6 530.06 55.27 530.06 58.93 C530.06 61.98 530.06 65.04 530.05 68.09 C530.04 75.3 530.04 82.5 530.04 89.7 C530.04 97.14 530.03 104.58 530.02 112.02 C530 118.4 530 124.78 530 131.16 C530 134.98 530 138.79 529.99 142.61 C529.98 146.19 529.98 149.78 529.98 153.36 C529.98 155.31 529.98 157.26 529.97 159.21 C529.97 160.36 529.98 161.51 529.98 162.7 C529.98 163.71 529.98 164.71 529.98 165.75 C529.99 168.31 529.99 168.31 532.23 170.13 C534.63 170.32 536.92 170.39 539.33 170.37 C540.07 170.38 540.81 170.38 541.57 170.38 C544.06 170.39 546.55 170.38 549.04 170.37 C550.82 170.37 552.6 170.37 554.38 170.38 C559.22 170.38 564.07 170.37 568.91 170.36 C573.98 170.35 579.04 170.36 584.1 170.36 C592.6 170.36 601.1 170.35 609.6 170.33 C619.44 170.32 629.28 170.31 639.12 170.31 C648.57 170.31 658.02 170.31 667.47 170.3 C671.5 170.3 675.53 170.3 679.56 170.29 C684.3 170.29 689.04 170.29 693.78 170.28 C695.52 170.27 697.27 170.27 699.01 170.27 C701.38 170.27 703.76 170.27 706.13 170.26 C707.17 170.26 707.17 170.26 708.24 170.27 C711.86 170.29 711.86 170.29 715.23 169.13 C712.77 160.04 709.32 151.33 705.92 142.57 C702.58 133.97 699.28 125.37 696.25 116.66 C693.13 107.73 689.7 98.93 686.23 90.13 C682.45 80.54 678.77 70.95 675.38 61.22 C673.07 54.61 670.53 48.11 667.92 41.63 C667.25 39.97 667.25 39.97 666.58 38.27 C664.96 33.37 664.96 33.37 662.23 29.13 C660.53 29.03 658.83 29.01 657.13 29.01 C656.03 29.01 654.93 29 653.79 29 C651.96 29.01 651.96 29.01 650.09 29.01 C648.81 29.01 647.53 29.01 646.22 29.01 C642.7 29.01 639.19 29.02 635.67 29.03 C632 29.03 628.34 29.03 624.67 29.03 C617.71 29.04 610.76 29.05 603.81 29.06 C595.9 29.07 587.98 29.07 580.07 29.08 C563.79 29.09 547.51 29.11 531.23 29.13 Z M694.23 29.13 C694.78 33.23 695.33 36.95 696.86 40.81 C697.19 41.64 697.52 42.48 697.85 43.34 C698.2 44.22 698.55 45.1 698.92 46 C699.65 47.89 700.39 49.77 701.12 51.66 C701.48 52.59 701.84 53.52 702.21 54.48 C703.61 58.13 704.89 61.81 706.17 65.5 C708.83 73.2 711.78 80.76 714.81 88.32 C717.03 93.91 719.09 99.54 721.07 105.22 C724.23 114.28 727.71 123.2 731.23 132.13 C732.42 135.15 733.61 138.17 734.79 141.19 C735.08 141.92 735.37 142.66 735.66 143.41 C737.15 147.23 738.57 151.06 739.9 154.93 C740.16 155.71 740.43 156.49 740.7 157.29 C741.21 158.77 741.7 160.25 742.19 161.74 C743.77 166.6 743.77 166.6 747.23 170.13 C750.45 170.58 750.45 170.58 754.21 170.5 C754.93 170.51 755.64 170.51 756.38 170.51 C758.78 170.52 761.18 170.51 763.59 170.5 C765.3 170.5 767.02 170.51 768.74 170.51 C773.42 170.52 778.1 170.51 782.77 170.5 C787.66 170.49 792.55 170.49 797.43 170.49 C805.64 170.49 813.85 170.48 822.06 170.46 C831.55 170.44 841.05 170.44 850.55 170.45 C859.67 170.45 868.8 170.45 877.93 170.43 C881.82 170.43 885.7 170.43 889.59 170.43 C894.17 170.43 898.75 170.42 903.32 170.41 C905.01 170.4 906.69 170.4 908.37 170.41 C910.66 170.41 912.95 170.4 915.24 170.39 C917.17 170.39 917.17 170.39 919.13 170.38 C922.4 170.37 922.4 170.37 925.23 168.13 C923.61 165.96 921.98 163.79 920.35 161.63 C919.89 161.01 919.43 160.39 918.96 159.75 C917.76 158.17 916.5 156.65 915.23 155.13 C914.57 155.13 913.91 155.13 913.23 155.13 C913 154.61 912.78 154.08 912.55 153.55 C910.74 150.24 908.44 147.38 906.1 144.44 C905.36 143.5 905.36 143.5 904.6 142.54 C901.31 138.4 897.87 134.43 894.31 130.51 C891.25 127 888.43 123.32 885.58 119.64 C881.74 114.71 877.7 109.98 873.59 105.27 C869.43 100.46 865.66 95.44 861.97 90.26 C861.4 89.56 860.82 88.85 860.23 88.13 C859.57 88.13 858.91 88.13 858.23 88.13 C857.86 87.29 857.86 87.29 857.48 86.44 C855.99 83.68 854.18 81.47 852.17 79.07 C851.35 78.09 850.54 77.11 849.7 76.1 C848.89 75.12 848.07 74.14 847.23 73.13 C845.83 71.42 844.43 69.71 843.04 68 C838.51 62.46 833.96 56.94 829.4 51.41 C826.76 48.21 824.12 45 821.51 41.77 C820.73 40.81 819.96 39.86 819.17 38.88 C818.51 38.07 817.86 37.26 817.19 36.42 C816.54 35.67 815.9 34.91 815.23 34.13 C814.28 32.84 814.28 32.84 813.31 31.52 C808.72 27.95 804.67 28.46 799.01 28.56 C797.88 28.56 796.75 28.56 795.58 28.56 C791.84 28.56 788.1 28.6 784.36 28.64 C781.77 28.65 779.18 28.66 776.58 28.66 C770.46 28.68 764.33 28.72 758.2 28.77 C751.23 28.82 744.25 28.85 737.27 28.88 C722.92 28.93 708.58 29.02 694.23 29.13 Z M-128.77 198.13 C-135.19 210.95 -129.17 237.4 -124.79 250.64 C-121.23 260.83 -115.87 269.28 -109.77 278.13 C-109.11 279.12 -108.45 280.11 -107.77 281.13 C-107.11 281.13 -106.45 281.13 -105.77 281.13 C-105.52 281.71 -105.28 282.28 -105.02 282.88 C-103.59 285.46 -101.99 287.19 -99.77 289.13 C-99.11 289.13 -98.45 289.13 -97.77 289.13 C-97.77 289.79 -97.77 290.45 -97.77 291.13 C-78.63 307 -58.76 314.55 -33.9 314.63 C-32.6 314.63 -31.31 314.64 -29.97 314.65 C-5 314.31 17.55 303.47 35.23 286.13 C55.66 264.4 62.23 239.44 62.35 210.44 C62.36 209.46 62.36 208.48 62.37 207.47 C62.36 206.55 62.36 205.63 62.36 204.68 C62.36 203.44 62.36 203.44 62.36 202.17 C62.36 200.06 62.36 200.06 61.23 198.13 C-1.47 198.13 -64.17 198.13 -128.77 198.13 Z M91.23 198.13 C84.81 210.95 90.83 237.4 95.21 250.64 C98.77 260.83 104.13 269.28 110.23 278.13 C110.89 279.12 111.55 280.11 112.23 281.13 C112.89 281.13 113.55 281.13 114.23 281.13 C114.48 281.71 114.72 282.28 114.98 282.88 C116.41 285.46 118.01 287.19 120.23 289.13 C120.89 289.13 121.55 289.13 122.23 289.13 C122.23 289.79 122.23 290.45 122.23 291.13 C141.37 307 161.24 314.55 186.1 314.63 C187.4 314.63 188.69 314.64 190.03 314.65 C215 314.31 237.55 303.47 255.23 286.13 C275.66 264.4 282.23 239.44 282.35 210.44 C282.36 209.46 282.36 208.48 282.37 207.47 C282.36 206.55 282.36 205.63 282.36 204.68 C282.36 203.44 282.36 203.44 282.36 202.17 C282.36 200.06 282.36 200.06 281.23 198.13 C218.53 198.13 155.83 198.13 91.23 198.13 Z M311.23 198.13 C304.81 210.95 310.83 237.4 315.21 250.64 C318.77 260.83 324.13 269.28 330.23 278.13 C330.89 279.12 331.55 280.11 332.23 281.13 C332.89 281.13 333.55 281.13 334.23 281.13 C334.48 281.71 334.72 282.28 334.98 282.88 C336.41 285.46 338.01 287.19 340.23 289.13 C340.89 289.13 341.55 289.13 342.23 289.13 C342.23 289.79 342.23 290.45 342.23 291.13 C361.37 307 381.24 314.55 406.1 314.63 C407.4 314.63 408.69 314.64 410.03 314.65 C435 314.31 457.55 303.47 475.23 286.13 C495.66 264.4 502.23 239.44 502.35 210.44 C502.36 209.46 502.36 208.48 502.37 207.47 C502.36 206.55 502.36 205.63 502.36 204.68 C502.36 203.44 502.36 203.44 502.36 202.17 C502.36 200.06 502.36 200.06 501.23 198.13 C438.53 198.13 375.83 198.13 311.23 198.13 Z M531.23 198.13 C524.81 210.95 530.83 237.4 535.21 250.64 C538.77 260.83 544.13 269.28 550.23 278.13 C550.89 279.12 551.55 280.11 552.23 281.13 C552.89 281.13 553.55 281.13 554.23 281.13 C554.58 281.97 554.58 281.97 554.93 282.83 C560.3 292.33 572.07 298.71 581.23 304.13 C582.03 304.62 582.84 305.12 583.67 305.62 C596.88 313.01 611.22 314.6 626.1 314.63 C627.4 314.63 628.69 314.64 630.03 314.65 C655 314.32 677.56 303.47 695.23 286.13 C715.66 264.4 722.23 239.44 722.35 210.44 C722.36 209.46 722.36 208.48 722.37 207.47 C722.36 206.55 722.36 205.63 722.36 204.68 C722.36 203.44 722.36 203.44 722.36 202.17 C722.36 200.06 722.36 200.06 721.23 198.13 C658.53 198.13 595.83 198.13 531.23 198.13 Z M751.23 198.13 C744.81 210.95 750.83 237.4 755.21 250.64 C758.77 260.83 764.13 269.28 770.23 278.13 C770.89 279.12 771.55 280.11 772.23 281.13 C772.89 281.13 773.55 281.13 774.23 281.13 C774.48 281.71 774.72 282.28 774.98 282.88 C776.41 285.46 778.01 287.19 780.23 289.13 C780.89 289.13 781.55 289.13 782.23 289.13 C782.23 289.79 782.23 290.45 782.23 291.13 C801.37 307 821.24 314.55 846.1 314.63 C847.4 314.63 848.69 314.64 850.03 314.65 C875 314.31 897.55 303.47 915.23 286.13 C935.66 264.4 942.23 239.44 942.35 210.44 C942.36 209.46 942.36 208.48 942.37 207.47 C942.36 206.55 942.36 205.63 942.36 204.68 C942.36 203.44 942.36 203.44 942.36 202.17 C942.36 200.06 942.36 200.06 941.23 198.13 C878.53 198.13 815.83 198.13 751.23 198.13 Z M75.23 278.13 C73.44 280.58 71.76 283.03 70.1 285.57 C66.29 291.28 62.37 296.56 57.59 301.53 C56.01 303.03 56.01 303.03 56.23 305.13 C55.57 305.13 54.91 305.13 54.23 305.13 C54.23 305.79 54.23 306.45 54.23 307.13 C52.74 307.62 52.74 307.62 51.23 308.13 C51.23 308.79 51.23 309.45 51.23 310.13 C50.57 310.13 49.91 310.13 49.23 310.13 C49.23 310.79 49.23 311.45 49.23 312.13 C48.69 312.38 48.16 312.62 47.6 312.88 C44.65 314.43 41.93 316.16 39.23 318.13 C39.23 318.79 39.23 319.45 39.23 320.13 C38.56 320.37 37.89 320.61 37.2 320.86 C33.49 322.44 30.09 324.42 26.6 326.44 C14.89 333.07 3.77 337.33 -9.29 340.52 C-11.51 341.06 -13.72 341.61 -15.93 342.17 C-17.2 342.48 -18.46 342.8 -19.77 343.13 C-19.79 397.44 -19.81 451.76 -19.81 506.07 C-19.81 506.87 -19.81 507.68 -19.82 508.5 C-19.82 525.96 -19.82 543.41 -19.82 560.87 C-19.82 569.43 -19.83 577.99 -19.83 586.55 C-19.83 587.4 -19.83 588.25 -19.83 589.13 C-19.83 616.76 -19.84 644.39 -19.85 672.03 C-19.86 700.41 -19.86 728.79 -19.87 757.18 C-19.87 761.18 -19.87 765.19 -19.87 769.19 C-19.87 769.98 -19.87 770.77 -19.87 771.58 C-19.87 784.3 -19.87 797.01 -19.88 809.72 C-19.88 822.49 -19.89 835.25 -19.89 848.02 C-19.88 855.61 -19.89 863.2 -19.89 870.8 C-19.9 876.45 -19.9 882.11 -19.89 887.77 C-19.89 890.07 -19.89 892.36 -19.9 894.66 C-19.9 897.77 -19.9 900.87 -19.9 903.98 C-19.9 904.89 -19.9 905.8 -19.9 906.73 C-20.02 911.07 -20.02 911.07 -18.77 915.13 C146.89 915.13 312.55 915.13 483.23 915.13 C484.58 912.43 484.35 910.35 484.36 907.33 C484.36 906.09 484.36 904.84 484.36 903.56 C484.36 902.17 484.36 900.78 484.36 899.39 C484.36 897.92 484.36 896.45 484.37 894.98 C484.37 891.78 484.37 888.57 484.37 885.37 C484.37 880.15 484.37 874.94 484.38 869.73 C484.39 862.16 484.39 854.58 484.4 847.01 C484.4 835.03 484.42 823.05 484.44 811.07 C484.44 806.97 484.45 802.87 484.46 798.77 C484.46 797.74 484.46 796.72 484.46 795.66 C484.48 783.99 484.5 772.31 484.51 760.64 C484.51 759.57 484.51 758.5 484.51 757.4 C484.54 740.14 484.55 722.88 484.56 705.62 C484.56 687.88 484.59 670.15 484.62 652.42 C484.64 641.49 484.65 630.56 484.65 619.63 C484.65 612.12 484.66 604.62 484.68 597.11 C484.69 592.79 484.7 588.47 484.69 584.14 C484.59 543.01 484.59 543.01 492.85 525.88 C493.19 525.15 493.52 524.43 493.86 523.69 C497.02 517.06 500.99 511.04 505.22 505.07 C507.34 502.25 507.34 502.25 508.23 499.13 C508.89 499.13 509.55 499.13 510.23 499.13 C511.73 497.61 511.73 497.61 513.29 495.63 C531.1 474.86 557.23 462.89 584.23 460.13 C592.68 459.64 601.15 459.65 609.62 459.68 C613.52 459.69 617.42 459.66 621.33 459.63 C635.77 459.59 649.24 460.47 663.23 464.13 C664.47 464.44 665.7 464.75 666.98 465.07 C679.28 468.32 690.18 474.91 700.15 482.66 C702.08 484.32 702.08 484.32 704.23 484.13 C704.23 484.79 704.23 485.45 704.23 486.13 C705.85 487.73 705.85 487.73 707.92 489.38 C710.58 491.63 712.94 493.83 715.1 496.57 C715.8 497.41 716.51 498.26 717.23 499.13 C717.89 499.13 718.55 499.13 719.23 499.13 C719.51 499.71 719.79 500.29 720.08 500.89 C721.16 503 722.34 504.97 723.62 506.96 C741.03 534.5 744 561.09 743.89 593.04 C743.88 597.38 743.9 601.72 743.92 606.06 C743.94 613.54 743.95 621.03 743.94 628.52 C743.93 639.34 743.95 650.16 743.97 660.98 C744.01 678.55 744.03 696.12 744.03 713.69 C744.03 730.73 744.05 747.78 744.08 764.83 C744.08 765.88 744.08 766.94 744.08 768.02 C744.09 773.31 744.1 778.6 744.11 783.88 C744.18 827.63 744.21 871.38 744.23 915.13 C755.55 915.15 766.88 915.17 778.21 915.18 C783.46 915.18 788.72 915.19 793.98 915.2 C799.05 915.21 804.12 915.22 809.19 915.22 C811.13 915.22 813.07 915.23 815.01 915.23 C817.72 915.24 820.42 915.24 823.13 915.24 C823.94 915.24 824.75 915.25 825.58 915.25 C829.2 915.59 829.2 915.59 832.23 914.13 C832.33 911.11 832.36 908.11 832.35 905.09 C832.35 903.64 832.35 903.64 832.35 902.16 C832.36 898.88 832.35 895.61 832.35 892.33 C832.35 889.97 832.35 887.62 832.35 885.26 C832.35 880.12 832.35 874.97 832.35 869.83 C832.34 862.18 832.34 854.53 832.34 846.88 C832.34 834.01 832.34 821.14 832.33 808.28 C832.33 795.53 832.32 782.78 832.32 770.04 C832.32 769.25 832.32 768.45 832.32 767.64 C832.32 763.62 832.32 759.6 832.32 755.58 C832.32 727.08 832.31 698.59 832.3 670.09 C832.29 642.41 832.29 614.72 832.28 587.03 C832.28 586.18 832.28 585.32 832.28 584.45 C832.28 575.88 832.28 567.31 832.28 558.75 C832.28 541.3 832.27 523.85 832.27 506.4 C832.27 505.19 832.27 505.19 832.27 503.97 C832.26 450.35 832.24 396.74 832.23 343.13 C830.48 342.65 828.73 342.17 826.99 341.69 C826.01 341.42 825.04 341.16 824.04 340.88 C821.72 340.26 819.41 339.68 817.08 339.14 C798.07 334.7 780.92 326.09 766.23 313.13 C764.85 311.93 764.85 311.93 763.44 310.7 C756.41 304.5 756.41 304.5 755.23 302.13 C754.57 302.13 753.91 302.13 753.23 302.13 C752.85 301.3 752.85 301.3 752.46 300.45 C751.02 297.74 749.31 295.4 747.48 292.94 C744.29 288.64 741.34 284.27 738.55 279.71 C737.9 278.93 737.9 278.93 737.23 278.13 C736.24 278.13 735.25 278.13 734.23 278.13 C733.98 278.63 733.74 279.13 733.49 279.64 C730.42 285.53 726.68 290.63 722.53 295.78 C720.02 298.61 720.02 298.61 719.23 302.13 C718.24 302.46 717.25 302.79 716.23 303.13 C716.23 303.79 716.23 304.45 716.23 305.13 C715.57 305.13 714.91 305.13 714.23 305.13 C714.23 305.79 714.23 306.45 714.23 307.13 C713.24 307.46 712.25 307.79 711.23 308.13 C711.23 308.79 711.23 309.45 711.23 310.13 C710.57 310.13 709.91 310.13 709.23 310.13 C709.23 310.79 709.23 311.45 709.23 312.13 C708.68 312.37 708.13 312.62 707.56 312.87 C704.73 314.39 702.38 316.27 699.85 318.25 C686.68 328.32 672.47 334.57 656.48 338.88 C655.7 339.09 654.92 339.3 654.11 339.52 C627.65 346.34 594.69 343.13 570.65 329.69 C568.93 328.66 567.22 327.61 565.52 326.55 C563.67 325.4 561.77 324.34 559.85 323.32 C552.23 318.97 544.88 313.59 539.44 306.66 C538.12 304.92 538.12 304.92 535.85 302.82 C529.24 296.04 523.97 288.43 518.99 280.4 C518.41 279.65 517.83 278.9 517.23 278.13 C516.24 278.13 515.25 278.13 514.23 278.13 C513.98 278.63 513.74 279.13 513.49 279.64 C510.42 285.53 506.68 290.63 502.53 295.78 C500.02 298.61 500.02 298.61 499.23 302.13 C498.24 302.46 497.25 302.79 496.23 303.13 C496.23 303.79 496.23 304.45 496.23 305.13 C495.57 305.13 494.91 305.13 494.23 305.13 C494.23 305.79 494.23 306.45 494.23 307.13 C493.24 307.46 492.25 307.79 491.23 308.13 C491.23 308.79 491.23 309.45 491.23 310.13 C490.57 310.13 489.91 310.13 489.23 310.13 C489.23 310.79 489.23 311.45 489.23 312.13 C488.68 312.37 488.13 312.62 487.56 312.87 C484.73 314.39 482.38 316.27 479.85 318.25 C466.68 328.32 452.47 334.57 436.48 338.88 C435.7 339.09 434.92 339.3 434.11 339.52 C407.65 346.34 374.69 343.13 350.65 329.69 C348.93 328.66 347.22 327.61 345.52 326.55 C343.67 325.4 341.77 324.34 339.85 323.32 C332.23 318.97 324.88 313.59 319.44 306.66 C318.12 304.92 318.12 304.92 315.85 302.82 C309.24 296.04 303.97 288.43 298.99 280.4 C298.41 279.65 297.83 278.9 297.23 278.13 C296.24 278.13 295.25 278.13 294.23 278.13 C293.98 278.63 293.74 279.13 293.49 279.64 C290.42 285.53 286.68 290.63 282.53 295.78 C280.02 298.61 280.02 298.61 279.23 302.13 C278.24 302.46 277.25 302.79 276.23 303.13 C276.23 303.79 276.23 304.45 276.23 305.13 C275.57 305.13 274.91 305.13 274.23 305.13 C274.23 305.79 274.23 306.45 274.23 307.13 C273.24 307.46 272.25 307.79 271.23 308.13 C271.23 308.79 271.23 309.45 271.23 310.13 C270.57 310.13 269.91 310.13 269.23 310.13 C269.23 310.79 269.23 311.45 269.23 312.13 C268.68 312.37 268.13 312.62 267.56 312.87 C264.73 314.39 262.38 316.27 259.85 318.25 C246.68 328.32 232.47 334.57 216.48 338.88 C215.7 339.09 214.92 339.3 214.11 339.52 C187.65 346.34 154.69 343.13 130.65 329.69 C128.93 328.66 127.22 327.61 125.52 326.55 C123.67 325.4 121.77 324.34 119.85 323.32 C112.23 318.97 104.88 313.59 99.44 306.66 C98.12 304.92 98.12 304.92 95.85 302.82 C89.23 296.04 83.94 288.39 78.89 280.4 C78.34 279.65 77.79 278.9 77.23 278.13 C76.57 278.13 75.91 278.13 75.23 278.13 Z M559.23 495.13 C558.17 495.61 557.12 496.09 556.04 496.58 C546.44 501.33 535.06 508.8 529.23 518.13 C529.23 518.79 529.23 519.45 529.23 520.13 C528.57 520.13 527.91 520.13 527.23 520.13 C516.35 539.27 512.06 555.58 512.11 577.66 C512.11 579.11 512.11 580.57 512.1 582.02 C512.1 586 512.11 589.98 512.11 593.96 C512.12 598.26 512.11 602.56 512.11 606.86 C512.11 614.3 512.12 621.75 512.12 629.19 C512.13 639.95 512.13 650.71 512.13 661.47 C512.14 678.93 512.14 696.39 512.15 713.85 C512.16 730.8 512.17 747.76 512.17 764.71 C512.17 765.76 512.17 766.81 512.17 767.88 C512.17 773.13 512.18 778.38 512.18 783.62 C512.19 827.12 512.21 870.63 512.23 914.13 C515.92 915.36 519.33 915.27 523.17 915.25 C524.4 915.26 524.4 915.26 525.66 915.26 C528.41 915.26 531.16 915.26 533.91 915.26 C535.88 915.26 537.85 915.26 539.82 915.26 C545.17 915.27 550.53 915.27 555.88 915.26 C561.48 915.26 567.07 915.26 572.67 915.26 C582.06 915.27 591.45 915.26 600.85 915.26 C611.72 915.25 622.6 915.25 633.48 915.26 C642.8 915.26 652.13 915.27 661.45 915.26 C667.02 915.26 672.6 915.26 678.17 915.26 C683.41 915.27 688.65 915.26 693.89 915.26 C695.82 915.26 697.75 915.26 699.67 915.26 C702.29 915.26 704.91 915.26 707.53 915.25 C708.31 915.26 709.08 915.26 709.88 915.26 C713.34 915.56 713.34 915.56 716.23 914.13 C716.33 912.3 716.36 910.47 716.36 908.64 C716.36 907.44 716.37 906.24 716.37 905 C716.37 903.65 716.37 902.3 716.37 900.96 C716.37 899.54 716.37 898.12 716.38 896.7 C716.39 892.78 716.39 888.86 716.39 884.94 C716.39 880.72 716.4 876.5 716.4 872.28 C716.42 863.03 716.42 853.79 716.43 844.55 C716.43 838.78 716.43 833 716.44 827.23 C716.45 811.23 716.46 795.24 716.47 779.25 C716.47 778.22 716.47 777.2 716.47 776.14 C716.47 775.12 716.47 774.09 716.47 773.03 C716.47 770.95 716.47 768.87 716.47 766.79 C716.47 765.75 716.47 764.72 716.47 763.66 C716.47 746.96 716.49 730.27 716.51 713.58 C716.54 696.43 716.55 679.28 716.55 662.14 C716.55 652.51 716.56 642.89 716.58 633.26 C716.59 625.06 716.6 616.85 716.59 608.65 C716.58 604.47 716.58 600.29 716.6 596.11 C716.69 568.12 714.44 544.68 700.23 520.13 C699.57 520.13 698.91 520.13 698.23 520.13 C697.89 519.32 697.89 519.32 697.54 518.5 C689.68 504.29 672.13 495.36 657.23 490.82 C643.99 487.08 630.64 486.78 616.99 486.81 C614.06 486.82 611.14 486.79 608.21 486.77 C591.27 486.71 574.76 487.83 559.23 495.13 Z " fill="#000000" transform="translate(233.77225142717361,167.87234950065613)"/>
<path d="M0 0 C1.09 -0 2.17 -0.01 3.29 -0.01 C4.5 -0.01 5.7 -0.01 6.94 -0.01 C8.21 -0.02 9.49 -0.02 10.8 -0.02 C14.34 -0.03 17.88 -0.04 21.42 -0.04 C25.23 -0.04 29.05 -0.05 32.86 -0.06 C42.08 -0.08 51.3 -0.09 60.52 -0.1 C64.86 -0.11 69.2 -0.11 73.53 -0.12 C87.95 -0.13 102.37 -0.15 116.79 -0.16 C120.53 -0.16 124.28 -0.16 128.02 -0.16 C128.95 -0.16 129.88 -0.16 130.84 -0.16 C145.92 -0.17 160.99 -0.2 176.07 -0.23 C191.54 -0.26 207.01 -0.28 222.48 -0.28 C231.17 -0.28 239.85 -0.29 248.54 -0.32 C255.94 -0.34 263.34 -0.35 270.74 -0.34 C274.52 -0.33 278.29 -0.34 282.07 -0.36 C286.16 -0.38 290.25 -0.37 294.35 -0.35 C295.54 -0.36 296.74 -0.38 297.97 -0.39 C304.24 -0.34 308.15 -0.14 312.9 4.13 C316.31 8.02 317.02 11.24 317.03 16.33 C317.03 17.41 317.04 18.49 317.04 19.61 C317.04 20.8 317.04 21.99 317.04 23.22 C317.04 25.12 317.04 25.12 317.05 27.05 C317.06 30.57 317.06 34.09 317.06 37.6 C317.06 41.39 317.07 45.18 317.07 48.97 C317.09 57.26 317.09 65.55 317.1 73.84 C317.1 79.01 317.11 84.19 317.11 89.36 C317.12 103.68 317.13 118.01 317.14 132.33 C317.14 133.24 317.14 134.16 317.14 135.11 C317.14 136.02 317.14 136.94 317.14 137.89 C317.14 139.75 317.14 141.61 317.14 143.48 C317.14 144.4 317.14 145.32 317.14 146.28 C317.14 161.25 317.16 176.22 317.18 191.19 C317.21 206.56 317.22 221.93 317.22 237.29 C317.22 245.92 317.23 254.55 317.25 263.18 C317.26 270.53 317.27 277.88 317.26 285.22 C317.25 288.97 317.26 292.72 317.27 296.47 C317.28 300.54 317.28 304.6 317.27 308.66 C317.28 310.44 317.28 310.44 317.29 312.26 C317.23 322.32 317.23 322.32 313.9 327.13 C309.72 330.9 307.34 332.26 301.78 332.27 C300.69 332.28 299.6 332.28 298.48 332.29 C297.27 332.29 296.07 332.29 294.82 332.29 C293.55 332.29 292.27 332.3 290.96 332.3 C287.41 332.31 283.86 332.32 280.31 332.32 C276.48 332.33 272.66 332.34 268.83 332.35 C259.59 332.38 250.34 332.39 241.1 332.4 C238.49 332.41 235.88 332.41 233.27 332.42 C217.07 332.44 200.87 332.46 184.67 332.48 C180.91 332.48 177.16 332.48 173.4 332.48 C172 332.49 172 332.49 170.58 332.49 C155.46 332.5 140.34 332.53 125.22 332.57 C109.71 332.62 94.2 332.64 78.68 332.65 C69.97 332.65 61.26 332.66 52.54 332.69 C45.12 332.72 37.7 332.73 30.28 332.72 C26.5 332.72 22.71 332.72 18.92 332.74 C14.82 332.77 10.71 332.76 6.61 332.74 C5.41 332.76 4.22 332.77 2.98 332.78 C-2.79 332.73 -7.32 332.58 -11.79 328.64 C-17.15 322.47 -16.53 315.41 -16.49 307.65 C-16.5 305.77 -16.5 305.77 -16.51 303.84 C-16.52 300.36 -16.52 296.88 -16.51 293.4 C-16.5 289.64 -16.52 285.88 -16.53 282.13 C-16.54 274.77 -16.54 267.41 -16.54 260.05 C-16.54 254.07 -16.54 248.09 -16.54 242.11 C-16.54 241.26 -16.54 240.41 -16.54 239.53 C-16.55 237.8 -16.55 236.07 -16.55 234.34 C-16.56 218.12 -16.56 201.9 -16.55 185.68 C-16.54 170.85 -16.55 156.01 -16.57 141.18 C-16.6 125.94 -16.61 110.7 -16.6 95.46 C-16.6 86.91 -16.6 78.36 -16.62 69.81 C-16.63 62.53 -16.63 55.25 -16.61 47.97 C-16.61 44.25 -16.6 40.54 -16.62 36.83 C-16.64 32.8 -16.62 28.77 -16.6 24.74 C-16.61 23.57 -16.62 22.4 -16.63 21.2 C-16.57 14.39 -15.8 9.91 -12.1 4.13 C-9.48 2.2 -9.48 2.2 -7.1 1.13 C-4.57 -0.13 -2.83 0.01 0 0 Z M11.9 28.13 C11.88 63.01 11.86 97.88 11.85 132.75 C11.85 136.86 11.84 140.98 11.84 145.09 C11.84 145.91 11.84 146.73 11.84 147.57 C11.84 160.85 11.83 174.12 11.82 187.39 C11.81 201.01 11.81 214.62 11.8 228.23 C11.8 236.64 11.8 245.04 11.79 253.45 C11.78 259.2 11.78 264.96 11.78 270.72 C11.79 274.04 11.78 277.37 11.78 280.69 C11.77 284.29 11.78 287.89 11.78 291.49 C11.77 292.55 11.77 293.61 11.77 294.7 C11.77 295.66 11.77 296.62 11.77 297.61 C11.77 298.44 11.77 299.27 11.77 300.13 C11.77 302.21 11.77 302.21 12.9 304.13 C103.65 304.13 194.4 304.13 287.9 304.13 C289.09 301.75 289.02 300.29 289.02 297.63 C289.03 296.67 289.03 295.72 289.03 294.74 C289.03 293.68 289.03 292.62 289.03 291.54 C289.03 289.86 289.03 289.86 289.03 288.16 C289.03 284.39 289.03 280.63 289.03 276.86 C289.03 274.17 289.03 271.49 289.03 268.8 C289.04 262.24 289.04 255.68 289.03 249.12 C289.03 243.79 289.03 238.47 289.03 233.14 C289.03 232.38 289.03 231.62 289.03 230.84 C289.03 229.31 289.03 227.77 289.03 226.23 C289.04 211.8 289.03 197.36 289.03 182.93 C289.02 170.53 289.02 158.14 289.03 145.74 C289.03 131.36 289.04 116.97 289.03 102.59 C289.03 101.06 289.03 99.53 289.03 98 C289.03 97.24 289.03 96.49 289.03 95.71 C289.03 90.39 289.03 85.06 289.03 79.74 C289.04 73.25 289.04 66.77 289.03 60.28 C289.03 56.97 289.03 53.66 289.03 50.35 C289.03 46.77 289.03 43.19 289.03 39.61 C289.03 38.02 289.03 38.02 289.03 36.4 C289.03 34.97 289.03 34.97 289.02 33.52 C289.02 32.69 289.02 31.86 289.02 31.01 C289.1 29.12 289.1 29.12 287.9 28.13 C286.42 28.04 284.94 28.01 283.46 28.01 C282.5 28.01 281.54 28.01 280.55 28.01 C278.94 28.01 278.94 28.01 277.3 28.01 C275.61 28.01 275.61 28.01 273.88 28.01 C270.07 28.01 266.26 28.02 262.45 28.02 C259.73 28.02 257.01 28.02 254.29 28.02 C248.42 28.02 242.55 28.02 236.68 28.03 C228.19 28.04 219.7 28.04 211.21 28.04 C197.44 28.04 183.67 28.05 169.9 28.06 C156.52 28.07 143.14 28.08 129.76 28.08 C128.94 28.08 128.11 28.08 127.27 28.08 C123.13 28.08 119 28.08 114.86 28.08 C80.54 28.09 46.22 28.11 11.9 28.13 Z " fill="#000000" transform="translate(318.10195541381836,639.8657789230347)"/>
</svg>
