<?xml version="1.0" encoding="UTF-8"?>
<!DOCTYPE svg PUBLIC "-//W3C//DTD SVG 1.1//EN" "http://www.w3.org/Graphics/SVG/1.1/DTD/svg11.dtd">
<svg xmlns="http://www.w3.org/2000/svg" version="1.1" width="512px" height="512px" style="shape-rendering:geometricPrecision; text-rendering:geometricPrecision; image-rendering:optimizeQuality; fill-rule:evenodd; clip-rule:evenodd" xmlns:xlink="http://www.w3.org/1999/xlink">
<g><path style="opacity:0.947" fill="#000000" d="M 511.5,442.5 C 511.5,448.5 511.5,454.5 511.5,460.5C 428.833,460.5 346.167,460.5 263.5,460.5C 257.209,487.453 240.209,501.786 212.5,503.5C 185.623,501.119 168.623,486.952 161.5,461C 141.492,460.167 121.492,460.334 101.5,461.5C 94.6863,488.143 77.5196,502.143 50,503.5C 32.4754,502.739 18.4754,495.406 8,481.5C 4.08108,475.547 1.24775,469.214 -0.5,462.5C -0.5,329.5 -0.5,196.5 -0.5,63.5C 1.13988,61.045 3.47322,59.545 6.5,59C 56.1667,58.3333 105.833,58.3333 155.5,59C 157.081,59.7065 158.581,60.5399 160,61.5C 194.938,131.043 229.605,200.71 264,270.5C 264.5,327.832 264.667,385.166 264.5,442.5C 269.833,442.5 275.167,442.5 280.5,442.5C 280.5,297.5 280.5,152.5 280.5,7.5C 286.5,7.5 292.5,7.5 298.5,7.5C 298.5,16.1667 298.5,24.8333 298.5,33.5C 342.501,33.3333 386.501,33.5 430.5,34C 432.81,35.6374 434.31,37.804 435,40.5C 435.5,83.4987 435.667,126.499 435.5,169.5C 445.58,169.077 455.58,169.577 465.5,171C 467.487,172.319 468.654,174.152 469,176.5C 469.5,219.832 469.667,263.165 469.5,306.5C 479.172,306.334 488.839,306.5 498.5,307C 500.726,308.227 502.226,310.061 503,312.5C 503.5,355.832 503.667,399.165 503.5,442.5C 506.167,442.5 508.833,442.5 511.5,442.5 Z M 298.5,51.5 C 315.167,51.5 331.833,51.5 348.5,51.5C 348.5,62.8333 348.5,74.1667 348.5,85.5C 354.5,85.5 360.5,85.5 366.5,85.5C 366.5,74.1667 366.5,62.8333 366.5,51.5C 383.5,51.5 400.5,51.5 417.5,51.5C 417.5,90.8333 417.5,130.167 417.5,169.5C 377.833,169.5 338.167,169.5 298.5,169.5C 298.5,130.167 298.5,90.8333 298.5,51.5 Z M 17.5,76.5 C 60.8385,76.1667 104.172,76.5001 147.5,77.5C 180.333,143.167 213.167,208.833 246,274.5C 246.667,320.5 246.667,366.5 246,412.5C 232.06,401.06 216.226,397.56 198.5,402C 178.506,408.489 166.506,421.989 162.5,442.5C 142.156,442.833 121.822,442.5 101.5,441.5C 91.5134,409.493 69.8468,396.327 36.5,402C 29.772,403.863 23.772,407.03 18.5,411.5C 17.5,299.835 17.1667,188.169 17.5,76.5 Z M 51.5,110.5 C 77.8418,110.167 104.175,110.5 130.5,111.5C 149.894,153.288 169.56,194.954 189.5,236.5C 143.505,237.5 97.5048,237.833 51.5,237.5C 51.5,195.167 51.5,152.833 51.5,110.5 Z M 298.5,187.5 C 320.833,187.5 343.167,187.5 365.5,187.5C 365.5,198.833 365.5,210.167 365.5,221.5C 371.5,221.5 377.5,221.5 383.5,221.5C 383.5,210.167 383.5,198.833 383.5,187.5C 406.167,187.5 428.833,187.5 451.5,187.5C 451.5,227.167 451.5,266.833 451.5,306.5C 400.5,306.5 349.5,306.5 298.5,306.5C 298.5,266.833 298.5,227.167 298.5,187.5 Z M 298.5,324.5 C 326.833,324.5 355.167,324.5 383.5,324.5C 383.5,335.833 383.5,347.167 383.5,358.5C 389.5,358.5 395.5,358.5 401.5,358.5C 401.5,347.167 401.5,335.833 401.5,324.5C 429.5,324.5 457.5,324.5 485.5,324.5C 485.5,363.833 485.5,403.167 485.5,442.5C 423.167,442.5 360.833,442.5 298.5,442.5C 298.5,403.167 298.5,363.833 298.5,324.5 Z M 43.5,418.5 C 63.3342,416.651 76.5009,424.984 83,443.5C 86.1497,463.367 78.3164,476.867 59.5,484C 38.7062,487.523 24.8729,479.356 18,459.5C 15.3645,438.75 23.8645,425.083 43.5,418.5 Z M 205.5,418.5 C 224.748,416.7 237.915,424.7 245,442.5C 248.211,457.2 244.045,469.366 232.5,479C 214.293,489.158 198.46,486.325 185,470.5C 173.898,445.959 180.731,428.626 205.5,418.5 Z"/></g>
<g><path style="opacity:0.945" fill="#000000" d="M 41.5,92.5 C 73.5017,92.3334 105.502,92.5 137.5,93C 139.421,93.3603 141.088,94.1936 142.5,95.5C 167.112,145.558 190.779,196.058 213.5,247C 213.089,250.496 211.422,253.163 208.5,255C 151.5,255.667 94.5,255.667 37.5,255C 35.9512,253.786 34.7845,252.286 34,250.5C 33.3333,199.5 33.3333,148.5 34,97.5C 35.9133,94.7197 38.4133,93.053 41.5,92.5 Z M 51.5,110.5 C 51.5,152.833 51.5,195.167 51.5,237.5C 97.5048,237.833 143.505,237.5 189.5,236.5C 169.56,194.954 149.894,153.288 130.5,111.5C 104.175,110.5 77.8418,110.167 51.5,110.5 Z"/></g>
<g><path style="opacity:0.915" fill="#000000" d="M 46.5,438.5 C 59.6904,438.189 65.1904,444.522 63,457.5C 55.4013,467.298 47.4013,467.631 39,458.5C 35.6621,449.527 38.1621,442.86 46.5,438.5 Z"/></g>
<g><path style="opacity:0.915" fill="#000000" d="M 209.5,438.5 C 222.292,438.781 227.459,445.115 225,457.5C 218.011,466.702 210.344,467.369 202,459.5C 197.494,449.844 199.994,442.844 209.5,438.5 Z"/></g>
</svg>
